<?xml version="1.0" encoding="UTF-8" standalone="no"?><!DOCTYPE svg PUBLIC "-//W3C//DTD SVG 1.1//EN" "http://www.w3.org/Graphics/SVG/1.1/DTD/svg11.dtd"><svg width="100%" height="100%" viewBox="0 0 540 660" version="1.1" xmlns="http://www.w3.org/2000/svg" xmlns:xlink="http://www.w3.org/1999/xlink" xml:space="preserve" xmlns:serif="http://www.serif.com/" style="fill-rule:evenodd;clip-rule:evenodd;stroke-linecap:round;stroke-linejoin:round;stroke-miterlimit:1.5;"><path d="M427.795,209.97c-0.305,-0.3 9.802,-0.334 10.815,0l0,381.836c0,21.112 -17.141,38.252 -38.253,38.252l-122.876,0c-21.112,0 -38.252,-17.14 -38.252,-38.252l0,-381.836c0,-0.222 10.815,-0.471 10.815,0l0,376.079c0,18.821 15.281,34.102 34.102,34.102l109.547,0c18.821,0 34.102,-15.281 34.102,-34.102l0,-376.079Z" style="fill:#f83e4b;"/><g><g><circle cx="126.271" cy="117.79" r="83.872" style="fill:none;stroke:#304ffe;stroke-width:10px;"/><g><path d="M210.142,117.79c0,0 90.289,-2.488 111.752,0c7.497,0.869 15.91,7.462 17.025,14.927c3.048,20.4 1.262,107.47 1.262,107.47" style="fill:none;stroke:#304ffe;stroke-width:4px;"/><path d="M340.181,289.406l-32.24,-49.219l64.479,0l-32.239,49.219Z" style="fill:none;stroke:#304ffe;stroke-width:4px;"/></g></g><text x="87.303px" y="135.604px" style="font-family:'Montserrat-Regular', 'Montserrat';font-size:70.411px;">q1</text></g><path d="M406.682,513.002c6.837,0 12.387,5.551 12.387,12.387l0,69.36c0,6.836 -5.551,12.387 -12.387,12.387l-135.525,0c-6.837,0 -12.387,-5.551 -12.387,-12.387l0,-69.36c0,-6.836 5.55,-12.387 12.387,-12.387l135.525,0Zm-5.21,7.274l-125.105,0c-5.78,0 -10.473,4.693 -10.473,10.473l0,58.64c0,5.78 4.693,10.473 10.473,10.473l125.105,0c5.78,0 10.472,-4.693 10.472,-10.473l0,-58.64c0,-5.78 -4.692,-10.473 -10.472,-10.473Z" style="fill:#f5a622;"/><path d="M406.682,410.828c6.837,0 12.387,5.55 12.387,12.387l0,69.36c0,6.836 -5.551,12.387 -12.387,12.387l-135.525,0c-6.837,0 -12.387,-5.551 -12.387,-12.387l0,-69.36c0,-6.837 5.55,-12.387 12.387,-12.387l135.525,0Zm-5.21,7.274l-125.105,0c-5.78,0 -10.473,4.693 -10.473,10.472l0,58.641c0,5.78 4.693,10.472 10.473,10.472l125.105,0c5.78,0 10.472,-4.692 10.472,-10.472l0,-58.641c0,-5.779 -4.692,-10.472 -10.472,-10.472Z" style="fill:#09abf6;"/><path d="M406.682,308.654c6.837,0 12.387,5.55 12.387,12.386l0,69.36c0,6.837 -5.551,12.387 -12.387,12.387l-135.525,0c-6.837,0 -12.387,-5.55 -12.387,-12.387l0,-69.36c0,-6.836 5.55,-12.386 12.387,-12.386l135.525,0Zm-5.21,7.274l-125.105,0c-5.78,0 -10.473,4.693 -10.473,10.472l0,58.641c0,5.78 4.693,10.472 10.473,10.472l125.105,0c5.78,0 10.472,-4.692 10.472,-10.472l0,-58.641c0,-5.779 -4.692,-10.472 -10.472,-10.472Z" style="fill:#304ffe;"/><g transform="matrix(3.38866,0,0,3.38866,-1912.18,-310.236)"><text x="645.182px" y="121.313px" style="font-family:'Montserrat-Regular', 'Montserrat';font-size:12px;fill:#304ffe;">a</text><text x="652.154px" y="121.313px" style="font-family:'Montserrat-Regular', 'Montserrat';font-size:12px;fill:#304ffe;">,</text><text x="654.842px" y="121.313px" style="font-family:'Montserrat-Regular', 'Montserrat';font-size:12px;fill:#304ffe;">C;CA</text></g><text x="311.122px" y="587.094px" style="font-family:'Montserrat-Regular', 'Montserrat';font-size:77.215px;fill:#f5a622;">#</text><text x="311.122px" y="484.92px" style="font-family:'Montserrat-Regular', 'Montserrat';font-size:77.215px;fill:#09abf6;">C</text><text x="311.122px" y="382.707px" style="font-family:'Montserrat-Regular', 'Montserrat';font-size:77.215px;fill:#304ffe;">A</text></svg>