<?xml version="1.0" encoding="UTF-8" standalone="no"?><!DOCTYPE svg PUBLIC "-//W3C//DTD SVG 1.1//EN" "http://www.w3.org/Graphics/SVG/1.1/DTD/svg11.dtd"><svg width="100%" height="100%" viewBox="0 0 528 297" version="1.1" xmlns="http://www.w3.org/2000/svg" xmlns:xlink="http://www.w3.org/1999/xlink" xml:space="preserve" xmlns:serif="http://www.serif.com/" style="fill-rule:evenodd;clip-rule:evenodd;stroke-linejoin:round;stroke-miterlimit:1.41421;"><rect id="Artboard1" x="-46.32" y="-136.56" width="595.276" height="841.89" style="fill:none;"/><clipPath id="_clip1"><rect id="Artboard11" serif:id="Artboard1" x="-46.32" y="-136.56" width="595.276" height="841.89"/></clipPath><g clip-path="url(#_clip1)"><g><path d="M442.865,127.223c17.373,-11.166 28.907,-30.615 28.907,-52.794c0,-34.661 -28.102,-62.764 -62.755,-62.764c-34.668,0 -62.764,28.103 -62.764,62.765c0,22.179 11.535,41.632 28.908,52.794c-40.932,3.663 -73.133,38.145 -73.133,80.019l0,65.142l213.96,0l0,-65.143c0.004,-41.87 -32.186,-76.346 -73.123,-80.019Z" style="fill:#ef3f4c;fill-rule:nonzero;"/><path d="M156.125,124.823c17.373,-11.166 28.908,-30.615 28.908,-52.794c0,-34.661 -28.103,-62.764 -62.755,-62.764c-34.668,0 -62.765,28.103 -62.765,62.765c0,22.179 11.535,41.632 28.908,52.794c-40.932,3.663 -73.133,38.145 -73.133,80.019l0,65.142l213.96,0l0,-65.143c0.005,-41.87 -32.185,-76.346 -73.123,-80.019Z" style="fill:#f7a61e;fill-rule:nonzero;"/><path d="M299.635,149.613c17.373,-11.166 28.908,-30.615 28.908,-52.795c0,-34.66 -28.103,-62.763 -62.756,-62.763c-34.668,0 -62.764,28.103 -62.764,62.764c0,22.179 11.535,41.632 28.908,52.794c-40.932,3.664 -73.133,38.145 -73.133,80.019l0,65.142l213.96,0l0,-65.143c0.005,-41.87 -32.185,-76.346 -73.123,-80.018Z" style="fill:#09abf6;fill-rule:nonzero;"/><path id="path2993" d="M276.157,228.469c0,-2.865 -1.014,-5.311 -3.041,-7.338c-2.027,-2.027 -4.473,-3.04 -7.338,-3.04c-2.865,0 -5.311,1.013 -7.338,3.04c-2.027,2.027 -3.041,4.473 -3.041,7.338c0,2 0.514,3.811 1.541,5.433c1.027,1.622 2.405,2.892 4.135,3.811l-5.595,18.569c-0.27,0.81 -0.135,1.567 0.406,2.27c0.54,0.703 1.243,1.054 2.108,1.054l15.568,0c0.865,0 1.568,-0.351 2.108,-1.054c0.541,-0.703 0.676,-1.46 0.406,-2.27l-5.595,-18.569c1.73,-0.919 3.108,-2.189 4.135,-3.811c1.027,-1.622 1.541,-3.433 1.541,-5.433Zm-31.137,-20.757l41.516,0l0,-15.569c0,-5.73 -2.027,-10.622 -6.082,-14.676c-4.054,-4.054 -8.946,-6.081 -14.676,-6.081c-5.73,0 -10.622,2.027 -14.676,6.081c-4.055,4.054 -6.082,8.946 -6.082,14.676l0,15.569Zm67.463,7.784l0,46.705c0,2.162 -0.757,4 -2.27,5.514c-1.514,1.513 -3.352,2.27 -5.514,2.27l-77.842,0c-2.162,0 -4,-0.757 -5.513,-2.27c-1.514,-1.514 -2.271,-3.352 -2.271,-5.514l0,-46.705c0,-2.162 0.757,-4 2.271,-5.514c1.513,-1.514 3.351,-2.27 5.513,-2.27l2.595,0l0,-15.569c0,-9.946 3.568,-18.487 10.703,-25.623c7.136,-7.135 15.677,-10.703 25.623,-10.703c9.946,0 18.487,3.568 25.623,10.703c7.135,7.136 10.703,15.677 10.703,25.623l0,15.569l2.595,0c2.162,0 4,0.756 5.514,2.27c1.513,1.514 2.27,3.352 2.27,5.514Z" style="fill:#495fab;fill-rule:nonzero;"/></g></g></svg>