<?xml version="1.0" encoding="UTF-8" standalone="no"?><!DOCTYPE svg PUBLIC "-//W3C//DTD SVG 1.1//EN" "http://www.w3.org/Graphics/SVG/1.1/DTD/svg11.dtd"><svg width="100%" height="100%" viewBox="0 0 820 249" version="1.1" xmlns="http://www.w3.org/2000/svg" xmlns:xlink="http://www.w3.org/1999/xlink" xml:space="preserve" xmlns:serif="http://www.serif.com/" style="fill-rule:evenodd;clip-rule:evenodd;stroke-linejoin:round;stroke-miterlimit:1.41421;"><rect x="-1.427" y="0.428" width="821.818" height="249.143" style="fill:#09abf6;fill-rule:nonzero;"/><rect x="35.945" y="193.514" width="747.361" height="18.686" style="fill:#f83e4b;fill-rule:nonzero;"/><path d="M188.718,44.665l0,80.482c0,21.454 10.526,32.793 30.438,32.793c19.841,0 30.77,-11.642 30.77,-32.793l0,-80.482l18.238,0l0,81.493c0,29.114 -19.697,48.67 -49.008,48.67c-30.482,0 -48.675,-18.193 -48.675,-48.67l0,-81.493l18.237,0Zm-115.876,-0.84c50.094,0 72.911,33.083 72.911,63.819c0,32.941 -22.18,66.178 -71.733,66.178c-12.569,0 -24.026,-1.029 -33.575,-2.035l-2.136,-0.224l0,-125.439l2.092,-0.264c11.131,-1.389 21.441,-2.035 32.441,-2.035Zm53.495,63.819c0,-29.365 -20.048,-47.603 -52.317,-47.603c-6.478,0 -13.145,0.387 -17.473,0.989l0,95.438c4.504,0.681 10.283,0.967 19.156,0.967c31.707,0 50.634,-18.612 50.634,-49.791Z" style="fill:#fffffe;fill-rule:nonzero;"/><path d="M701.342,172.82l-18.312,0l-0.009,-129.773l2.874,-0.778l79.103,88.82l0,-86.451l18.308,0l0,129.179l-2.241,0.748l-79.723,-89.193l0,87.448m-226.778,-128.995c20.35,0 40.364,6.023 55.24,20.384c23.342,22.532 23.64,66.086 0.387,88.877c-23.938,23.462 -57.015,21.969 -88.024,18.701l-2.136,-0.224l0,-125.439l2.092,-0.264c11.131,-1.389 21.441,-2.035 32.441,-2.035m177.937,17.732l-58.743,0l0,37.812l52.854,0l0,16.888l-52.854,0l0,39.661l58.743,0l0,16.893l-76.98,0l0,-128.146l76.98,0l0,16.892m-124.442,46.087c0,-6.644 -1.067,-13.654 -3.637,-19.827c-10.664,-25.609 -41.682,-30.192 -66.153,-26.787l0,95.438c25.007,3.782 56.257,-1.401 66.337,-27.89c2.474,-6.501 3.453,-14.026 3.453,-20.934" style="fill:#fffffe;fill-rule:nonzero;"/><path d="M300.947,121.066l0,-27.478l75.044,0l0,-25.515l39.253,39.254l-39.253,39.254l0,-25.515l-75.044,0Z" style="fill:#f5a623;"/></svg>