<?xml version="1.0" encoding="UTF-8" standalone="no"?>
<!DOCTYPE svg PUBLIC "-//W3C//DTD SVG 1.1//EN"
 "http://www.w3.org/Graphics/SVG/1.1/DTD/svg11.dtd">
<!-- Generated by graphviz version 2.40.1 (20161225.0304)
 -->
<!-- Title: %0 Pages: 1 -->
<svg width="376pt" height="293pt"
 viewBox="0.00 0.00 376.36 292.84" xmlns="http://www.w3.org/2000/svg" xmlns:xlink="http://www.w3.org/1999/xlink">
<g id="graph0" class="graph" transform="scale(1 1) rotate(0) translate(4 288.8357)">
<title>%0</title>
<polygon fill="#ffffff" stroke="transparent" points="-4,4 -4,-288.8357 372.3553,-288.8357 372.3553,4 -4,4"/>
<!-- DE -->
<g id="node1" class="node">
<title>DE</title>
<ellipse fill="none" stroke="#000000" cx="272.0553" cy="-142.4178" rx="27" ry="18"/>
<text text-anchor="middle" x="272.0553" y="-138.2178" font-family="Times,serif" font-size="14.00" fill="#000000">DE</text>
</g>
<!-- DK -->
<g id="node2" class="node">
<title>DK</title>
<ellipse fill="none" stroke="#000000" cx="341.3553" cy="-142.4178" rx="27" ry="18"/>
<text text-anchor="middle" x="341.3553" y="-138.2178" font-family="Times,serif" font-size="14.00" fill="#000000">DK</text>
</g>
<!-- DE&#45;&#45;DK -->
<g id="edge1" class="edge">
<title>DE&#45;&#45;DK</title>
<path fill="none" stroke="#000000" d="M299.4445,-142.4178C304.2872,-142.4178 309.3279,-142.4178 314.165,-142.4178"/>
</g>
<!-- PL -->
<g id="node3" class="node">
<title>PL</title>
<ellipse fill="none" stroke="#000000" cx="82.5495" cy="-33.0066" rx="27" ry="18"/>
<text text-anchor="middle" x="82.5495" y="-28.8066" font-family="Times,serif" font-size="14.00" fill="#000000">PL</text>
</g>
<!-- DE&#45;&#45;PL -->
<g id="edge2" class="edge">
<title>DE&#45;&#45;PL</title>
<path fill="none" stroke="#000000" d="M251.4141,-130.5007C214.961,-109.4545 139.6002,-65.9449 103.1653,-44.9091"/>
</g>
<!-- CZ -->
<g id="node4" class="node">
<title>CZ</title>
<ellipse fill="none" stroke="#000000" cx="27" cy="-99.208" rx="27" ry="18"/>
<text text-anchor="middle" x="27" y="-95.008" font-family="Times,serif" font-size="14.00" fill="#000000">CZ</text>
</g>
<!-- DE&#45;&#45;CZ -->
<g id="edge3" class="edge">
<title>DE&#45;&#45;CZ</title>
<path fill="none" stroke="#000000" d="M245.8301,-137.7936C198.7873,-129.4987 100.5813,-112.1824 53.407,-103.8643"/>
</g>
<!-- AT -->
<g id="node5" class="node">
<title>AT</title>
<ellipse fill="none" stroke="#000000" cx="167.6564" cy="-18" rx="27" ry="18"/>
<text text-anchor="middle" x="167.6564" y="-13.8" font-family="Times,serif" font-size="14.00" fill="#000000">AT</text>
</g>
<!-- DE&#45;&#45;AT -->
<g id="edge4" class="edge">
<title>DE&#45;&#45;AT</title>
<path fill="none" stroke="#000000" d="M258.8331,-126.6602C238.8613,-102.8587 201.2032,-57.9796 181.101,-34.0227"/>
</g>
<!-- CH -->
<g id="node6" class="node">
<title>CH</title>
<ellipse fill="none" stroke="#000000" cx="242.498" cy="-61.2099" rx="27" ry="18"/>
<text text-anchor="middle" x="242.498" y="-57.0099" font-family="Times,serif" font-size="14.00" fill="#000000">CH</text>
</g>
<!-- DE&#45;&#45;CH -->
<g id="edge5" class="edge">
<title>DE&#45;&#45;CH</title>
<path fill="none" stroke="#000000" d="M265.6418,-124.7969C260.6841,-111.1756 253.8536,-92.409 248.899,-78.7964"/>
</g>
<!-- FR -->
<g id="node7" class="node">
<title>FR</title>
<ellipse fill="none" stroke="#000000" cx="242.498" cy="-223.6258" rx="27" ry="18"/>
<text text-anchor="middle" x="242.498" y="-219.4258" font-family="Times,serif" font-size="14.00" fill="#000000">FR</text>
</g>
<!-- DE&#45;&#45;FR -->
<g id="edge6" class="edge">
<title>DE&#45;&#45;FR</title>
<path fill="none" stroke="#000000" d="M265.6418,-160.0388C260.6841,-173.6601 253.8536,-192.4267 248.899,-206.0393"/>
</g>
<!-- LU -->
<g id="node8" class="node">
<title>LU</title>
<ellipse fill="none" stroke="#000000" cx="167.6564" cy="-266.8357" rx="27" ry="18"/>
<text text-anchor="middle" x="167.6564" y="-262.6357" font-family="Times,serif" font-size="14.00" fill="#000000">LU</text>
</g>
<!-- DE&#45;&#45;LU -->
<g id="edge7" class="edge">
<title>DE&#45;&#45;LU</title>
<path fill="none" stroke="#000000" d="M258.8331,-158.1755C238.8613,-181.977 201.2032,-226.8561 181.101,-250.813"/>
</g>
<!-- BE -->
<g id="node9" class="node">
<title>BE</title>
<ellipse fill="none" stroke="#000000" cx="27" cy="-185.6277" rx="27" ry="18"/>
<text text-anchor="middle" x="27" y="-181.4277" font-family="Times,serif" font-size="14.00" fill="#000000">BE</text>
</g>
<!-- DE&#45;&#45;BE -->
<g id="edge8" class="edge">
<title>DE&#45;&#45;BE</title>
<path fill="none" stroke="#000000" d="M245.8301,-147.0421C198.7873,-155.337 100.5813,-172.6533 53.407,-180.9714"/>
</g>
<!-- NL -->
<g id="node10" class="node">
<title>NL</title>
<ellipse fill="none" stroke="#000000" cx="82.5495" cy="-251.8291" rx="27" ry="18"/>
<text text-anchor="middle" x="82.5495" y="-247.6291" font-family="Times,serif" font-size="14.00" fill="#000000">NL</text>
</g>
<!-- DE&#45;&#45;NL -->
<g id="edge9" class="edge">
<title>DE&#45;&#45;NL</title>
<path fill="none" stroke="#000000" d="M251.4141,-154.335C214.961,-175.3812 139.6002,-218.8908 103.1653,-239.9266"/>
</g>
<!-- CZ&#45;&#45;PL -->
<g id="edge17" class="edge">
<title>CZ&#45;&#45;PL</title>
<path fill="none" stroke="#000000" d="M40.447,-83.1825C49.1808,-72.774 60.5174,-59.2636 69.2264,-48.8846"/>
</g>
<!-- AT&#45;&#45;CZ -->
<g id="edge14" class="edge">
<title>AT&#45;&#45;CZ</title>
<path fill="none" stroke="#000000" d="M147.2037,-29.8083C120.5362,-45.2048 74.157,-71.9819 47.4773,-87.3854"/>
</g>
<!-- CH&#45;&#45;AT -->
<g id="edge13" class="edge">
<title>CH&#45;&#45;AT</title>
<path fill="none" stroke="#000000" d="M222.0472,-49.4026C211.487,-43.3056 198.6391,-35.8879 188.0824,-29.793"/>
</g>
<!-- CH&#45;&#45;FR -->
<g id="edge12" class="edge">
<title>CH&#45;&#45;FR</title>
<path fill="none" stroke="#000000" d="M242.498,-79.2118C242.498,-110.4315 242.498,-174.2675 242.498,-205.5433"/>
</g>
<!-- LU&#45;&#45;FR -->
<g id="edge11" class="edge">
<title>LU&#45;&#45;FR</title>
<path fill="none" stroke="#000000" d="M188.1072,-255.0284C198.6674,-248.9314 211.5153,-241.5137 222.0719,-235.4188"/>
</g>
<!-- LU&#45;&#45;BE -->
<g id="edge16" class="edge">
<title>LU&#45;&#45;BE</title>
<path fill="none" stroke="#000000" d="M147.2037,-255.0274C120.5362,-239.6309 74.157,-212.8538 47.4773,-197.4503"/>
</g>
<!-- BE&#45;&#45;FR -->
<g id="edge10" class="edge">
<title>BE&#45;&#45;FR</title>
<path fill="none" stroke="#000000" d="M53.4243,-190.287C94.8966,-197.5997 174.7978,-211.6885 216.195,-218.9879"/>
</g>
<!-- BE&#45;&#45;NL -->
<g id="edge15" class="edge">
<title>BE&#45;&#45;NL</title>
<path fill="none" stroke="#000000" d="M40.447,-201.6532C49.1808,-212.0617 60.5174,-225.5721 69.2264,-235.9511"/>
</g>
</g>
</svg>