<svg xmlns="http://www.w3.org/2000/svg" xmlns:xlink="http://www.w3.org/1999/xlink" xmlns:lucid="lucid" width="1716" height="980"><g transform="translate(200 -100)" lucid:page-tab-id="0_0"><path d="M459.15 300.4c-11.2-.7-22.4-2.02-33.68-1.54-1.34.06-2.7.14-4.05.25-.22 1-.3 2.03-.36 3.04-.12 2.02-.4 4.07-.32 6.1.12 3.75 8.92 2.5 11.92 2.52 4.78.02 9.56-.03 14.35-.02 2.5 0 5 .02 7.5.08 1.2.03 2.43.08 3.64.13 1.86.08 1.2.45.4 1.5-5.8 7.86-11.92 15.42-17.28 23.57-2.6 3.96-5.4 7.83-7.87 11.86-1.16 1.88-2.4 3.72-3.6 5.57-.58.92-1.18 1.84-1.78 2.75-.98 1.44-2.77.97-4.53 1.02-10.9.3-21.74.74-32.62.88-10.94.14-21.87.63-32.82.76-5.34.06-10.7.38-16.04.62-2.2.1-4.37.28-6.56.23-1.62-.02-1.88.3-2.85-1-.98-1.3-1.96-2.62-2.92-3.94-5.33-7.3-10.3-14.83-15.38-22.27-4.84-7.1-10.52-14-14.3-21.63 18.7-1.74 37.82-.68 56.58-.84 9.52-.08 19.05.16 28.57.17 9.97 0 19.97-.4 29.92.18.18-9.65 1.38-19.22 1.87-28.85.23-4.55.37-9.1.48-13.67.05-2.3.05-4.62-.1-6.92 1.56-.7 3.85-.94 5.46-.23 3.75 1.67 6.4 5.53 9.1 8.3 3.46 3.57 6.92 7.16 10.28 10.82 1.54 1.67 17.07 20.53 17 20.58z" fill="#ff8f80"/><path d="M640 520l120 80-120 80-120-80z" stroke="#0c7cba" stroke-opacity=".24" stroke-width="3" fill="#ff8f80"/><use xlink:href="#a" transform="matrix(1,0,0,1,525,525) translate(27.645061728395035 79.88888888888889)"/><path d="M240 540h160v120H240z" stroke="#000" stroke-width="2" fill="#ffdf71"/><use xlink:href="#b" transform="matrix(1,0,0,1,245,545) translate(30.025 58.6)"/><path d="M520 600H401" stroke="#000" stroke-width="2" fill="none"/><path d="M520 600l1.5 1H520v-2h1.5zM415.27 604.64L401 600l14.27-4.64z"/><path d="M416.27 606L400 600.74v-1.46l16.27-5.28zm-12.03-6l10.03 3.26v-6.52z"/><path d="M368 720c17.67 0 32 17.9 32 40s-14.33 40-32 40h-96c-17.67 0-32-17.9-32-40s14.33-40 32-40z" stroke="#000" stroke-width="2" fill="#ffc374"/><use xlink:href="#c" transform="matrix(1,0,0,1,245,725) translate(14.274999999999999 27.799999999999997)"/><use xlink:href="#d" transform="matrix(1,0,0,1,245,725) translate(64.775 27.799999999999997)"/><use xlink:href="#e" transform="matrix(1,0,0,1,245,725) translate(121.775 27.799999999999997)"/><use xlink:href="#f" transform="matrix(1,0,0,1,245,725) translate(34.05 49.4)"/><path d="M320 660v59" stroke="#000" stroke-width="2" fill="none"/><path/><path d="M320 719l-4.64-14.27h9.28z"/><path d="M320.73 720h-1.46L314 703.73h12zm-4-14.27l3.27 10.03 3.26-10.03z"/><path d="M368 840c17.67 0 32 17.9 32 40s-14.33 40-32 40h-96c-17.67 0-32-17.9-32-40s14.33-40 32-40z" stroke="#000" stroke-width="2" fill="#ff8f80"/><use xlink:href="#g" transform="matrix(1,0,0,1,245,845) translate(3.3249999999999886 27.799999999999997)"/><use xlink:href="#h" transform="matrix(1,0,0,1,245,845) translate(53.82499999999999 27.799999999999997)"/><use xlink:href="#i" transform="matrix(1,0,0,1,245,845) translate(97.725 27.799999999999997)"/><use xlink:href="#j" transform="matrix(1,0,0,1,245,845) translate(22.049999999999997 49.4)"/><use xlink:href="#k" transform="matrix(1,0,0,1,245,845) translate(66.05 49.4)"/><path d="M368 960c17.67 0 32 17.9 32 40s-14.33 40-32 40h-96c-17.67 0-32-17.9-32-40s14.33-40 32-40z" stroke="#000" stroke-width="2" fill="#f5b5c8"/><use xlink:href="#g" transform="matrix(1,0,0,1,245,965) translate(0.7999999999999972 27.799999999999997)"/><use xlink:href="#l" transform="matrix(1,0,0,1,245,965) translate(51.3 27.799999999999997)"/><use xlink:href="#m" transform="matrix(1,0,0,1,245,965) translate(87.3 27.799999999999997)"/><use xlink:href="#j" transform="matrix(1,0,0,1,245,965) translate(4.724999999999994 49.4)"/><use xlink:href="#n" transform="matrix(1,0,0,1,245,965) translate(48.724999999999994 49.4)"/><path d="M320 800v39" stroke="#000" stroke-width="2" fill="none"/><path/><path d="M320 839l-4.64-14.27h9.28z"/><path d="M320.73 840h-1.46L314 823.73h12zm-4-14.27l3.27 10.03 3.26-10.03z"/><path d="M320 920v39" stroke="#000" stroke-width="2" fill="none"/><path/><path d="M320 959l-4.64-14.27h9.28z"/><path d="M320.73 960h-1.46L314 943.73h12zm-4-14.27l3.27 10.03 3.26-10.03z"/><path d="M880 540h160v120H880z" stroke="#000" stroke-width="2" fill="#c7e8ac"/><use xlink:href="#o" transform="matrix(1,0,0,1,885,545) translate(45.025 58.6)"/><path d="M760 600h120" stroke="#000" stroke-width="2" fill="none"/><path d="M760 601h-1.5l1.5-1-1.5-1h1.5zM880 600l-14.27 4.64v-9.28z"/><path d="M880 598.95v2.1L864.73 606v-12zm-13.27 4.3l10.03-3.25-10.03-3.26z"/><path d="M1008 720c17.67 0 32 17.9 32 40s-14.33 40-32 40h-96c-17.67 0-32-17.9-32-40s14.33-40 32-40z" stroke="#000" stroke-width="2" fill="#a3d977"/><use xlink:href="#p" transform="matrix(1,0,0,1,885,725) translate(29.775 27.799999999999997)"/><use xlink:href="#q" transform="matrix(1,0,0,1,885,725) translate(55.275 27.799999999999997)"/><use xlink:href="#r" transform="matrix(1,0,0,1,885,725) translate(14.549999999999997 49.4)"/><use xlink:href="#s" transform="matrix(1,0,0,1,885,725) translate(79.5 49.4)"/><path d="M1008 840c17.67 0 32 17.9 32 40s-14.33 40-32 40h-96c-17.67 0-32-17.9-32-40s14.33-40 32-40z" stroke="#000" stroke-width="2" fill="#a3d977"/><use xlink:href="#t" transform="matrix(1,0,0,1,885,845) translate(21.799999999999997 27.799999999999997)"/><use xlink:href="#q" transform="matrix(1,0,0,1,885,845) translate(63.25 27.799999999999997)"/><use xlink:href="#u" transform="matrix(1,0,0,1,885,845) translate(9.125 49.4)"/><use xlink:href="#v" transform="matrix(1,0,0,1,885,845) translate(75.025 49.4)"/><path d="M1081 881h-41v-2h39v-53.2h2zm0-76.8h-2v-53.22h-39v-2h41zM1040 880v1l-.04-2z"/><path d="M1054.27 754.62l-14.27-4.64 14.27-4.63z"/><path d="M1055.27 756l-16.16-5.25-.04-.4-.27-1.03 16.47-5.35zm-12.03-6.02l10.03 3.26v-6.52z"/><use xlink:href="#w" transform="matrix(1,0,0,1,1028.075,804.1906989199524) translate(0 14.4)"/><use xlink:href="#x" transform="matrix(1,0,0,1,1028.075,804.1906989199524) translate(64.95 14.4)"/><path d="M841 869.42h39v2h-41v-45.4h2zM880 761h-39v43.4h-2V759h41zM880.04 761l-.04-1v-1z"/><path d="M880 870.42l-14.27 4.64v-9.27z"/><path d="M881.15 869.74l-.28 1.45-16.14 5.23V864.4zm-14.42 3.94l10.03-3.26-10.03-3.26z"/><use xlink:href="#y" transform="matrix(1,0,0,1,769.9,804.4111291144364) translate(0 14.4)"/><use xlink:href="#z" transform="matrix(1,0,0,1,769.9,804.4111291144364) translate(65.9 14.4)"/><path d="M960 660v59" stroke="#000" stroke-width="2" fill="none"/><path/><path d="M960 719l-4.64-14.27h9.28z"/><path d="M960.73 720h-1.46L954 703.73h12zm-4-14.27l3.27 10.03 3.26-10.03z"/><path d="M1004 400h72l24 30-24 30h-72l-24-30z" stroke="#000" stroke-width="2" fill="#b2d6ef"/><use xlink:href="#A" transform="matrix(1,0,0,1,985,405) translate(11.25 28.6)"/><use xlink:href="#B" transform="matrix(1,0,0,1,985,405) translate(45.8 28.6)"/><path d="M844 400h72l24 30-24 30h-72l-24-30z" stroke="#000" stroke-width="2" fill="#b2d6ef"/><use xlink:href="#C" transform="matrix(1,0,0,1,825,405) translate(32.025 17.799999999999997)"/><use xlink:href="#D" transform="matrix(1,0,0,1,825,405) translate(12.5 39.4)"/><path d="M960 540l-80-80" stroke="#000" stroke-width="2" fill="none"/><path d="M961.4 540H960l.7-.7zM893.37 466.8l-6.56 6.57L880 460z"/><path d="M895.05 466.54l-8.5 8.5-7.67-15.04h3.32zm-7.97 5.14l4.6-4.6-9.4-4.8z"/><path d="M960 540l80-80" stroke="#000" stroke-width="2" fill="none"/><path d="M960 540h-1.4l.7-.7zM1033.2 473.37l-6.57-6.56L1040 460z"/><path d="M1033.46 475.05l-8.5-8.5 12.84-6.55h3.32zm-5.14-7.97l4.6 4.6 4.8-9.4z"/><path d="M916 290c13.25 0 24 13.43 24 30s-10.75 30-24 30h-72c-13.25 0-24-13.43-24-30s10.75-30 24-30z" stroke="#000" stroke-width="2" fill="#c1e4f7"/><use xlink:href="#E" transform="matrix(1,0,0,1,825,295) translate(18.575000000000003 28.6)"/><path d="M880 400l-1.9-49.25" stroke="#000" stroke-width="2" fill="none"/><path d="M881 400h-1l1-.04zM883.28 364.83l-9.26.35 4.08-14.43z"/><path d="M884.7 365.77l-12.02.47 4.6-16.24h1.6zm-9.35-1.64l6.52-.25-3.65-9.9z"/><path d="M1076 290c13.25 0 24 13.43 24 30s-10.75 30-24 30h-72c-13.25 0-24-13.43-24-30s10.75-30 24-30z" stroke="#000" stroke-width="2" fill="#c1e4f7"/><use xlink:href="#F" transform="matrix(1,0,0,1,985,295) translate(26.875 17.799999999999997)"/><use xlink:href="#G" transform="matrix(1,0,0,1,985,295) translate(27.525 39.4)"/><path d="M1040 400v-49" stroke="#000" stroke-width="2" fill="none"/><path/><path d="M1044.64 365.27h-9.28L1040 351z"/><path d="M1046 366.27h-12l5.27-16.27h1.46zm-9.26-2h6.52l-3.26-10.03z"/><path d="M1198.4 540h115.2l38.4 60-38.4 60h-115.2l-38.4-60z" stroke="#000" stroke-width="2" fill="#7ab648"/><use xlink:href="#H" transform="matrix(1,0,0,1,1165,545) translate(36.574999999999996 58.6)"/><path d="M1299.2 390c15.9 0 28.8 17.9 28.8 40s-12.9 40-28.8 40h-86.4c-15.9 0-28.8-17.9-28.8-40s12.9-40 28.8-40z" stroke="#000" stroke-width="2" fill="#a3d977"/><use xlink:href="#I" transform="matrix(1,0,0,1,1188.9999999999998,395) translate(10.100000000000001 38.6)"/><use xlink:href="#J" transform="matrix(1,0,0,1,1188.9999999999998,395) translate(66 38.6)"/><path d="M1467.2 720c15.9 0 28.8 17.9 28.8 40s-12.9 40-28.8 40h-86.4c-15.9 0-28.8-17.9-28.8-40s12.9-40 28.8-40z" stroke="#000" stroke-width="2" fill="#fcc438"/><use xlink:href="#K" transform="matrix(1,0,0,1,1357,725) translate(20.074999999999996 27.799999999999997)"/><use xlink:href="#L" transform="matrix(1,0,0,1,1357,725) translate(29.574999999999996 49.4)"/><path d="M1040 600h118.8" stroke="#000" stroke-width="2" fill="none"/><path/><path d="M1158.8 600l-14.25 4.64v-9.28z"/><path d="M1160.35 599.45l-.35.55.35.55-16.8 5.46v-12zm-14.8 3.8l10.03-3.25-10.03-3.26z"/><path d="M1256 660v29.5h168V719" stroke="#000" stroke-width="2" fill="none"/><path/><path d="M1424 719l-4.64-14.27h9.28z"/><path d="M1424.73 720h-1.46l-5.28-16.27h12zm-4-14.27l3.27 10.03 3.26-10.03z"/><path d="M1256 540v-70" stroke="#000" stroke-width="2" fill="none"/><path/><path d="M1260.64 484.27h-9.28L1256 470z"/><path d="M1262 485.27h-12l4.95-15.27h2.1zm-9.26-2h6.52l-3.26-10.03z"/><path d="M1461.2 850c13.7 0 24.8 13.43 24.8 30s-11.1 30-24.8 30h-74.4c-13.7 0-24.8-13.43-24.8-30s11.1-30 24.8-30z" stroke="#000" stroke-width="2" fill="#ef8d22"/><use xlink:href="#M" transform="matrix(1,0,0,1,1367,855) translate(7.049999999999997 28.6)"/><path d="M1424 800v49" stroke="#000" stroke-width="2" fill="none"/><path/><path d="M1424 849l-4.64-14.27h9.28z"/><path d="M1424.73 850h-1.46l-5.28-16.27h12zm-4-14.27l3.27 10.03 3.26-10.03z"/><path d="M1396.4 970h55.2l18.4 30-18.4 30h-55.2l-18.4-30z" stroke="#000" stroke-width="2" fill="#c92d39"/><use xlink:href="#N" transform="matrix(1,0,0,1,1383,975) translate(24.575 28.6)"/><path d="M1424 910v59" stroke="#000" stroke-width="2" fill="none"/><path/><path d="M1424 969l-4.64-14.27h9.28z"/><path d="M1424.73 970h-1.46l-5.28-16.27h12zm-4-14.27l3.27 10.03 3.26-10.03z"/><path d="M560 260h160v120H560z" stroke="#000" stroke-width="2" fill="#de5f85"/><use xlink:href="#O" transform="matrix(1,0,0,1,565,265) translate(36.9 58.6)"/><path d="M640 520V381" stroke="#000" stroke-width="2" fill="none"/><path d="M641 520.67l-1-.67-1 .67V520h2zM644.64 395.27h-9.28L640 381z"/><path d="M646 396.27h-12l5.27-16.27h1.46zm-9.26-2h6.52L640 384.24z"/><path d="M338 120h84l28 54.45-28 54.45h-84l-28-54.45z" stroke="#000" stroke-width="2" fill="#ffc374"/><use xlink:href="#P" transform="matrix(1,0,0,1,315,125) translate(42.45 42.3)"/><use xlink:href="#Q" transform="matrix(1,0,0,1,315,125) translate(74.6 42.3)"/><use xlink:href="#R" transform="matrix(1,0,0,1,315,125) translate(12.549999999999997 63.9)"/><path d="M560 320H453" stroke="#000" stroke-width="2" fill="none"/><path/><path d="M467.28 324.64L453 320l14.28-4.64z"/><path d="M468.28 326l-15.9-5.15 1.65-2.23 14.25-4.63zm-12.03-6l10.03 3.26v-6.52z"/><path d="M380 310v-80.1" stroke="#000" stroke-width="2" fill="none"/><path d="M381 310.18l-2-.02V310h2zM384.64 244.17h-9.28L380 229.9z"/><path d="M386 245.17h-12l5.27-16.27h1.46zm-9.26-2h6.52L380 233.14z"/><path d="M380 310v-81.1" stroke="#000" stroke-width="2" fill="none"/><path d="M381 310.18l-2-.02V310h2zM384.64 243.17h-9.28L380 228.9z"/><path d="M386 244.17h-12l4.95-15.27h2.1zm-9.26-2h6.52L380 232.14z"/><path d="M168 280c17.67 0 32 17.9 32 40s-14.33 40-32 40H72c-17.67 0-32-17.9-32-40s14.33-40 32-40z" stroke="#000" stroke-width="2" fill="#ffbbb1"/><use xlink:href="#S" transform="matrix(1,0,0,1,45,285) translate(44.099999999999994 38.6)"/><path d="M306.04 320H200" stroke="#000" stroke-width="2" fill="none"/><path d="M306.7 321h-.66v-1zM214.27 324.64L200 320l14.27-4.64z"/><path d="M215.27 326l-15.33-4.97.06-1.03-.04-1.04 15.3-4.97zm-12.03-6l10.03 3.26v-6.52z"/><path d="M72 146h96l32 28-32 28H72l-32-28z" stroke="#000" stroke-width="2" fill="#ffc374"/><use xlink:href="#T" transform="matrix(1,0,0,1,45,151) translate(21.925000000000004 26.6)"/><use xlink:href="#U" transform="matrix(1,0,0,1,45,151) translate(54.075 26.6)"/><use xlink:href="#V" transform="matrix(1,0,0,1,45,151) translate(72.025 26.6)"/><use xlink:href="#W" transform="matrix(1,0,0,1,45,151) translate(82.975 26.6)"/><use xlink:href="#X" transform="matrix(1,0,0,1,45,151) translate(115.125 26.6)"/><path d="M120 280v-77" stroke="#000" stroke-width="2" fill="none"/><path/><path d="M124.64 217.27h-9.28L120 203z"/><path d="M126 218.27h-12l5.27-16.27h1.46zm-9.26-2h6.52L120 206.24z"/><path d="M72 420h96l32 28-32 28H72l-32-28z" stroke="#000" stroke-width="2" fill="#ffc374"/><use xlink:href="#Y" transform="matrix(1,0,0,1,45,425) translate(16.574999999999996 26.6)"/><use xlink:href="#Z" transform="matrix(1,0,0,1,45,425) translate(78.525 26.6)"/><path d="M120 360v59" stroke="#000" stroke-width="2" fill="none"/><path/><path d="M120 419l-4.64-14.27h9.28z"/><path d="M120.73 420h-1.46L114 403.73h12zm-4-14.27l3.27 10.03 3.26-10.03z"/><path d="M-180 420H0v60h-180z" stroke="#000" stroke-width="2" fill="#de5f85"/><use xlink:href="#aa" transform="matrix(1,0,0,1,-175,425) translate(4.125 28.6)"/><path d="M-89 420h-2v-81.03h2zm129-99h-95.04v-2H40zM40.04 321l-.04-1v-1z"/><path d="M-90 420l-4.64-14.27h9.28z"/><path d="M-88.95 420h-2.1L-96 404.73h12zm-4.3-13.27l3.25 10.03 3.26-10.03z"/><use xlink:href="#ab" transform="matrix(1,0,0,1,-124.95,317.36653126616744) translate(0 14.4)"/><use xlink:href="#ac" transform="matrix(1,0,0,1,-124.95,317.36653126616744) translate(30.95 14.4)"/><path d="M-170 540h160v120h-160z" stroke="#000" stroke-width="2" fill="#3aa6dd"/><use xlink:href="#ad" transform="matrix(1,0,0,1,-165,545) translate(26.599999999999994 58.6)"/><path d="M520 600h-40v-80H160v80H-10" stroke="#000" stroke-width="2" fill="none"/><path d="M520 600l1.5 1H520v-2h1.5zM4.27 604.64L-10 600l14.27-4.64z"/><path d="M5.27 606L-10 601.06v-2.1L5.27 594zm-12.03-6l10.03 3.26v-6.52z"/><path d="M-90 480v59" fill="none"/><path d="M-90 480v19.67m0 19.66V539" stroke="#000" stroke-width="2" fill="none"/><path/><path d="M-90 539l-4.64-14.27h9.28z"/><path d="M-89.27 540h-1.46L-96 523.73h12zm-4-14.27l3.27 10.03 3.26-10.03z"/><path d="M-90 480v60" fill="none"/><path d="M-89 480c0 .55-.45 1-1 1s-1-.45-1-1 .45-1 1-1 1 .45 1 1zm0 7.5c0 .55-.45 1-1 1s-1-.45-1-1 .45-1 1-1 1 .45 1 1zm0 7.5c0 .55-.45 1-1 1s-1-.45-1-1 .45-1 1-1 1 .45 1 1zm0 7.5c0 .55-.45 1-1 1s-1-.45-1-1 .45-1 1-1 1 .45 1 1zm0 7.5c0 .55-.45 1-1 1s-1-.45-1-1 .45-1 1-1 1 .45 1 1zm0 7.5c0 .55-.45 1-1 1s-1-.45-1-1 .45-1 1-1 1 .45 1 1zm0 7.5c0 .55-.45 1-1 1s-1-.45-1-1 .45-1 1-1 1 .45 1 1zm0 7.5c0 .55-.45 1-1 1s-1-.45-1-1 .45-1 1-1 1 .45 1 1z"/><path/><path d="M-90 540l-4.64-14.27h9.28z"/><path d="M-88.95 540h-2.1L-96 524.73h12zm-4.3-13.27l3.25 10.03 3.26-10.03z"/><path d="M-90 480v60" stroke="#666" stroke-width="2" fill="none"/><path fill="#666"/><path d="M-90 540l-4.64-14.27h9.28z" fill="#666"/><path d="M-88.95 540h-2.1L-96 524.73h12zm-4.3-13.27l3.25 10.03 3.26-10.03z" fill="#666"/><path d="M1299.2 720c15.9 0 28.8 17.9 28.8 40s-12.9 40-28.8 40h-86.4c-15.9 0-28.8-17.9-28.8-40s12.9-40 28.8-40z" stroke="#000" stroke-width="2" fill="#fcc438"/><g><use xlink:href="#ae" transform="matrix(1,0,0,1,1189,725) translate(30.549999999999997 38.6)"/></g><path d="M1256 660v60" stroke="#000" stroke-width="2" fill="none"/><path/><path d="M1256 720l-4.64-14.27h9.28z"/><path d="M1257.05 720h-2.1l-4.96-15.27h12zm-4.3-13.27l3.25 10.03 3.26-10.03z"/><path d="M560 940h160v120H560z" stroke="#000" stroke-width="2" fill="#19967d"/><g><use xlink:href="#af" transform="matrix(1,0,0,1,565,945) translate(26.944444444444443 68.33333333333334)"/></g><path d="M640 680v259" stroke="#000" stroke-width="2" fill="none"/><path d="M640 680h-1v-.67zm1 0h-1l1-.67zM640 939l-4.64-14.27h9.28z"/><path d="M640.73 940h-1.46L634 923.73h12zm-4-14.27l3.27 10.03 3.26-10.03zM888.5 1001H720v-2h168.5zm489.5 0H973.36v-2H1378zM1378 1000l.6 1h-.6v-2h.6z"/><path d="M734.27 1004.64L720 1000l14.27-4.64z"/><path d="M735.27 1006l-15.27-4.95v-2.1l15.27-4.96zm-12.03-6l10.03 3.26v-6.52z"/><path d="M888.5 1001H720v-2h168.5zm368.5 0H973.36v-2H1255V800h2z"/><path/><path d="M734.27 1004.64L720 1000l14.27-4.64z"/><path d="M735.27 1006l-15.27-4.95v-2.1l15.27-4.96zm-12.03-6l10.03 3.26v-6.52z"/><g><use xlink:href="#ag" transform="matrix(1,0,0,1,888.5111818853591,989.2) translate(0 14.4)"/></g><defs><path fill="#fff" d="M182-130c37 4 62 22 62 59C244 23 116-4 24 0v-248c84 5 203-23 205 63 0 31-19 50-47 55zM76-148c40-3 101 13 101-30 0-44-60-28-101-31v61zm0 110c48-3 116 14 116-37 0-48-69-32-116-35v72" id="ah"/><path fill="#fff" d="M133-34C117-15 103 5 69 4 32 3 11-16 11-54c-1-60 55-63 116-61 1-26-3-47-28-47-18 1-26 9-28 27l-52-2c7-38 36-58 82-57s74 22 75 68l1 82c-1 14 12 18 25 15v27c-30 8-71 5-69-32zm-48 3c29 0 43-24 42-57-32 0-66-3-65 30 0 17 8 27 23 27" id="ai"/><path fill="#fff" d="M135-194c87-1 58 113 63 194h-50c-7-57 23-157-34-157-59 0-34 97-39 157H25l-1-190h47c2 12-1 28 3 38 12-26 28-41 61-42" id="aj"/><path fill="#fff" d="M185-48c-13 30-37 53-82 52C43 2 14-33 14-96s30-98 90-98c62 0 83 45 84 108H66c0 31 8 55 39 56 18 0 30-7 34-22zm-45-69c5-46-57-63-70-21-2 6-4 13-4 21h74" id="ak"/><path fill="#fff" d="M135-194c52 0 70 43 70 98 0 56-19 99-73 100-30 1-46-15-58-35L72 0H24l1-261h50v104c11-23 29-37 60-37zM114-30c31 0 40-27 40-66 0-37-7-63-39-63s-41 28-41 65c0 36 8 64 40 64" id="al"/><path fill="#fff" d="M85 4C-2 5 27-109 22-190h50c7 57-23 150 33 157 60-5 35-97 40-157h50l1 190h-47c-2-12 1-28-3-38-12 25-28 42-61 42" id="am"/><g id="a"><use transform="matrix(0.06790123456790124,0,0,0.06790123456790124,0,0)" xlink:href="#ah"/><use transform="matrix(0.06790123456790124,0,0,0.06790123456790124,17.58641975308642,0)" xlink:href="#ai"/><use transform="matrix(0.06790123456790124,0,0,0.06790123456790124,31.16666666666667,0)" xlink:href="#aj"/><use transform="matrix(0.06790123456790124,0,0,0.06790123456790124,46.037037037037045,0)" xlink:href="#ai"/><use transform="matrix(0.06790123456790124,0,0,0.06790123456790124,59.61728395061729,0)" xlink:href="#aj"/><use transform="matrix(0.06790123456790124,0,0,0.06790123456790124,74.48765432098766,0)" xlink:href="#ak"/><use transform="matrix(0.06790123456790124,0,0,0.06790123456790124,88.06790123456791,0)" xlink:href="#aj"/><use transform="matrix(0.06790123456790124,0,0,0.06790123456790124,102.9382716049383,0)" xlink:href="#ai"/><use transform="matrix(0.06790123456790124,0,0,0.06790123456790124,116.51851851851853,0)" xlink:href="#aj"/><use transform="matrix(0.06790123456790124,0,0,0.06790123456790124,131.3888888888889,0)" xlink:href="#al"/><use transform="matrix(0.06790123456790124,0,0,0.06790123456790124,146.2592592592593,0)" xlink:href="#ai"/><use transform="matrix(0.06790123456790124,0,0,0.06790123456790124,159.83950617283955,0)" xlink:href="#am"/></g><path d="M143 4C61 4 22-44 18-125c-5-107 100-154 193-111 17 8 29 25 37 43l-32 9c-13-25-37-40-76-40-61 0-88 39-88 99 0 61 29 100 91 101 35 0 62-11 79-27v-45h-74v-28h105v86C228-13 192 4 143 4" id="an"/><path d="M100-194c63 0 86 42 84 106H49c0 40 14 67 53 68 26 1 43-12 49-29l28 8c-11 28-37 45-77 45C44 4 14-33 15-96c1-61 26-98 85-98zm52 81c6-60-76-77-97-28-3 7-6 17-6 28h103" id="ao"/><path d="M135-143c-3-34-86-38-87 0 15 53 115 12 119 90S17 21 10-45l28-5c4 36 97 45 98 0-10-56-113-15-118-90-4-57 82-63 122-42 12 7 21 19 24 35" id="ap"/><path d="M96-169c-40 0-48 33-48 73s9 75 48 75c24 0 41-14 43-38l32 2c-6 37-31 61-74 61-59 0-76-41-82-99-10-93 101-131 147-64 4 7 5 14 7 22l-32 3c-4-21-16-35-41-35" id="aq"/><path d="M106-169C34-169 62-67 57 0H25v-261h32l-1 103c12-21 28-36 61-36 89 0 53 116 60 194h-32v-121c2-32-8-49-39-48" id="ar"/><path d="M24-231v-30h32v30H24zM24 0v-190h32V0H24" id="as"/><path d="M59-47c-2 24 18 29 38 22v24C64 9 27 4 27-40v-127H5v-23h24l9-43h21v43h35v23H59v120" id="at"/><g id="b"><use transform="matrix(0.05,0,0,0.05,0,0)" xlink:href="#an"/><use transform="matrix(0.05,0,0,0.05,14,0)" xlink:href="#ao"/><use transform="matrix(0.05,0,0,0.05,24,0)" xlink:href="#ap"/><use transform="matrix(0.05,0,0,0.05,33,0)" xlink:href="#aq"/><use transform="matrix(0.05,0,0,0.05,42,0)" xlink:href="#ar"/><use transform="matrix(0.05,0,0,0.05,52,0)" xlink:href="#as"/><use transform="matrix(0.05,0,0,0.05,55.95,0)" xlink:href="#aq"/><use transform="matrix(0.05,0,0,0.05,64.95,0)" xlink:href="#ar"/><use transform="matrix(0.05,0,0,0.05,74.95,0)" xlink:href="#at"/><use transform="matrix(0.05,0,0,0.05,79.95,0)" xlink:href="#ao"/></g><path d="M16-127c37-31 93-2 135 6 18-1 32-8 43-16v26c-50 42-130-35-178 9v-25" id="au"/><path d="M101-251c82-7 93 87 43 132L82-64C71-53 59-42 53-27h129V0H18c2-99 128-94 128-182 0-28-16-43-45-43s-46 15-49 41l-32-3c6-41 34-60 81-64" id="av"/><path d="M101-251c68 0 85 55 85 127S166 4 100 4C33 4 14-52 14-124c0-73 17-127 87-127zm-1 229c47 0 54-49 54-102s-4-102-53-102c-51 0-55 48-55 102 0 53 5 102 54 102" id="aw"/><path d="M33-154v-36h34v36H33zM33 0v-36h34V0H33" id="ax"/><g id="c"><use transform="matrix(0.05,0,0,0.05,0,0)" xlink:href="#au"/><use transform="matrix(0.05,0,0,0.05,10.5,0)" xlink:href="#av"/><use transform="matrix(0.05,0,0,0.05,20.5,0)" xlink:href="#aw"/><use transform="matrix(0.05,0,0,0.05,30.5,0)" xlink:href="#aw"/><use transform="matrix(0.05,0,0,0.05,40.5,0)" xlink:href="#ax"/></g><path d="M205 0l-28-72H64L36 0H1l101-248h38L239 0h-34zm-38-99l-47-123c-12 45-31 82-46 123h93" id="ay"/><path d="M117-194c89-4 53 116 60 194h-32v-121c0-31-8-49-39-48C34-167 62-67 57 0H25l-1-190h30c1 10-1 24 2 32 11-22 29-35 61-36" id="az"/><path d="M115-194c53 0 69 39 70 98 0 66-23 100-70 100C84 3 66-7 56-30L54 0H23l1-261h32v101c10-23 28-34 59-34zm-8 174c40 0 45-34 45-75 0-40-5-75-45-74-42 0-51 32-51 76 0 43 10 73 51 73" id="aA"/><path d="M141-36C126-15 110 5 73 4 37 3 15-17 15-53c-1-64 63-63 125-63 3-35-9-54-41-54-24 1-41 7-42 31l-33-3c5-37 33-52 76-52 45 0 72 20 72 64v82c-1 20 7 32 28 27v20c-31 9-61-2-59-35zM48-53c0 20 12 33 32 33 41-3 63-29 60-74-43 2-92-5-92 41" id="aB"/><path d="M84 4C-5 8 30-112 23-190h32v120c0 31 7 50 39 49 72-2 45-101 50-169h31l1 190h-30c-1-10 1-25-2-33-11 22-28 36-60 37" id="aC"/><g id="d"><use transform="matrix(0.05,0,0,0.05,0,0)" xlink:href="#ay"/><use transform="matrix(0.05,0,0,0.05,12,0)" xlink:href="#az"/><use transform="matrix(0.05,0,0,0.05,22,0)" xlink:href="#aA"/><use transform="matrix(0.05,0,0,0.05,32,0)" xlink:href="#aB"/><use transform="matrix(0.05,0,0,0.05,42,0)" xlink:href="#aC"/></g><g id="e"><use transform="matrix(0.05,0,0,0.05,0,0)" xlink:href="#as"/><use transform="matrix(0.05,0,0,0.05,3.95,0)" xlink:href="#az"/></g><path d="M185-189c-5-48-123-54-124 2 14 75 158 14 163 119 3 78-121 87-175 55-17-10-28-26-33-46l33-7c5 56 141 63 141-1 0-78-155-14-162-118-5-82 145-84 179-34 5 7 8 16 11 25" id="aD"/><path d="M0 4l72-265h28L28 4H0" id="aE"/><path d="M140-251c81 0 123 46 123 126C263-46 219 4 140 4 59 4 17-45 17-125s42-126 123-126zm0 227c63 0 89-41 89-101s-29-99-89-99c-61 0-89 39-89 99S79-25 140-24" id="aF"/><path d="M16-82v-28h88v28H16" id="aG"/><g id="f"><use transform="matrix(0.05,0,0,0.05,0,0)" xlink:href="#aD"/><use transform="matrix(0.05,0,0,0.05,12,0)" xlink:href="#aE"/><use transform="matrix(0.05,0,0,0.05,17,0)" xlink:href="#aF"/><use transform="matrix(0.05,0,0,0.05,31,0)" xlink:href="#aG"/><use transform="matrix(0.05,0,0,0.05,36.95,0)" xlink:href="#ay"/><use transform="matrix(0.05,0,0,0.05,48.95,0)" xlink:href="#ap"/><use transform="matrix(0.05,0,0,0.05,57.95,0)" xlink:href="#as"/><use transform="matrix(0.05,0,0,0.05,61.900000000000006,0)" xlink:href="#ao"/><use transform="matrix(0.05,0,0,0.05,71.9,0)" xlink:href="#az"/></g><path d="M110-160c48 1 74 30 74 79 0 53-28 85-80 85-65 0-83-55-86-122-5-90 50-162 133-122 14 7 22 21 27 39l-31 6c-5-40-67-38-82-6-9 19-15 44-15 74 11-20 30-34 60-33zm-7 138c34 0 49-23 49-58s-16-56-50-56c-29 0-50 16-49 49 1 36 15 65 50 65" id="aH"/><path d="M54-142c48-35 137-8 131 61C196 18 31 33 14-55l32-4c7 23 22 37 52 37 35-1 51-22 54-58 4-55-73-65-99-34H22l8-134h141v27H59" id="aI"/><g id="g"><use transform="matrix(0.05,0,0,0.05,0,0)" xlink:href="#au"/><use transform="matrix(0.05,0,0,0.05,10.5,0)" xlink:href="#aH"/><use transform="matrix(0.05,0,0,0.05,20.5,0)" xlink:href="#aI"/><use transform="matrix(0.05,0,0,0.05,30.5,0)" xlink:href="#aw"/><use transform="matrix(0.05,0,0,0.05,40.5,0)" xlink:href="#ax"/></g><path d="M150-269v-32h29v32h-29zm-69 0v-32h29v32H81zM232-93c-1 65-40 97-104 97C67 4 28-28 28-90v-158h33c8 89-33 224 67 224 102 0 64-133 71-224h33v155" id="aJ"/><path d="M114-163C36-179 61-72 57 0H25l-1-190h30c1 12-1 29 2 39 6-27 23-49 58-41v29" id="aK"/><g id="h"><use transform="matrix(0.05,0,0,0.05,0,0)" xlink:href="#aJ"/><use transform="matrix(0.05,0,0,0.05,12.950000000000001,0)" xlink:href="#aA"/><use transform="matrix(0.05,0,0,0.05,22.950000000000003,0)" xlink:href="#ao"/><use transform="matrix(0.05,0,0,0.05,32.95,0)" xlink:href="#aK"/></g><path d="M33 0v-248h34V0H33" id="aL"/><path d="M85-194c31 0 48 13 60 33l-1-100h32l1 261h-30c-2-10 0-23-3-31C134-8 116 4 85 4 32 4 16-35 15-94c0-66 23-100 70-100zm9 24c-40 0-46 34-46 75 0 40 6 74 45 74 42 0 51-32 51-76 0-42-9-74-50-73" id="aM"/><g id="i"><use transform="matrix(0.05,0,0,0.05,0,0)" xlink:href="#aL"/><use transform="matrix(0.05,0,0,0.05,5,0)" xlink:href="#az"/><use transform="matrix(0.05,0,0,0.05,15,0)" xlink:href="#aM"/><use transform="matrix(0.05,0,0,0.05,25,0)" xlink:href="#as"/><use transform="matrix(0.05,0,0,0.05,28.950000000000003,0)" xlink:href="#ao"/><use transform="matrix(0.05,0,0,0.05,38.95,0)" xlink:href="#az"/></g><g id="j"><use transform="matrix(0.05,0,0,0.05,0,0)" xlink:href="#az"/><use transform="matrix(0.05,0,0,0.05,10,0)" xlink:href="#aB"/><use transform="matrix(0.05,0,0,0.05,20,0)" xlink:href="#aq"/><use transform="matrix(0.05,0,0,0.05,29,0)" xlink:href="#ar"/></g><g id="k"><use transform="matrix(0.05,0,0,0.05,0,0)" xlink:href="#ay"/><use transform="matrix(0.05,0,0,0.05,12,0)" xlink:href="#aK"/><use transform="matrix(0.05,0,0,0.05,17.95,0)" xlink:href="#aB"/><use transform="matrix(0.05,0,0,0.05,27.950000000000003,0)" xlink:href="#aA"/><use transform="matrix(0.05,0,0,0.05,37.95,0)" xlink:href="#as"/><use transform="matrix(0.05,0,0,0.05,41.900000000000006,0)" xlink:href="#ao"/><use transform="matrix(0.05,0,0,0.05,51.900000000000006,0)" xlink:href="#az"/></g><path d="M137 0h-34L2-248h35l83 218 83-218h36" id="aN"/><path d="M100-194c62-1 85 37 85 99 1 63-27 99-86 99S16-35 15-95c0-66 28-99 85-99zM99-20c44 1 53-31 53-75 0-43-8-75-51-75s-53 32-53 75 10 74 51 75" id="aO"/><g id="l"><use transform="matrix(0.05,0,0,0.05,0,0)" xlink:href="#aN"/><use transform="matrix(0.05,0,0,0.05,11,0)" xlink:href="#aO"/><use transform="matrix(0.05,0,0,0.05,21,0)" xlink:href="#az"/></g><g id="m"><use transform="matrix(0.05,0,0,0.05,0,0)" xlink:href="#ay"/><use transform="matrix(0.05,0,0,0.05,12,0)" xlink:href="#aK"/><use transform="matrix(0.05,0,0,0.05,17.95,0)" xlink:href="#aB"/><use transform="matrix(0.05,0,0,0.05,27.950000000000003,0)" xlink:href="#aA"/><use transform="matrix(0.05,0,0,0.05,37.95,0)" xlink:href="#as"/><use transform="matrix(0.05,0,0,0.05,41.900000000000006,0)" xlink:href="#ao"/><use transform="matrix(0.05,0,0,0.05,51.900000000000006,0)" xlink:href="#az"/></g><path d="M266 0h-40l-56-210L115 0H75L2-248h35L96-30l15-64 43-154h32l59 218 59-218h35" id="aP"/><path d="M115-194c55 1 70 41 70 98S169 2 115 4C84 4 66-9 55-30l1 105H24l-1-265h31l2 30c10-21 28-34 59-34zm-8 174c40 0 45-34 45-75s-6-73-45-74c-42 0-51 32-51 76 0 43 10 73 51 73" id="aQ"/><g id="n"><use transform="matrix(0.05,0,0,0.05,0,0)" xlink:href="#aP"/><use transform="matrix(0.05,0,0,0.05,16.599999999999998,0)" xlink:href="#ao"/><use transform="matrix(0.05,0,0,0.05,26.599999999999994,0)" xlink:href="#ap"/><use transform="matrix(0.05,0,0,0.05,35.599999999999994,0)" xlink:href="#at"/><use transform="matrix(0.05,0,0,0.05,40.599999999999994,0)" xlink:href="#ao"/><use transform="matrix(0.05,0,0,0.05,50.599999999999994,0)" xlink:href="#aC"/><use transform="matrix(0.05,0,0,0.05,60.599999999999994,0)" xlink:href="#aK"/><use transform="matrix(0.05,0,0,0.05,66.55,0)" xlink:href="#aO"/><use transform="matrix(0.05,0,0,0.05,76.55,0)" xlink:href="#aQ"/><use transform="matrix(0.05,0,0,0.05,86.55,0)" xlink:href="#aB"/></g><path d="M30-248c87 1 191-15 191 75 0 78-77 80-158 76V0H30v-248zm33 125c57 0 124 11 124-50 0-59-68-47-124-48v98" id="aR"/><path d="M101-234c-31-9-42 10-38 44h38v23H63V0H32v-167H5v-23h27c-7-52 17-82 69-68v24" id="aS"/><path d="M24 0v-261h32V0H24" id="aT"/><path d="M9 0v-24l116-142H16v-24h144v24L44-24h123V0H9" id="aU"/><g id="o"><use transform="matrix(0.05,0,0,0.05,0,0)" xlink:href="#aR"/><use transform="matrix(0.05,0,0,0.05,12,0)" xlink:href="#aS"/><use transform="matrix(0.05,0,0,0.05,17,0)" xlink:href="#aT"/><use transform="matrix(0.05,0,0,0.05,20.95,0)" xlink:href="#aB"/><use transform="matrix(0.05,0,0,0.05,30.950000000000003,0)" xlink:href="#az"/><use transform="matrix(0.05,0,0,0.05,40.95,0)" xlink:href="#aU"/><use transform="matrix(0.05,0,0,0.05,49.95,0)" xlink:href="#ao"/></g><path d="M99-251c64 0 84 50 84 122C183-37 130 33 47-8c-14-7-20-23-25-40l30-5c6 39 69 39 84 7 9-19 16-44 16-74-10 22-31 35-62 35-49 0-73-33-73-83 0-54 28-83 82-83zm-1 141c31-1 51-18 51-49 0-36-14-67-51-67-34 0-49 23-49 58 0 34 15 58 49 58" id="aV"/><g id="p"><use transform="matrix(0.05,0,0,0.05,0,0)" xlink:href="#au"/><use transform="matrix(0.05,0,0,0.05,10.5,0)" xlink:href="#aV"/></g><path d="M240 0l2-218c-23 76-54 145-80 218h-23L58-218 59 0H30v-248h44l77 211c21-75 51-140 76-211h43V0h-30" id="aW"/><g id="q"><use transform="matrix(0.05,0,0,0.05,0,0)" xlink:href="#aW"/><use transform="matrix(0.05,0,0,0.05,14.950000000000001,0)" xlink:href="#aO"/><use transform="matrix(0.05,0,0,0.05,24.950000000000003,0)" xlink:href="#az"/><use transform="matrix(0.05,0,0,0.05,34.95,0)" xlink:href="#aB"/><use transform="matrix(0.05,0,0,0.05,44.95,0)" xlink:href="#at"/><use transform="matrix(0.05,0,0,0.05,49.95,0)" xlink:href="#ao"/><use transform="matrix(0.05,0,0,0.05,59.95,0)" xlink:href="#ax"/></g><g id="r"><use transform="matrix(0.05,0,0,0.05,0,0)" xlink:href="#aR"/><use transform="matrix(0.05,0,0,0.05,12,0)" xlink:href="#aS"/><use transform="matrix(0.05,0,0,0.05,17,0)" xlink:href="#aT"/><use transform="matrix(0.05,0,0,0.05,20.95,0)" xlink:href="#aB"/><use transform="matrix(0.05,0,0,0.05,30.950000000000003,0)" xlink:href="#az"/><use transform="matrix(0.05,0,0,0.05,40.95,0)" xlink:href="#aU"/><use transform="matrix(0.05,0,0,0.05,49.95,0)" xlink:href="#ao"/></g><path d="M206 0h-36l-40-164L89 0H53L-1-190h32L70-26l43-164h34l41 164 42-164h31" id="aX"/><path d="M141-36C126-15 110 5 73 4 37 3 15-17 15-53c-1-64 63-63 125-63 3-35-9-54-41-54-24 1-41 7-42 31l-33-3c5-37 33-52 76-52 45 0 72 20 72 64v82c-1 20 7 32 28 27v20c-31 9-61-2-59-35zM48-53c0 20 12 33 32 33 41-3 63-29 60-74-43 2-92-5-92 41zm70-161v-33h29v33h-29zm-69 0v-33h29v33H49" id="aY"/><g id="s"><use transform="matrix(0.05,0,0,0.05,0,0)" xlink:href="#aX"/><use transform="matrix(0.05,0,0,0.05,12.950000000000001,0)" xlink:href="#aY"/><use transform="matrix(0.05,0,0,0.05,22.950000000000003,0)" xlink:href="#aq"/><use transform="matrix(0.05,0,0,0.05,31.950000000000003,0)" xlink:href="#ar"/><use transform="matrix(0.05,0,0,0.05,41.95,0)" xlink:href="#ap"/><use transform="matrix(0.05,0,0,0.05,50.95,0)" xlink:href="#at"/></g><path d="M126-127c33 6 58 20 58 59 0 88-139 92-164 29-3-8-5-16-6-25l32-3c6 27 21 44 54 44 32 0 52-15 52-46 0-38-36-46-79-43v-28c39 1 72-4 72-42 0-27-17-43-46-43-28 0-47 15-49 41l-32-3c6-42 35-63 81-64 48-1 79 21 79 65 0 36-21 52-52 59" id="aZ"/><g id="t"><use transform="matrix(0.05,0,0,0.05,0,0)" xlink:href="#au"/><use transform="matrix(0.05,0,0,0.05,10.5,0)" xlink:href="#aZ"/><use transform="matrix(0.05,0,0,0.05,20.5,0)" xlink:href="#aG"/><use transform="matrix(0.05,0,0,0.05,26.450000000000003,0)" xlink:href="#aH"/></g><path d="M63-220v92h138v28H63V0H30v-248h175v28H63" id="ba"/><path d="M85 4C-4 8 31-112 24-190h32v120c0 31 7 50 39 49 72-2 45-101 50-169h31l1 190h-30c-1-10 1-25-2-33-11 22-28 36-60 37zm34-218v-33h29v33h-29zm-69 0v-33h29v33H50" id="bb"/><g id="u"><use transform="matrix(0.05,0,0,0.05,0,0)" xlink:href="#ba"/><use transform="matrix(0.05,0,0,0.05,10.950000000000001,0)" xlink:href="#aK"/><use transform="matrix(0.05,0,0,0.05,16.900000000000002,0)" xlink:href="#bb"/><use transform="matrix(0.05,0,0,0.05,26.900000000000002,0)" xlink:href="#aq"/><use transform="matrix(0.05,0,0,0.05,35.900000000000006,0)" xlink:href="#ar"/><use transform="matrix(0.05,0,0,0.05,45.900000000000006,0)" xlink:href="#at"/><use transform="matrix(0.05,0,0,0.05,50.900000000000006,0)" xlink:href="#ao"/></g><g id="v"><use transform="matrix(0.05,0,0,0.05,0,0)" xlink:href="#ao"/><use transform="matrix(0.05,0,0,0.05,10,0)" xlink:href="#aK"/><use transform="matrix(0.05,0,0,0.05,15.949999999999998,0)" xlink:href="#az"/><use transform="matrix(0.05,0,0,0.05,25.950000000000003,0)" xlink:href="#at"/><use transform="matrix(0.05,0,0,0.05,30.950000000000003,0)" xlink:href="#ao"/><use transform="matrix(0.05,0,0,0.05,40.95,0)" xlink:href="#aK"/><use transform="matrix(0.05,0,0,0.05,46.900000000000006,0)" xlink:href="#ao"/><use transform="matrix(0.05,0,0,0.05,56.900000000000006,0)" xlink:href="#as"/><use transform="matrix(0.05,0,0,0.05,60.85,0)" xlink:href="#aS"/></g><g id="w"><use transform="matrix(0.05,0,0,0.05,0,0)" xlink:href="#aR"/><use transform="matrix(0.05,0,0,0.05,12,0)" xlink:href="#aS"/><use transform="matrix(0.05,0,0,0.05,17,0)" xlink:href="#aT"/><use transform="matrix(0.05,0,0,0.05,20.95,0)" xlink:href="#aB"/><use transform="matrix(0.05,0,0,0.05,30.950000000000003,0)" xlink:href="#az"/><use transform="matrix(0.05,0,0,0.05,40.95,0)" xlink:href="#aU"/><use transform="matrix(0.05,0,0,0.05,49.95,0)" xlink:href="#ao"/></g><g id="x"><use transform="matrix(0.05,0,0,0.05,0,0)" xlink:href="#ap"/><use transform="matrix(0.05,0,0,0.05,9,0)" xlink:href="#at"/><use transform="matrix(0.05,0,0,0.05,14,0)" xlink:href="#as"/><use transform="matrix(0.05,0,0,0.05,17.95,0)" xlink:href="#aK"/><use transform="matrix(0.05,0,0,0.05,23.9,0)" xlink:href="#aA"/><use transform="matrix(0.05,0,0,0.05,33.9,0)" xlink:href="#at"/></g><g id="y"><use transform="matrix(0.05,0,0,0.05,0,0)" xlink:href="#ba"/><use transform="matrix(0.05,0,0,0.05,10.950000000000001,0)" xlink:href="#aK"/><use transform="matrix(0.05,0,0,0.05,16.900000000000002,0)" xlink:href="#bb"/><use transform="matrix(0.05,0,0,0.05,26.900000000000002,0)" xlink:href="#aq"/><use transform="matrix(0.05,0,0,0.05,35.900000000000006,0)" xlink:href="#ar"/><use transform="matrix(0.05,0,0,0.05,45.900000000000006,0)" xlink:href="#at"/><use transform="matrix(0.05,0,0,0.05,50.900000000000006,0)" xlink:href="#ao"/></g><g id="z"><use transform="matrix(0.05,0,0,0.05,0,0)" xlink:href="#aP"/><use transform="matrix(0.05,0,0,0.05,16.3,0)" xlink:href="#aB"/><use transform="matrix(0.05,0,0,0.05,26.3,0)" xlink:href="#aq"/><use transform="matrix(0.05,0,0,0.05,35.3,0)" xlink:href="#ar"/><use transform="matrix(0.05,0,0,0.05,45.3,0)" xlink:href="#ap"/><use transform="matrix(0.05,0,0,0.05,54.29999999999999,0)" xlink:href="#ao"/><use transform="matrix(0.05,0,0,0.05,64.3,0)" xlink:href="#az"/></g><g id="A"><use transform="matrix(0.05,0,0,0.05,0,0)" xlink:href="#aN"/><use transform="matrix(0.05,0,0,0.05,11.65,0)" xlink:href="#as"/><use transform="matrix(0.05,0,0,0.05,15.600000000000001,0)" xlink:href="#ao"/><use transform="matrix(0.05,0,0,0.05,25.6,0)" xlink:href="#aT"/></g><path d="M233-177c-1 41-23 64-60 70L243 0h-38l-65-103H63V0H30v-248c88 3 205-21 203 71zM63-129c60-2 137 13 137-47 0-61-80-42-137-45v92" id="bc"/><path d="M177-190C167-65 218 103 67 71c-23-6-38-20-44-43l32-5c15 47 100 32 89-28v-30C133-14 115 1 83 1 29 1 15-40 15-95c0-56 16-97 71-98 29-1 48 16 59 35 1-10 0-23 2-32h30zM94-22c36 0 50-32 50-73 0-42-14-75-50-75-39 0-46 34-46 75s6 73 46 73" id="bd"/><g id="B"><use transform="matrix(0.05,0,0,0.05,0,0)" xlink:href="#bc"/><use transform="matrix(0.05,0,0,0.05,12.950000000000001,0)" xlink:href="#ao"/><use transform="matrix(0.05,0,0,0.05,22.950000000000003,0)" xlink:href="#bd"/><use transform="matrix(0.05,0,0,0.05,32.95,0)" xlink:href="#ao"/><use transform="matrix(0.05,0,0,0.05,42.95,0)" xlink:href="#az"/></g><path d="M194 0L95-120 63-95V0H30v-248h33v124l119-124h40L117-140 236 0h-42" id="be"/><g id="C"><use transform="matrix(0.05,0,0,0.05,0,0)" xlink:href="#be"/><use transform="matrix(0.05,0,0,0.05,12,0)" xlink:href="#ao"/><use transform="matrix(0.05,0,0,0.05,22,0)" xlink:href="#as"/><use transform="matrix(0.05,0,0,0.05,25.950000000000003,0)" xlink:href="#az"/><use transform="matrix(0.05,0,0,0.05,35.95,0)" xlink:href="#ao"/></g><g id="D"><use transform="matrix(0.05,0,0,0.05,0,0)" xlink:href="#aD"/><use transform="matrix(0.05,0,0,0.05,12,0)" xlink:href="#at"/><use transform="matrix(0.05,0,0,0.05,17,0)" xlink:href="#aB"/><use transform="matrix(0.05,0,0,0.05,27,0)" xlink:href="#aC"/><use transform="matrix(0.05,0,0,0.05,37,0)" xlink:href="#az"/><use transform="matrix(0.05,0,0,0.05,47,0)" xlink:href="#aY"/><use transform="matrix(0.05,0,0,0.05,57,0)" xlink:href="#ap"/><use transform="matrix(0.05,0,0,0.05,66,0)" xlink:href="#ap"/><use transform="matrix(0.05,0,0,0.05,75,0)" xlink:href="#ao"/></g><path d="M30-248c118-7 216 8 213 122C240-48 200 0 122 0H30v-248zM63-27c89 8 146-16 146-99s-60-101-146-95v194" id="bf"/><g id="E"><use transform="matrix(0.05,0,0,0.05,0,0)" xlink:href="#bf"/><use transform="matrix(0.05,0,0,0.05,12.950000000000001,0)" xlink:href="#aK"/><use transform="matrix(0.05,0,0,0.05,18.900000000000002,0)" xlink:href="#aB"/><use transform="matrix(0.05,0,0,0.05,28.900000000000002,0)" xlink:href="#as"/><use transform="matrix(0.05,0,0,0.05,32.85,0)" xlink:href="#az"/><use transform="matrix(0.05,0,0,0.05,42.85,0)" xlink:href="#aB"/><use transform="matrix(0.05,0,0,0.05,52.85,0)" xlink:href="#bd"/><use transform="matrix(0.05,0,0,0.05,62.85,0)" xlink:href="#ao"/></g><path d="M127-220V0H93v-220H8v-28h204v28h-85" id="bg"/><g id="F"><use transform="matrix(0.05,0,0,0.05,0,0)" xlink:href="#bg"/><use transform="matrix(0.05,0,0,0.05,10.3,0)" xlink:href="#aK"/><use transform="matrix(0.05,0,0,0.05,16.25,0)" xlink:href="#aO"/><use transform="matrix(0.05,0,0,0.05,26.25,0)" xlink:href="#aQ"/><use transform="matrix(0.05,0,0,0.05,36.25,0)" xlink:href="#ao"/><use transform="matrix(0.05,0,0,0.05,46.25,0)" xlink:href="#az"/></g><path d="M143 0L79-87 56-68V0H24v-261h32v163l83-92h37l-77 82L181 0h-38" id="bh"/><g id="G"><use transform="matrix(0.05,0,0,0.05,0,0)" xlink:href="#aQ"/><use transform="matrix(0.05,0,0,0.05,10,0)" xlink:href="#ao"/><use transform="matrix(0.05,0,0,0.05,20,0)" xlink:href="#aK"/><use transform="matrix(0.05,0,0,0.05,25.950000000000003,0)" xlink:href="#aS"/><use transform="matrix(0.05,0,0,0.05,30.950000000000003,0)" xlink:href="#ao"/><use transform="matrix(0.05,0,0,0.05,40.95,0)" xlink:href="#bh"/><use transform="matrix(0.05,0,0,0.05,49.95,0)" xlink:href="#at"/></g><g id="H"><use transform="matrix(0.05,0,0,0.05,0,0)" xlink:href="#aW"/><use transform="matrix(0.05,0,0,0.05,14.950000000000001,0)" xlink:href="#aO"/><use transform="matrix(0.05,0,0,0.05,24.950000000000003,0)" xlink:href="#az"/><use transform="matrix(0.05,0,0,0.05,34.95,0)" xlink:href="#aO"/><use transform="matrix(0.05,0,0,0.05,44.95,0)" xlink:href="#bh"/><use transform="matrix(0.05,0,0,0.05,53.95,0)" xlink:href="#aC"/><use transform="matrix(0.05,0,0,0.05,63.95,0)" xlink:href="#aT"/><use transform="matrix(0.05,0,0,0.05,67.9,0)" xlink:href="#at"/><use transform="matrix(0.05,0,0,0.05,72.9,0)" xlink:href="#aC"/><use transform="matrix(0.05,0,0,0.05,82.9,0)" xlink:href="#aK"/><use transform="matrix(0.05,0,0,0.05,88.85000000000001,0)" xlink:href="#ao"/><use transform="matrix(0.05,0,0,0.05,98.85000000000001,0)" xlink:href="#az"/></g><path d="M140-139c13 36 65 36 65 87 0 58-68 64-113 47v-29c22 14 87 23 83-17-4-47-80-39-61-102 7-22 36-25 36-53 0-21-19-30-43-30-36 0-51 20-50 57V0H25v-181c0-54 29-79 82-80 41 0 71 15 73 52 3 39-32 43-40 70" id="bi"/><g id="I"><use transform="matrix(0.05,0,0,0.05,0,0)" xlink:href="#an"/><use transform="matrix(0.05,0,0,0.05,14,0)" xlink:href="#aK"/><use transform="matrix(0.05,0,0,0.05,19.95,0)" xlink:href="#aO"/><use transform="matrix(0.05,0,0,0.05,29.950000000000003,0)" xlink:href="#bi"/><use transform="matrix(0.05,0,0,0.05,40.9,0)" xlink:href="#ao"/></g><path d="M30 0v-248h187v28H63v79h144v27H63v87h162V0H30" id="bj"/><g id="J"><use transform="matrix(0.05,0,0,0.05,0,0)" xlink:href="#bj"/><use transform="matrix(0.05,0,0,0.05,12,0)" xlink:href="#aK"/><use transform="matrix(0.05,0,0,0.05,17.95,0)" xlink:href="#at"/><use transform="matrix(0.05,0,0,0.05,22.95,0)" xlink:href="#aK"/><use transform="matrix(0.05,0,0,0.05,28.899999999999995,0)" xlink:href="#aY"/><use transform="matrix(0.05,0,0,0.05,38.9,0)" xlink:href="#bd"/><use transform="matrix(0.05,0,0,0.05,48.9,0)" xlink:href="#ao"/></g><g id="K"><use transform="matrix(0.05,0,0,0.05,0,0)" xlink:href="#aD"/><use transform="matrix(0.05,0,0,0.05,12,0)" xlink:href="#aq"/><use transform="matrix(0.05,0,0,0.05,21,0)" xlink:href="#ar"/><use transform="matrix(0.05,0,0,0.05,31,0)" xlink:href="#aY"/><use transform="matrix(0.05,0,0,0.05,41,0)" xlink:href="#aM"/><use transform="matrix(0.05,0,0,0.05,51,0)" xlink:href="#aT"/><use transform="matrix(0.05,0,0,0.05,54.95,0)" xlink:href="#as"/><use transform="matrix(0.05,0,0,0.05,58.900000000000006,0)" xlink:href="#az"/><use transform="matrix(0.05,0,0,0.05,68.9,0)" xlink:href="#bd"/><use transform="matrix(0.05,0,0,0.05,78.9,0)" xlink:href="#ap"/><use transform="matrix(0.05,0,0,0.05,87.9,0)" xlink:href="#aG"/></g><path d="M210-169c-67 3-38 105-44 169h-31v-121c0-29-5-50-35-48C34-165 62-65 56 0H25l-1-190h30c1 10-1 24 2 32 10-44 99-50 107 0 11-21 27-35 58-36 85-2 47 119 55 194h-31v-121c0-29-5-49-35-48" id="bk"/><g id="L"><use transform="matrix(0.05,0,0,0.05,0,0)" xlink:href="#aQ"/><use transform="matrix(0.05,0,0,0.05,10,0)" xlink:href="#aK"/><use transform="matrix(0.05,0,0,0.05,15.949999999999998,0)" xlink:href="#aO"/><use transform="matrix(0.05,0,0,0.05,25.950000000000003,0)" xlink:href="#aA"/><use transform="matrix(0.05,0,0,0.05,35.95,0)" xlink:href="#aT"/><use transform="matrix(0.05,0,0,0.05,39.900000000000006,0)" xlink:href="#ao"/><use transform="matrix(0.05,0,0,0.05,49.900000000000006,0)" xlink:href="#bk"/><use transform="matrix(0.05,0,0,0.05,64.85000000000001,0)" xlink:href="#ao"/></g><g id="M"><use transform="matrix(0.05,0,0,0.05,0,0)" xlink:href="#aR"/><use transform="matrix(0.05,0,0,0.05,12,0)" xlink:href="#aT"/><use transform="matrix(0.05,0,0,0.05,15.949999999999998,0)" xlink:href="#aB"/><use transform="matrix(0.05,0,0,0.05,25.950000000000003,0)" xlink:href="#ap"/><use transform="matrix(0.05,0,0,0.05,34.95,0)" xlink:href="#at"/><use transform="matrix(0.05,0,0,0.05,39.95,0)" xlink:href="#as"/><use transform="matrix(0.05,0,0,0.05,43.900000000000006,0)" xlink:href="#bh"/><use transform="matrix(0.05,0,0,0.05,52.900000000000006,0)" xlink:href="#ap"/><use transform="matrix(0.05,0,0,0.05,61.900000000000006,0)" xlink:href="#aY"/><use transform="matrix(0.05,0,0,0.05,71.9,0)" xlink:href="#aq"/><use transform="matrix(0.05,0,0,0.05,80.9,0)" xlink:href="#bh"/><use transform="matrix(0.05,0,0,0.05,89.9,0)" xlink:href="#ao"/></g><path fill="#fff" d="M240 0l2-218c-23 76-54 145-80 218h-23L58-218 59 0H30v-248h44l77 211c21-75 51-140 76-211h43V0h-30" id="bl"/><path fill="#fff" d="M85 4C-4 8 31-112 24-190h32v120c0 31 7 50 39 49 72-2 45-101 50-169h31l1 190h-30c-1-10 1-25-2-33-11 22-28 36-60 37zm34-218v-33h29v33h-29zm-69 0v-33h29v33H50" id="bm"/><path fill="#fff" d="M24 0v-261h32V0H24" id="bn"/><g id="N"><use transform="matrix(0.05,0,0,0.05,0,0)" xlink:href="#bl"/><use transform="matrix(0.05,0,0,0.05,14.950000000000001,0)" xlink:href="#bm"/><use transform="matrix(0.05,0,0,0.05,24.950000000000003,0)" xlink:href="#bn"/><use transform="matrix(0.05,0,0,0.05,28.900000000000002,0)" xlink:href="#bn"/></g><g id="O"><use transform="matrix(0.05,0,0,0.05,0,0)" xlink:href="#bg"/><use transform="matrix(0.05,0,0,0.05,10.3,0)" xlink:href="#aK"/><use transform="matrix(0.05,0,0,0.05,16.25,0)" xlink:href="#aB"/><use transform="matrix(0.05,0,0,0.05,26.25,0)" xlink:href="#az"/><use transform="matrix(0.05,0,0,0.05,36.25,0)" xlink:href="#ap"/><use transform="matrix(0.05,0,0,0.05,45.25,0)" xlink:href="#aQ"/><use transform="matrix(0.05,0,0,0.05,55.25,0)" xlink:href="#aO"/><use transform="matrix(0.05,0,0,0.05,65.25,0)" xlink:href="#aK"/><use transform="matrix(0.05,0,0,0.05,71.2,0)" xlink:href="#at"/></g><path d="M27 0v-27h64v-190l-56 39v-29l58-41h29v221h61V0H27" id="bo"/><path d="M72-251c31 0 50 20 50 50s-20 50-50 50-51-20-51-50 19-50 51-50zm0 81c19 0 31-12 31-31 1-20-13-32-31-32s-32 12-31 32c0 19 12 31 31 31" id="bp"/><g id="P"><use transform="matrix(0.05,0,0,0.05,0,0)" xlink:href="#bo"/><use transform="matrix(0.05,0,0,0.05,10,0)" xlink:href="#aZ"/><use transform="matrix(0.05,0,0,0.05,20,0)" xlink:href="#bp"/></g><path d="M212-179c-10-28-35-45-73-45-59 0-87 40-87 99 0 60 29 101 89 101 43 0 62-24 78-52l27 14C228-24 195 4 139 4 59 4 22-46 18-125c-6-104 99-153 187-111 19 9 31 26 39 46" id="bq"/><use transform="matrix(0.05,0,0,0.05,0,0)" xlink:href="#bq" id="Q"/><g id="R"><use transform="matrix(0.05,0,0,0.05,0,0)" xlink:href="#bc"/><use transform="matrix(0.05,0,0,0.05,12.950000000000001,0)" xlink:href="#ao"/><use transform="matrix(0.05,0,0,0.05,22.950000000000003,0)" xlink:href="#as"/><use transform="matrix(0.05,0,0,0.05,26.900000000000002,0)" xlink:href="#aS"/><use transform="matrix(0.05,0,0,0.05,31.900000000000002,0)" xlink:href="#aC"/><use transform="matrix(0.05,0,0,0.05,41.900000000000006,0)" xlink:href="#az"/><use transform="matrix(0.05,0,0,0.05,51.900000000000006,0)" xlink:href="#bd"/><use transform="matrix(0.05,0,0,0.05,61.900000000000006,0)" xlink:href="#ap"/><use transform="matrix(0.05,0,0,0.05,70.9,0)" xlink:href="#ap"/><use transform="matrix(0.05,0,0,0.05,79.9,0)" xlink:href="#at"/><use transform="matrix(0.05,0,0,0.05,84.9,0)" xlink:href="#aO"/><use transform="matrix(0.05,0,0,0.05,94.9,0)" xlink:href="#aQ"/></g><g id="S"><use transform="matrix(0.05,0,0,0.05,0,0)" xlink:href="#bc"/><use transform="matrix(0.05,0,0,0.05,12.950000000000001,0)" xlink:href="#ao"/><use transform="matrix(0.05,0,0,0.05,22.950000000000003,0)" xlink:href="#as"/><use transform="matrix(0.05,0,0,0.05,26.900000000000002,0)" xlink:href="#aS"/><use transform="matrix(0.05,0,0,0.05,31.900000000000002,0)" xlink:href="#ao"/><use transform="matrix(0.05,0,0,0.05,41.900000000000006,0)" xlink:href="#aK"/><use transform="matrix(0.05,0,0,0.05,47.85000000000001,0)" xlink:href="#ao"/><use transform="matrix(0.05,0,0,0.05,57.85,0)" xlink:href="#as"/></g><path d="M155-56V0h-30v-56H8v-25l114-167h33v167h35v25h-35zm-30-156c-27 46-58 90-88 131h88v-131" id="br"/><g id="T"><use transform="matrix(0.05,0,0,0.05,0,0)" xlink:href="#bo"/><use transform="matrix(0.05,0,0,0.05,10,0)" xlink:href="#br"/><use transform="matrix(0.05,0,0,0.05,20,0)" xlink:href="#bp"/></g><use transform="matrix(0.05,0,0,0.05,0,0)" xlink:href="#bq" id="U"/><use transform="matrix(0.05,0,0,0.05,0,0)" xlink:href="#aG" id="V"/><path d="M134-131c28 9 52 24 51 62-1 50-34 73-85 73S17-19 16-69c0-36 21-54 49-61-75-25-45-126 34-121 46 3 78 18 79 63 0 33-17 51-44 57zm-34-11c31 1 46-15 46-44 0-28-17-43-47-42-29 0-46 13-45 42 1 28 16 44 46 44zm1 122c35 0 51-18 51-52 0-30-18-46-53-46-33 0-51 17-51 47 0 34 19 51 53 51" id="bs"/><g id="W"><use transform="matrix(0.05,0,0,0.05,0,0)" xlink:href="#bo"/><use transform="matrix(0.05,0,0,0.05,10,0)" xlink:href="#bs"/><use transform="matrix(0.05,0,0,0.05,20,0)" xlink:href="#bp"/></g><use transform="matrix(0.05,0,0,0.05,0,0)" xlink:href="#bq" id="X"/><path d="M68-38c1 34 0 65-14 84H32c9-13 17-26 17-46H33v-38h35" id="bt"/><g id="Y"><use transform="matrix(0.05,0,0,0.05,0,0)" xlink:href="#aD"/><use transform="matrix(0.05,0,0,0.05,12,0)" xlink:href="#at"/><use transform="matrix(0.05,0,0,0.05,17,0)" xlink:href="#aY"/><use transform="matrix(0.05,0,0,0.05,27,0)" xlink:href="#aK"/><use transform="matrix(0.05,0,0,0.05,32.95,0)" xlink:href="#bh"/><use transform="matrix(0.05,0,0,0.05,41.95,0)" xlink:href="#ao"/><use transform="matrix(0.05,0,0,0.05,51.95,0)" xlink:href="#bt"/></g><path d="M209 0H11v-25l151-195H24v-28h176v25L50-27h159V0" id="bu"/><g id="Z"><use transform="matrix(0.05,0,0,0.05,0,0)" xlink:href="#bu"/><use transform="matrix(0.05,0,0,0.05,10.950000000000001,0)" xlink:href="#aC"/><use transform="matrix(0.05,0,0,0.05,20.950000000000003,0)" xlink:href="#aq"/><use transform="matrix(0.05,0,0,0.05,29.950000000000003,0)" xlink:href="#bh"/><use transform="matrix(0.05,0,0,0.05,38.95,0)" xlink:href="#ao"/><use transform="matrix(0.05,0,0,0.05,48.95,0)" xlink:href="#aK"/></g><path d="M30 0v-248h33v221h125V0H30" id="bv"/><g id="aa"><use transform="matrix(0.05,0,0,0.05,0,0)" xlink:href="#bv"/><use transform="matrix(0.05,0,0,0.05,10,0)" xlink:href="#ao"/><use transform="matrix(0.05,0,0,0.05,20,0)" xlink:href="#aA"/><use transform="matrix(0.05,0,0,0.05,30,0)" xlink:href="#ao"/><use transform="matrix(0.05,0,0,0.05,40,0)" xlink:href="#az"/><use transform="matrix(0.05,0,0,0.05,50,0)" xlink:href="#ap"/><use transform="matrix(0.05,0,0,0.05,59,0)" xlink:href="#bk"/><use transform="matrix(0.05,0,0,0.05,73.95,0)" xlink:href="#as"/><use transform="matrix(0.05,0,0,0.05,77.9,0)" xlink:href="#at"/><use transform="matrix(0.05,0,0,0.05,82.9,0)" xlink:href="#at"/><use transform="matrix(0.05,0,0,0.05,87.9,0)" xlink:href="#ao"/><use transform="matrix(0.05,0,0,0.05,97.9,0)" xlink:href="#aT"/><use transform="matrix(0.05,0,0,0.05,101.85000000000001,0)" xlink:href="#ar"/><use transform="matrix(0.05,0,0,0.05,111.85000000000001,0)" xlink:href="#aY"/><use transform="matrix(0.05,0,0,0.05,121.85000000000001,0)" xlink:href="#az"/><use transform="matrix(0.05,0,0,0.05,131.85000000000002,0)" xlink:href="#aM"/><use transform="matrix(0.05,0,0,0.05,141.85000000000002,0)" xlink:href="#aT"/><use transform="matrix(0.05,0,0,0.05,145.8,0)" xlink:href="#ao"/><use transform="matrix(0.05,0,0,0.05,155.8,0)" xlink:href="#aK"/></g><g id="ab"><use transform="matrix(0.05,0,0,0.05,0,0)" xlink:href="#aH"/><use transform="matrix(0.05,0,0,0.05,10,0)" xlink:href="#aG"/><use transform="matrix(0.05,0,0,0.05,15.949999999999998,0)" xlink:href="#bs"/></g><g id="ac"><use transform="matrix(0.05,0,0,0.05,0,0)" xlink:href="#bg"/><use transform="matrix(0.05,0,0,0.05,8.950000000000001,0)" xlink:href="#aB"/><use transform="matrix(0.05,0,0,0.05,18.950000000000003,0)" xlink:href="#bd"/><use transform="matrix(0.05,0,0,0.05,28.950000000000003,0)" xlink:href="#ao"/></g><g id="ad"><use transform="matrix(0.05,0,0,0.05,0,0)" xlink:href="#aR"/><use transform="matrix(0.05,0,0,0.05,12,0)" xlink:href="#aK"/><use transform="matrix(0.05,0,0,0.05,17.95,0)" xlink:href="#ao"/><use transform="matrix(0.05,0,0,0.05,27.950000000000003,0)" xlink:href="#as"/><use transform="matrix(0.05,0,0,0.05,31.899999999999995,0)" xlink:href="#ap"/><use transform="matrix(0.05,0,0,0.05,40.9,0)" xlink:href="#bh"/><use transform="matrix(0.05,0,0,0.05,49.9,0)" xlink:href="#aO"/><use transform="matrix(0.05,0,0,0.05,59.900000000000006,0)" xlink:href="#az"/><use transform="matrix(0.05,0,0,0.05,69.9,0)" xlink:href="#aS"/><use transform="matrix(0.05,0,0,0.05,74.9,0)" xlink:href="#aT"/><use transform="matrix(0.05,0,0,0.05,78.85000000000001,0)" xlink:href="#as"/><use transform="matrix(0.05,0,0,0.05,82.80000000000001,0)" xlink:href="#bh"/><use transform="matrix(0.05,0,0,0.05,91.80000000000001,0)" xlink:href="#at"/></g><g id="ae"><use transform="matrix(0.05,0,0,0.05,0,0)" xlink:href="#aR"/><use transform="matrix(0.05,0,0,0.05,12,0)" xlink:href="#ao"/><use transform="matrix(0.05,0,0,0.05,22,0)" xlink:href="#ap"/><use transform="matrix(0.05,0,0,0.05,31,0)" xlink:href="#at"/><use transform="matrix(0.05,0,0,0.05,36,0)" xlink:href="#as"/><use transform="matrix(0.05,0,0,0.05,39.95,0)" xlink:href="#aU"/><use transform="matrix(0.05,0,0,0.05,48.95,0)" xlink:href="#as"/><use transform="matrix(0.05,0,0,0.05,52.900000000000006,0)" xlink:href="#aM"/><use transform="matrix(0.05,0,0,0.05,62.900000000000006,0)" xlink:href="#ao"/></g><path fill="#fff" d="M160-131c35 5 61 23 61 61C221 17 115-2 30 0v-248c76 3 177-17 177 60 0 33-19 50-47 57zm-97-11c50-1 110 9 110-42 0-47-63-36-110-37v79zm0 115c55-2 124 14 124-45 0-56-70-42-124-44v89" id="bw"/><path fill="#fff" d="M24-231v-30h32v30H24zM24 0v-190h32V0H24" id="bx"/><path fill="#fff" d="M100-194c62-1 85 37 85 99 1 63-27 99-86 99S16-35 15-95c0-66 28-99 85-99zM99-20c44 1 53-31 53-75 0-43-8-75-51-75s-53 32-53 75 10 74 51 75" id="by"/><g id="af"><use transform="matrix(0.1851851851851852,0,0,0.1851851851851852,0,0)" xlink:href="#bw"/><use transform="matrix(0.1851851851851852,0,0,0.1851851851851852,44.44444444444445,0)" xlink:href="#bx"/><use transform="matrix(0.1851851851851852,0,0,0.1851851851851852,59.074074074074076,0)" xlink:href="#by"/></g><path d="M108 0H70L1-190h34L89-25l56-165h34" id="bz"/><g id="ag"><use transform="matrix(0.05,0,0,0.05,0,0)" xlink:href="#ay"/><use transform="matrix(0.05,0,0,0.05,12,0)" xlink:href="#aT"/><use transform="matrix(0.05,0,0,0.05,15.949999999999998,0)" xlink:href="#at"/><use transform="matrix(0.05,0,0,0.05,20.95,0)" xlink:href="#ao"/><use transform="matrix(0.05,0,0,0.05,30.950000000000003,0)" xlink:href="#aK"/><use transform="matrix(0.05,0,0,0.05,36.9,0)" xlink:href="#az"/><use transform="matrix(0.05,0,0,0.05,46.9,0)" xlink:href="#aB"/><use transform="matrix(0.05,0,0,0.05,56.900000000000006,0)" xlink:href="#at"/><use transform="matrix(0.05,0,0,0.05,61.900000000000006,0)" xlink:href="#as"/><use transform="matrix(0.05,0,0,0.05,65.85,0)" xlink:href="#bz"/><use transform="matrix(0.05,0,0,0.05,74.85,0)" xlink:href="#ao"/></g></defs></g></svg>