<svg xmlns="http://www.w3.org/2000/svg" xmlns:xlink="http://www.w3.org/1999/xlink" xmlns:lucid="lucid" width="1030" height="1200"><g transform="translate(-290 -220)" lucid:page-tab-id="0_0"><path d="M600 820h160v120H600z" stroke="#000" stroke-width="2" fill="#3aa6dd"/><use xlink:href="#a" transform="matrix(1,0,0,1,605,825) translate(26.599999999999994 58.6)"/><path d="M352 840h96l32 40-32 40h-96l-32-40z" stroke="#000" stroke-width="2" fill="#ff8f80"/><use xlink:href="#b" transform="matrix(1,0,0,1,325,845) translate(21.074999999999996 38.6)"/><path d="M912 840h96l32 40-32 40h-96l-32-40z" stroke="#000" stroke-width="2" fill="#7ab648"/><use xlink:href="#c" transform="matrix(1,0,0,1,885,845) translate(62.025 38.6)"/><path d="M600 880H480" stroke="#000" stroke-width="2" fill="none"/><path/><path d="M494.27 884.64L480 880l14.27-4.64z"/><path d="M495.27 886l-15.94-5.17.67-.83-.67-.83 15.94-5.18zm-12.03-6l10.03 3.26v-6.52z"/><path d="M760 880h120" stroke="#000" stroke-width="2" fill="none"/><path/><path d="M880 880l-14.27 4.64v-9.28z"/><path d="M880.67 879.17l-.67.83.67.83-15.94 5.18v-12zm-13.94 4.1l10.03-3.27-10.03-3.26z"/><path d="M600 680h160v40H600z" stroke="#000" stroke-width="2" fill="#ef8d22"/><use xlink:href="#d" transform="matrix(1,0,0,1,605,685) translate(2.5999999999999943 18.6)"/><use xlink:href="#e" transform="matrix(1,0,0,1,605,685) translate(85.44999999999999 18.6)"/><path d="M680 820V720" stroke="#000" stroke-width="2" fill="none"/><path/><path d="M684.64 734.27h-9.28L680 720z"/><path d="M686 735.27h-12l4.95-15.27h2.1zm-9.26-2h6.52L680 723.24z"/><path d="M590 540l70 50-70 50-70-50z" stroke="#000" stroke-width="2" fill="#fcc438"/><use xlink:href="#f" transform="matrix(1,0,0,1,525,545) translate(27.049999999999997 48.6)"/><path d="M680 680l-60.12-60.12" stroke="#000" stroke-width="2" fill="none"/><path d="M681.4 680H680l.7-.7zM633.25 626.7l-6.56 6.55-6.82-13.37z"/><path d="M634.93 626.43l-8.5 8.5-7.83-15.36 1.2-.85zm-7.97 5.14l4.6-4.6-9.4-4.8z"/><path d="M770 540l70 50-70 50-70-50z" stroke="#000" stroke-width="2" fill="#fcc438"/><use xlink:href="#g" transform="matrix(1,0,0,1,705,545) translate(34.05 37.8)"/><use xlink:href="#h" transform="matrix(1,0,0,1,705,545) translate(20.625 59.4)"/><path d="M680 680l60.12-60.12" stroke="#000" stroke-width="2" fill="none"/><path d="M680 680h-1.4l.7-.7zM733.3 633.25l-6.55-6.56 13.37-6.82z"/><path d="M741.4 619.57l-7.83 15.36-8.5-8.5 15.13-7.7zm-12.97 7.4l4.6 4.6 4.8-9.4z"/><path d="M436 720c13.25 0 24 13.43 24 30s-10.75 30-24 30h-72c-13.25 0-24-13.43-24-30s10.75-30 24-30z" stroke="#000" stroke-width="2" fill="#ccc"/><use xlink:href="#i" transform="matrix(1,0,0,1,345,725) translate(12.75 28.6)"/><use xlink:href="#j" transform="matrix(1,0,0,1,345,725) translate(63.25 28.6)"/><path d="M400 840v-59.25" stroke="#000" stroke-width="2" fill="none"/><path/><path d="M404.64 795.02h-9.28l4.64-14.27z"/><path d="M406 796.02h-12l5.2-16.02h1.6zm-9.26-2h6.52L400 784z"/><path d="M996 720c13.25 0 24 13.43 24 30s-10.75 30-24 30h-72c-13.25 0-24-13.43-24-30s10.75-30 24-30z" stroke="#000" stroke-width="2" fill="#ccc"/><use xlink:href="#k" transform="matrix(1,0,0,1,905,725) translate(12.75 28.6)"/><use xlink:href="#l" transform="matrix(1,0,0,1,905,725) translate(63.25 28.6)"/><path d="M960 840v-59.3" stroke="#000" stroke-width="2" fill="none"/><path/><path d="M964.64 794.95h-9.28L960 780.7z"/><path d="M966 795.95h-12l5.17-15.95h1.66zm-9.26-2h6.52L960 783.92z"/><path d="M454 980c19.88 0 36 24.22 36 54.1 0 29.88-16.12 54.1-36 54.1H346c-19.88 0-36-24.22-36-54.1 0-29.88 16.12-54.1 36-54.1z" stroke="#000" stroke-width="2" fill="#b391b5"/><use xlink:href="#m" transform="matrix(1,0,0,1,315,985) translate(45.525 20.69999999999999)"/><use xlink:href="#n" transform="matrix(1,0,0,1,315,985) translate(24.525 42.29999999999999)"/><use xlink:href="#o" transform="matrix(1,0,0,1,315,985) translate(135.475 42.29999999999999)"/><use xlink:href="#p" transform="matrix(1,0,0,1,315,985) translate(4.099999999999994 63.89999999999999)"/><use xlink:href="#q" transform="matrix(1,0,0,1,315,985) translate(150.9 63.89999999999999)"/><use xlink:href="#r" transform="matrix(1,0,0,1,315,985) translate(55.099999999999994 85.5)"/><path d="M1020 990c22.1 0 40 19.7 40 44s-17.9 44-40 44H900c-22.1 0-40-19.7-40-44s17.9-44 40-44z" stroke="#000" stroke-width="2" fill="#d1bcd2"/><use xlink:href="#s" transform="matrix(1,0,0,1,865,995) translate(12.050000000000011 31.799999999999997)"/><use xlink:href="#t" transform="matrix(1,0,0,1,865,995) translate(56.05000000000001 31.799999999999997)"/><use xlink:href="#u" transform="matrix(1,0,0,1,865,995) translate(157 31.799999999999997)"/><use xlink:href="#r" transform="matrix(1,0,0,1,865,995) translate(65.1 53.4)"/><path d="M960 920v70" stroke="#000" stroke-width="2" fill="none"/><path/><path d="M960 990l-4.64-14.27h9.28z"/><path d="M961.05 990h-2.1L954 974.73h12zm-4.3-13.27l3.25 10.03 3.26-10.03z"/><path d="M400 920v59" stroke="#000" stroke-width="2" fill="none"/><path/><path d="M400 979l-4.64-14.27h9.28z"/><path d="M400.73 980h-1.46L394 963.73h12zm-4-14.27l3.27 10.03 3.26-10.03z"/><path d="M1260 990c22.1 0 40 19.7 40 44s-17.9 44-40 44h-120c-22.1 0-40-19.7-40-44s17.9-44 40-44z" stroke="#000" stroke-width="2" fill="#f9d2de"/><use xlink:href="#s" transform="matrix(1,0,0,1,1105,995) translate(7.050000000000011 31.799999999999997)"/><use xlink:href="#n" transform="matrix(1,0,0,1,1105,995) translate(51.05000000000001 31.799999999999997)"/><use xlink:href="#u" transform="matrix(1,0,0,1,1105,995) translate(162 31.799999999999997)"/><use xlink:href="#v" transform="matrix(1,0,0,1,1105,995) translate(24.099999999999994 53.4)"/><path d="M1152 840h96l32 40-32 40h-96l-32-40z" stroke="#000" stroke-width="2" fill="#a3d977"/><use xlink:href="#w" transform="matrix(1,0,0,1,1125,845) translate(39.099999999999994 38.6)"/><path d="M1040 880h80" stroke="#000" stroke-width="2" fill="none"/><path d="M1040 881h-.8l.8-1-.8-1h.8zM1120 880l-14.27 4.64v-9.28z"/><path d="M1120.67 879.17l-.67.83.67.83-15.94 5.18v-12zm-13.94 4.1l10.03-3.27-10.03-3.26z"/><path d="M1236 720.6c13.25 0 24 13.3 24 29.7s-10.75 29.7-24 29.7h-72c-13.25 0-24-13.3-24-29.7s10.75-29.7 24-29.7z" stroke="#000" stroke-width="2" fill="#ccc"/><use xlink:href="#x" transform="matrix(1,0,0,1,1145,725.6000000000001) translate(12.75 28.6)"/><use xlink:href="#y" transform="matrix(1,0,0,1,1145,725.6000000000001) translate(17.75 28.6)"/><path d="M1200 920v69" stroke="#000" stroke-width="2" fill="none"/><path/><path d="M1200 989l-4.64-14.27h9.28z"/><path d="M1200.73 990h-1.46l-5.28-16.27h12zm-4-14.27l3.27 10.03 3.26-10.03z"/><path d="M1200 840v-60" stroke="#000" stroke-width="2" fill="none"/><path/><path d="M1204.64 794.27h-9.28L1200 780z"/><path d="M1206 795.27h-12l4.95-15.27h2.1zm-9.26-2h6.52l-3.26-10.03z"/><path d="M600 1140h160v120H600z" stroke="#000" stroke-width="2" fill="#1371ff"/><use xlink:href="#z" transform="matrix(1,0,0,1,605,1145) translate(18.64999999999999 58.6)"/><path d="M680 940v199" stroke="#000" stroke-width="2" fill="none"/><path/><path d="M680 1139l-4.64-14.27h9.28z"/><path d="M680.73 1140h-1.46l-5.28-16.27h12zm-4-14.27l3.27 10.03 3.26-10.03z"/><path d="M740 400c22.1 0 40 17.9 40 40s-17.9 40-40 40H620c-22.1 0-40-17.9-40-40s17.9-40 40-40z" stroke="#000" stroke-width="2" fill="#ff8f80"/><use xlink:href="#A" transform="matrix(1,0,0,1,585,405) translate(20.525000000000006 28.299999999999997)"/><use xlink:href="#B" transform="matrix(1,0,0,1,585,405) translate(97.47500000000001 28.299999999999997)"/><use xlink:href="#C" transform="matrix(1,0,0,1,585,405) translate(34.099999999999994 49.9)"/><use xlink:href="#D" transform="matrix(1,0,0,1,585,405) translate(98 49.9)"/><path d="M590 540l39.1-60" stroke="#000" stroke-width="2" fill="none"/><path d="M590.84 540.55l-.03.03-.8-.58-2.23 1.6 1.4-2.15zM625.2 494.48l-7.77-5.06L629.1 480z"/><path d="M625.8 496.07l-10.06-6.56 11.77-9.5h2.64zm-6.67-6.74l5.46 3.56 2.74-10.2z"/><path d="M770 540l-36.02-60" stroke="#000" stroke-width="2" fill="none"/><path d="M772.04 541.46L770 540l-.82.58-.04-.07 1.72-1zM745.3 489.85l-7.95 4.77-3.37-14.62z"/><path d="M747 490l-10.3 6.18-3.74-16.18h2.55zm-8.98 3.05l5.58-3.35-7.95-6.93z"/><path d="M560 240h240v170H560z" fill="none"/><use xlink:href="#E" transform="matrix(1,0,0,1,565,245) translate(77.96296296296296 107.16666666666667)"/><path d="M680 400v-46.67" stroke="#000" stroke-width="2" fill="none"/><path/><path d="M680 353.33l4.64 14.27h-9.28z" stroke="#000" stroke-width="2"/><path d="M955 1140l85 60-85 60-85-60z" stroke="#000" stroke-width="2" fill="#fff"/><use xlink:href="#F" transform="matrix(1,0,0,1,875,1145) translate(15.199999999999989 47.8)"/><use xlink:href="#G" transform="matrix(1,0,0,1,875,1145) translate(49.099999999999994 47.8)"/><use xlink:href="#H" transform="matrix(1,0,0,1,875,1145) translate(125.9 47.8)"/><use xlink:href="#I" transform="matrix(1,0,0,1,875,1145) translate(46.5 69.4)"/><path d="M1200 1140l80 60-80 60-80-60z" stroke="#000" stroke-width="2" fill="#fff"/><g><use xlink:href="#J" transform="matrix(1,0,0,1,1125,1145) translate(19.074999999999996 47.8)"/><use xlink:href="#K" transform="matrix(1,0,0,1,1125,1145) translate(80.025 47.8)"/><use xlink:href="#L" transform="matrix(1,0,0,1,1125,1145) translate(43.5 69.4)"/></g><path d="M760 1200h110" stroke="#000" stroke-width="2" fill="none"/><path/><path d="M870 1200l-14.27 4.64v-9.28z"/><path d="M871.02 1199.28l-1.02.72 1.02.72-16.3 5.3v-12.03zm-14.3 3.98l10.04-3.26-10.03-3.26z"/><path d="M1040 1200h80" stroke="#000" stroke-width="2" fill="none"/><path d="M1040 1201h-1.42l1.42-1-1.42-1h1.42zM1120 1200l-14.27 4.64v-9.28z"/><path d="M1120.98 1199.27l-.98.73.98.73-16.25 5.28v-12zm-14.25 4l10.03-3.27-10.03-3.26z"/><path d="M1128 1320c17.67 0 32 17.9 32 40s-14.33 40-32 40h-96c-17.67 0-32-17.9-32-40s14.33-40 32-40z" stroke="#000" stroke-width="2" fill="#fff"/><g><use xlink:href="#M" transform="matrix(1,0,0,1,1005,1325) translate(23 38.6)"/><use xlink:href="#N" transform="matrix(1,0,0,1,1005,1325) translate(73 38.6)"/></g><path d="M955 1260l85.47 60" stroke="#000" stroke-width="2" fill="none"/><path d="M955 1260l-.57.82-2.46-1.73.58-.83zM1040.47 1320l-14.34-4.4 5.32-7.6z"/><path d="M1041.72 1320h-4.66l-12.54-3.85 6.9-9.84zm-13.98-4.95l10.08 3.1-6.34-8.44z"/><path d="M1200 1260l-78.33 60" stroke="#000" stroke-width="2" fill="none"/><path d="M1203 1258.97l-2.4 1.82-.6-.8 2.4-1.8zM1135.8 1315l-14.13 5 8.5-12.35z"/><path d="M1137.44 1315.5l-12.77 4.5h-4.22l9.68-14.06zm-13.2 2.53l9.94-3.5-3.96-5.18z"/><defs><path d="M30-248c87 1 191-15 191 75 0 78-77 80-158 76V0H30v-248zm33 125c57 0 124 11 124-50 0-59-68-47-124-48v98" id="O"/><path d="M114-163C36-179 61-72 57 0H25l-1-190h30c1 12-1 29 2 39 6-27 23-49 58-41v29" id="P"/><path d="M100-194c63 0 86 42 84 106H49c0 40 14 67 53 68 26 1 43-12 49-29l28 8c-11 28-37 45-77 45C44 4 14-33 15-96c1-61 26-98 85-98zm52 81c6-60-76-77-97-28-3 7-6 17-6 28h103" id="Q"/><path d="M24-231v-30h32v30H24zM24 0v-190h32V0H24" id="R"/><path d="M135-143c-3-34-86-38-87 0 15 53 115 12 119 90S17 21 10-45l28-5c4 36 97 45 98 0-10-56-113-15-118-90-4-57 82-63 122-42 12 7 21 19 24 35" id="S"/><path d="M143 0L79-87 56-68V0H24v-261h32v163l83-92h37l-77 82L181 0h-38" id="T"/><path d="M100-194c62-1 85 37 85 99 1 63-27 99-86 99S16-35 15-95c0-66 28-99 85-99zM99-20c44 1 53-31 53-75 0-43-8-75-51-75s-53 32-53 75 10 74 51 75" id="U"/><path d="M117-194c89-4 53 116 60 194h-32v-121c0-31-8-49-39-48C34-167 62-67 57 0H25l-1-190h30c1 10-1 24 2 32 11-22 29-35 61-36" id="V"/><path d="M101-234c-31-9-42 10-38 44h38v23H63V0H32v-167H5v-23h27c-7-52 17-82 69-68v24" id="W"/><path d="M24 0v-261h32V0H24" id="X"/><path d="M59-47c-2 24 18 29 38 22v24C64 9 27 4 27-40v-127H5v-23h24l9-43h21v43h35v23H59v120" id="Y"/><g id="a"><use transform="matrix(0.05,0,0,0.05,0,0)" xlink:href="#O"/><use transform="matrix(0.05,0,0,0.05,12,0)" xlink:href="#P"/><use transform="matrix(0.05,0,0,0.05,17.95,0)" xlink:href="#Q"/><use transform="matrix(0.05,0,0,0.05,27.950000000000003,0)" xlink:href="#R"/><use transform="matrix(0.05,0,0,0.05,31.899999999999995,0)" xlink:href="#S"/><use transform="matrix(0.05,0,0,0.05,40.9,0)" xlink:href="#T"/><use transform="matrix(0.05,0,0,0.05,49.9,0)" xlink:href="#U"/><use transform="matrix(0.05,0,0,0.05,59.900000000000006,0)" xlink:href="#V"/><use transform="matrix(0.05,0,0,0.05,69.9,0)" xlink:href="#W"/><use transform="matrix(0.05,0,0,0.05,74.9,0)" xlink:href="#X"/><use transform="matrix(0.05,0,0,0.05,78.85000000000001,0)" xlink:href="#R"/><use transform="matrix(0.05,0,0,0.05,82.80000000000001,0)" xlink:href="#T"/><use transform="matrix(0.05,0,0,0.05,91.80000000000001,0)" xlink:href="#Y"/></g><path d="M194 0L95-120 63-95V0H30v-248h33v124l119-124h40L117-140 236 0h-42" id="Z"/><path d="M108 0H70L1-190h34L89-25l56-165h34" id="aa"/><g id="b"><use transform="matrix(0.05,0,0,0.05,0,0)" xlink:href="#Z"/><use transform="matrix(0.05,0,0,0.05,12,0)" xlink:href="#U"/><use transform="matrix(0.05,0,0,0.05,22,0)" xlink:href="#V"/><use transform="matrix(0.05,0,0,0.05,32,0)" xlink:href="#aa"/><use transform="matrix(0.05,0,0,0.05,41,0)" xlink:href="#Q"/><use transform="matrix(0.05,0,0,0.05,51,0)" xlink:href="#V"/><use transform="matrix(0.05,0,0,0.05,61,0)" xlink:href="#Y"/><use transform="matrix(0.05,0,0,0.05,66,0)" xlink:href="#R"/><use transform="matrix(0.05,0,0,0.05,69.95,0)" xlink:href="#U"/><use transform="matrix(0.05,0,0,0.05,79.95,0)" xlink:href="#V"/><use transform="matrix(0.05,0,0,0.05,89.95,0)" xlink:href="#Q"/><use transform="matrix(0.05,0,0,0.05,99.95,0)" xlink:href="#X"/><use transform="matrix(0.05,0,0,0.05,103.9,0)" xlink:href="#X"/></g><path d="M160-131c35 5 61 23 61 61C221 17 115-2 30 0v-248c76 3 177-17 177 60 0 33-19 50-47 57zm-97-11c50-1 110 9 110-42 0-47-63-36-110-37v79zm0 115c55-2 124 14 124-45 0-56-70-42-124-44v89" id="ab"/><g id="c"><use transform="matrix(0.05,0,0,0.05,0,0)" xlink:href="#ab"/><use transform="matrix(0.05,0,0,0.05,12,0)" xlink:href="#R"/><use transform="matrix(0.05,0,0,0.05,15.949999999999998,0)" xlink:href="#U"/></g><path d="M266 0h-40l-56-210L115 0H75L2-248h35L96-30l15-64 43-154h32l59 218 59-218h35" id="ac"/><path d="M96-169c-40 0-48 33-48 73s9 75 48 75c24 0 41-14 43-38l32 2c-6 37-31 61-74 61-59 0-76-41-82-99-10-93 101-131 147-64 4 7 5 14 7 22l-32 3c-4-21-16-35-41-35" id="ad"/><path d="M106-169C34-169 62-67 57 0H25v-261h32l-1 103c12-21 28-36 61-36 89 0 53 116 60 194h-32v-121c2-32-8-49-39-48" id="ae"/><path d="M177-190C167-65 218 103 67 71c-23-6-38-20-44-43l32-5c15 47 100 32 89-28v-30C133-14 115 1 83 1 29 1 15-40 15-95c0-56 16-97 71-98 29-1 48 16 59 35 1-10 0-23 2-32h30zM94-22c36 0 50-32 50-73 0-42-14-75-50-75-39 0-46 34-46 75s6 73 46 73" id="af"/><g id="d"><use transform="matrix(0.05,0,0,0.05,0,0)" xlink:href="#ac"/><use transform="matrix(0.05,0,0,0.05,16.95,0)" xlink:href="#R"/><use transform="matrix(0.05,0,0,0.05,20.9,0)" xlink:href="#ad"/><use transform="matrix(0.05,0,0,0.05,29.899999999999995,0)" xlink:href="#ae"/><use transform="matrix(0.05,0,0,0.05,39.9,0)" xlink:href="#Y"/><use transform="matrix(0.05,0,0,0.05,44.9,0)" xlink:href="#R"/><use transform="matrix(0.05,0,0,0.05,48.85,0)" xlink:href="#af"/><use transform="matrix(0.05,0,0,0.05,58.85,0)" xlink:href="#Q"/><use transform="matrix(0.05,0,0,0.05,68.85,0)" xlink:href="#S"/></g><path d="M85-194c31 0 48 13 60 33l-1-100h32l1 261h-30c-2-10 0-23-3-31C134-8 116 4 85 4 32 4 16-35 15-94c0-66 23-100 70-100zm9 24c-40 0-46 34-46 75 0 40 6 74 45 74 42 0 51-32 51-76 0-42-9-74-50-73" id="ag"/><path d="M84 4C-5 8 30-112 23-190h32v120c0 31 7 50 39 49 72-2 45-101 50-169h31l1 190h-30c-1-10 1-25-2-33-11 22-28 36-60 37" id="ah"/><g id="e"><use transform="matrix(0.05,0,0,0.05,0,0)" xlink:href="#O"/><use transform="matrix(0.05,0,0,0.05,12,0)" xlink:href="#P"/><use transform="matrix(0.05,0,0,0.05,17.95,0)" xlink:href="#U"/><use transform="matrix(0.05,0,0,0.05,27.950000000000003,0)" xlink:href="#ag"/><use transform="matrix(0.05,0,0,0.05,37.95,0)" xlink:href="#ah"/><use transform="matrix(0.05,0,0,0.05,47.95,0)" xlink:href="#T"/><use transform="matrix(0.05,0,0,0.05,56.95,0)" xlink:href="#Y"/></g><path d="M206 0h-36l-40-164L89 0H53L-1-190h32L70-26l43-164h34l41 164 42-164h31" id="ai"/><g id="f"><use transform="matrix(0.05,0,0,0.05,0,0)" xlink:href="#Z"/><use transform="matrix(0.05,0,0,0.05,12,0)" xlink:href="#Q"/><use transform="matrix(0.05,0,0,0.05,22,0)" xlink:href="#V"/><use transform="matrix(0.05,0,0,0.05,32,0)" xlink:href="#V"/><use transform="matrix(0.05,0,0,0.05,42,0)" xlink:href="#ai"/><use transform="matrix(0.05,0,0,0.05,54.95,0)" xlink:href="#Q"/><use transform="matrix(0.05,0,0,0.05,64.95,0)" xlink:href="#P"/><use transform="matrix(0.05,0,0,0.05,70.9,0)" xlink:href="#Y"/></g><path d="M185-189c-5-48-123-54-124 2 14 75 158 14 163 119 3 78-121 87-175 55-17-10-28-26-33-46l33-7c5 56 141 63 141-1 0-78-155-14-162-118-5-82 145-84 179-34 5 7 8 16 11 25" id="aj"/><g id="g"><use transform="matrix(0.05,0,0,0.05,0,0)" xlink:href="#aj"/><use transform="matrix(0.05,0,0,0.05,12,0)" xlink:href="#Y"/><use transform="matrix(0.05,0,0,0.05,17,0)" xlink:href="#Q"/><use transform="matrix(0.05,0,0,0.05,27,0)" xlink:href="#Y"/><use transform="matrix(0.05,0,0,0.05,32,0)" xlink:href="#R"/><use transform="matrix(0.05,0,0,0.05,35.95,0)" xlink:href="#af"/><use transform="matrix(0.05,0,0,0.05,45.95,0)" xlink:href="#Q"/><use transform="matrix(0.05,0,0,0.05,55.95,0)" xlink:href="#P"/></g><path d="M141-36C126-15 110 5 73 4 37 3 15-17 15-53c-1-64 63-63 125-63 3-35-9-54-41-54-24 1-41 7-42 31l-33-3c5-37 33-52 76-52 45 0 72 20 72 64v82c-1 20 7 32 28 27v20c-31 9-61-2-59-35zM48-53c0 20 12 33 32 33 41-3 63-29 60-74-43 2-92-5-92 41" id="ak"/><g id="h"><use transform="matrix(0.05,0,0,0.05,0,0)" xlink:href="#O"/><use transform="matrix(0.05,0,0,0.05,12,0)" xlink:href="#P"/><use transform="matrix(0.05,0,0,0.05,17.95,0)" xlink:href="#Q"/><use transform="matrix(0.05,0,0,0.05,27.950000000000003,0)" xlink:href="#R"/><use transform="matrix(0.05,0,0,0.05,31.899999999999995,0)" xlink:href="#S"/><use transform="matrix(0.05,0,0,0.05,40.9,0)" xlink:href="#aa"/><use transform="matrix(0.05,0,0,0.05,49.9,0)" xlink:href="#Q"/><use transform="matrix(0.05,0,0,0.05,59.900000000000006,0)" xlink:href="#P"/><use transform="matrix(0.05,0,0,0.05,65.85,0)" xlink:href="#W"/><use transform="matrix(0.05,0,0,0.05,70.85,0)" xlink:href="#ak"/><use transform="matrix(0.05,0,0,0.05,80.85,0)" xlink:href="#X"/><use transform="matrix(0.05,0,0,0.05,84.8,0)" xlink:href="#X"/></g><path d="M16-127c37-31 93-2 135 6 18-1 32-8 43-16v26c-50 42-130-35-178 9v-25" id="al"/><path d="M27 0v-27h64v-190l-56 39v-29l58-41h29v221h61V0H27" id="am"/><path d="M68-38c1 34 0 65-14 84H32c9-13 17-26 17-46H33v-38h35" id="an"/><path d="M101-251c82-7 93 87 43 132L82-64C71-53 59-42 53-27h129V0H18c2-99 128-94 128-182 0-28-16-43-45-43s-46 15-49 41l-32-3c6-41 34-60 81-64" id="ao"/><path d="M99-251c64 0 84 50 84 122C183-37 130 33 47-8c-14-7-20-23-25-40l30-5c6 39 69 39 84 7 9-19 16-44 16-74-10 22-31 35-62 35-49 0-73-33-73-83 0-54 28-83 82-83zm-1 141c31-1 51-18 51-49 0-36-14-67-51-67-34 0-49 23-49 58 0 34 15 58 49 58" id="ap"/><g id="i"><use transform="matrix(0.05,0,0,0.05,0,0)" xlink:href="#al"/><use transform="matrix(0.05,0,0,0.05,10.5,0)" xlink:href="#am"/><use transform="matrix(0.05,0,0,0.05,20.5,0)" xlink:href="#an"/><use transform="matrix(0.05,0,0,0.05,25.5,0)" xlink:href="#ao"/><use transform="matrix(0.05,0,0,0.05,35.5,0)" xlink:href="#ap"/></g><path d="M65-88c4 36 17 65 56 66 24 0 39-13 42-34l32 3c-8 35-32 57-74 57-59 0-82-39-88-92H3l7-23h21c-1-10 0-19 0-29H3l7-22h23c-9-93 141-125 162-33l-33 3c-1-37-59-44-80-19-11 11-15 27-17 49h78l-7 22H63v29h80l-7 23H65" id="aq"/><path d="M0 4l72-265h28L28 4H0" id="ar"/><g id="j"><use transform="matrix(0.05,0,0,0.05,0,0)" xlink:href="#aq"/><use transform="matrix(0.05,0,0,0.05,10,0)" xlink:href="#ar"/><use transform="matrix(0.05,0,0,0.05,15,0)" xlink:href="#T"/><use transform="matrix(0.05,0,0,0.05,24,0)" xlink:href="#af"/></g><path d="M64 0c3-98 48-159 88-221H18v-27h164v26C143-157 98-101 97 0H64" id="as"/><g id="k"><use transform="matrix(0.05,0,0,0.05,0,0)" xlink:href="#al"/><use transform="matrix(0.05,0,0,0.05,10.5,0)" xlink:href="#am"/><use transform="matrix(0.05,0,0,0.05,20.5,0)" xlink:href="#an"/><use transform="matrix(0.05,0,0,0.05,25.5,0)" xlink:href="#as"/><use transform="matrix(0.05,0,0,0.05,35.5,0)" xlink:href="#ap"/></g><g id="l"><use transform="matrix(0.05,0,0,0.05,0,0)" xlink:href="#aq"/><use transform="matrix(0.05,0,0,0.05,10,0)" xlink:href="#ar"/><use transform="matrix(0.05,0,0,0.05,15,0)" xlink:href="#T"/><use transform="matrix(0.05,0,0,0.05,24,0)" xlink:href="#af"/></g><g id="m"><use transform="matrix(0.05,0,0,0.05,0,0)" xlink:href="#aj"/><use transform="matrix(0.05,0,0,0.05,12,0)" xlink:href="#ad"/><use transform="matrix(0.05,0,0,0.05,21,0)" xlink:href="#ae"/><use transform="matrix(0.05,0,0,0.05,31,0)" xlink:href="#X"/><use transform="matrix(0.05,0,0,0.05,34.95,0)" xlink:href="#Q"/><use transform="matrix(0.05,0,0,0.05,44.95,0)" xlink:href="#ad"/><use transform="matrix(0.05,0,0,0.05,53.95,0)" xlink:href="#ae"/><use transform="matrix(0.05,0,0,0.05,63.95,0)" xlink:href="#Y"/><use transform="matrix(0.05,0,0,0.05,68.95,0)" xlink:href="#Q"/></g><g id="n"><use transform="matrix(0.05,0,0,0.05,0,0)" xlink:href="#ab"/><use transform="matrix(0.05,0,0,0.05,12,0)" xlink:href="#Q"/><use transform="matrix(0.05,0,0,0.05,22,0)" xlink:href="#ag"/><use transform="matrix(0.05,0,0,0.05,32,0)" xlink:href="#R"/><use transform="matrix(0.05,0,0,0.05,35.95,0)" xlink:href="#V"/><use transform="matrix(0.05,0,0,0.05,45.95,0)" xlink:href="#af"/><use transform="matrix(0.05,0,0,0.05,55.95,0)" xlink:href="#ah"/><use transform="matrix(0.05,0,0,0.05,65.95,0)" xlink:href="#V"/><use transform="matrix(0.05,0,0,0.05,75.95,0)" xlink:href="#af"/><use transform="matrix(0.05,0,0,0.05,85.95,0)" xlink:href="#Q"/><use transform="matrix(0.05,0,0,0.05,95.95,0)" xlink:href="#V"/></g><path d="M33 0v-38h34V0H33" id="at"/><g id="o"><use transform="matrix(0.05,0,0,0.05,0,0)" xlink:href="#W"/><use transform="matrix(0.05,0,0,0.05,5,0)" xlink:href="#at"/></g><path d="M115-194c53 0 69 39 70 98 0 66-23 100-70 100C84 3 66-7 56-30L54 0H23l1-261h32v101c10-23 28-34 59-34zm-8 174c40 0 45-34 45-75 0-40-5-75-45-74-42 0-51 32-51 76 0 43 10 73 51 73" id="au"/><g id="p"><use transform="matrix(0.05,0,0,0.05,0,0)" xlink:href="#O"/><use transform="matrix(0.05,0,0,0.05,12,0)" xlink:href="#X"/><use transform="matrix(0.05,0,0,0.05,15.949999999999998,0)" xlink:href="#ak"/><use transform="matrix(0.05,0,0,0.05,25.950000000000003,0)" xlink:href="#V"/><use transform="matrix(0.05,0,0,0.05,35.95,0)" xlink:href="#Y"/><use transform="matrix(0.05,0,0,0.05,40.95,0)" xlink:href="#ak"/><use transform="matrix(0.05,0,0,0.05,50.95,0)" xlink:href="#af"/><use transform="matrix(0.05,0,0,0.05,60.95,0)" xlink:href="#Q"/><use transform="matrix(0.05,0,0,0.05,70.95,0)" xlink:href="#V"/><use transform="matrix(0.05,0,0,0.05,80.95,0)" xlink:href="#ak"/><use transform="matrix(0.05,0,0,0.05,90.95,0)" xlink:href="#P"/><use transform="matrix(0.05,0,0,0.05,96.9,0)" xlink:href="#au"/><use transform="matrix(0.05,0,0,0.05,106.9,0)" xlink:href="#Q"/><use transform="matrix(0.05,0,0,0.05,116.9,0)" xlink:href="#R"/><use transform="matrix(0.05,0,0,0.05,120.85000000000001,0)" xlink:href="#Y"/><use transform="matrix(0.05,0,0,0.05,125.85000000000001,0)" xlink:href="#Q"/><use transform="matrix(0.05,0,0,0.05,135.85000000000002,0)" xlink:href="#P"/></g><g id="q"><use transform="matrix(0.05,0,0,0.05,0,0)" xlink:href="#ah"/><use transform="matrix(0.05,0,0,0.05,10,0)" xlink:href="#at"/></g><path d="M232-93c-1 65-40 97-104 97C67 4 28-28 28-90v-158h33c8 89-33 224 67 224 102 0 64-133 71-224h33v155" id="av"/><path d="M210-169c-67 3-38 105-44 169h-31v-121c0-29-5-50-35-48C34-165 62-65 56 0H25l-1-190h30c1 10-1 24 2 32 10-44 99-50 107 0 11-21 27-35 58-36 85-2 47 119 55 194h-31v-121c0-29-5-49-35-48" id="aw"/><g id="r"><use transform="matrix(0.05,0,0,0.05,0,0)" xlink:href="#av"/><use transform="matrix(0.05,0,0,0.05,12.950000000000001,0)" xlink:href="#aw"/><use transform="matrix(0.05,0,0,0.05,27.900000000000002,0)" xlink:href="#ai"/><use transform="matrix(0.05,0,0,0.05,40.85,0)" xlink:href="#Q"/><use transform="matrix(0.05,0,0,0.05,50.85,0)" xlink:href="#X"/><use transform="matrix(0.05,0,0,0.05,54.800000000000004,0)" xlink:href="#Y"/></g><path d="M143 4C61 4 22-44 18-125c-5-107 100-154 193-111 17 8 29 25 37 43l-32 9c-13-25-37-40-76-40-61 0-88 39-88 99 0 61 29 100 91 101 35 0 62-11 79-27v-45h-74v-28h105v86C228-13 192 4 143 4" id="ax"/><g id="s"><use transform="matrix(0.05,0,0,0.05,0,0)" xlink:href="#ax"/><use transform="matrix(0.05,0,0,0.05,14,0)" xlink:href="#ah"/><use transform="matrix(0.05,0,0,0.05,24,0)" xlink:href="#Y"/><use transform="matrix(0.05,0,0,0.05,29,0)" xlink:href="#Q"/></g><g id="t"><use transform="matrix(0.05,0,0,0.05,0,0)" xlink:href="#ab"/><use transform="matrix(0.05,0,0,0.05,12,0)" xlink:href="#Q"/><use transform="matrix(0.05,0,0,0.05,22,0)" xlink:href="#ag"/><use transform="matrix(0.05,0,0,0.05,32,0)" xlink:href="#R"/><use transform="matrix(0.05,0,0,0.05,35.95,0)" xlink:href="#V"/><use transform="matrix(0.05,0,0,0.05,45.95,0)" xlink:href="#ah"/><use transform="matrix(0.05,0,0,0.05,55.95,0)" xlink:href="#V"/><use transform="matrix(0.05,0,0,0.05,65.95,0)" xlink:href="#af"/><use transform="matrix(0.05,0,0,0.05,75.95,0)" xlink:href="#Q"/><use transform="matrix(0.05,0,0,0.05,85.95,0)" xlink:href="#V"/></g><path d="M85 4C-4 8 31-112 24-190h32v120c0 31 7 50 39 49 72-2 45-101 50-169h31l1 190h-30c-1-10 1-25-2-33-11 22-28 36-60 37zm34-218v-33h29v33h-29zm-69 0v-33h29v33H50" id="ay"/><g id="u"><use transform="matrix(0.05,0,0,0.05,0,0)" xlink:href="#W"/><use transform="matrix(0.05,0,0,0.05,5,0)" xlink:href="#ay"/><use transform="matrix(0.05,0,0,0.05,15,0)" xlink:href="#P"/></g><g id="v"><use transform="matrix(0.05,0,0,0.05,0,0)" xlink:href="#O"/><use transform="matrix(0.05,0,0,0.05,12,0)" xlink:href="#X"/><use transform="matrix(0.05,0,0,0.05,15.949999999999998,0)" xlink:href="#ak"/><use transform="matrix(0.05,0,0,0.05,25.950000000000003,0)" xlink:href="#V"/><use transform="matrix(0.05,0,0,0.05,35.95,0)" xlink:href="#Y"/><use transform="matrix(0.05,0,0,0.05,40.95,0)" xlink:href="#ak"/><use transform="matrix(0.05,0,0,0.05,50.95,0)" xlink:href="#af"/><use transform="matrix(0.05,0,0,0.05,60.95,0)" xlink:href="#Q"/><use transform="matrix(0.05,0,0,0.05,70.95,0)" xlink:href="#V"/><use transform="matrix(0.05,0,0,0.05,80.95,0)" xlink:href="#ak"/><use transform="matrix(0.05,0,0,0.05,90.95,0)" xlink:href="#P"/><use transform="matrix(0.05,0,0,0.05,96.9,0)" xlink:href="#au"/><use transform="matrix(0.05,0,0,0.05,106.9,0)" xlink:href="#Q"/><use transform="matrix(0.05,0,0,0.05,116.9,0)" xlink:href="#R"/><use transform="matrix(0.05,0,0,0.05,120.85000000000001,0)" xlink:href="#Y"/><use transform="matrix(0.05,0,0,0.05,125.85000000000001,0)" xlink:href="#Q"/><use transform="matrix(0.05,0,0,0.05,135.85000000000002,0)" xlink:href="#P"/></g><path d="M63-220v92h138v28H63V0H30v-248h175v28H63" id="az"/><g id="w"><use transform="matrix(0.05,0,0,0.05,0,0)" xlink:href="#az"/><use transform="matrix(0.05,0,0,0.05,10.950000000000001,0)" xlink:href="#ak"/><use transform="matrix(0.05,0,0,0.05,20.950000000000003,0)" xlink:href="#R"/><use transform="matrix(0.05,0,0,0.05,24.900000000000002,0)" xlink:href="#P"/><use transform="matrix(0.05,0,0,0.05,30.85,0)" xlink:href="#Y"/><use transform="matrix(0.05,0,0,0.05,35.85,0)" xlink:href="#P"/><use transform="matrix(0.05,0,0,0.05,41.800000000000004,0)" xlink:href="#ak"/><use transform="matrix(0.05,0,0,0.05,51.800000000000004,0)" xlink:href="#ag"/><use transform="matrix(0.05,0,0,0.05,61.800000000000004,0)" xlink:href="#Q"/></g><g id="y"><use transform="matrix(0.05,0,0,0.05,0,0)" xlink:href="#al"/><use transform="matrix(0.05,0,0,0.05,10.5,0)" xlink:href="#ao"/><use transform="matrix(0.05,0,0,0.05,20.5,0)" xlink:href="#an"/><use transform="matrix(0.05,0,0,0.05,25.5,0)" xlink:href="#ao"/><use transform="matrix(0.05,0,0,0.05,35.5,0)" xlink:href="#ap"/><use transform="matrix(0.05,0,0,0.05,45.5,0)" xlink:href="#aq"/><use transform="matrix(0.05,0,0,0.05,55.5,0)" xlink:href="#ar"/><use transform="matrix(0.05,0,0,0.05,60.5,0)" xlink:href="#T"/><use transform="matrix(0.05,0,0,0.05,69.5,0)" xlink:href="#af"/></g><path fill="#f90" d="M24-248c93 1 206-16 204 79-1 75-69 88-152 82V0H24v-248zm52 121c47 0 100 7 100-41 0-47-54-39-100-39v80" id="aA"/><path fill="#f90" d="M24 0v-248h52v208h133V0H24" id="aB"/><path fill="#f90" d="M238-95c0 69-44 99-111 99C63 4 22-25 22-93v-155h51v151c-1 38 19 59 55 60 90 1 49-130 58-211h52v153" id="aC"/><path fill="#f90" d="M169-182c-1-43-94-46-97-3 18 66 151 10 154 114 3 95-165 93-204 36-6-8-10-19-12-30l50-8c3 46 112 56 116 5-17-69-150-10-154-114-4-87 153-88 188-35 5 8 8 18 10 28" id="aD"/><path fill="#f90" d="M14-72v-43h91v43H14" id="aE"/><path fill="#f90" d="M199 0l-22-63H83L61 0H9l90-248h61L250 0h-51zm-33-102l-36-108c-10 38-24 72-36 108h72" id="aF"/><path fill="#f90" d="M135-194c87-1 58 113 63 194h-50c-7-57 23-157-34-157-59 0-34 97-39 157H25l-1-190h47c2 12-1 28 3 38 12-26 28-41 61-42" id="aG"/><path fill="#f90" d="M137-138c1-29-70-34-71-4 15 46 118 7 119 86 1 83-164 76-172 9l43-7c4 19 20 25 44 25 33 8 57-30 24-41C81-84 22-81 20-136c-2-80 154-74 161-7" id="aH"/><path fill="#f90" d="M133-34C117-15 103 5 69 4 32 3 11-16 11-54c-1-60 55-63 116-61 1-26-3-47-28-47-18 1-26 9-28 27l-52-2c7-38 36-58 82-57s74 22 75 68l1 82c-1 14 12 18 25 15v27c-30 8-71 5-69-32zm-48 3c29 0 43-24 42-57-32 0-66-3-65 30 0 17 8 27 23 27" id="aI"/><path fill="#f90" d="M115-3C79 11 28 4 28-45v-112H4v-33h27l15-45h31v45h36v33H77v99c-1 23 16 31 38 25v30" id="aJ"/><path fill="#f90" d="M12 0v-35l95-120H19v-35h142v35L67-36h103V0H12" id="aK"/><g id="z"><use transform="matrix(0.05,0,0,0.05,0,0)" xlink:href="#aA"/><use transform="matrix(0.05,0,0,0.05,12,0)" xlink:href="#aB"/><use transform="matrix(0.05,0,0,0.05,22.950000000000003,0)" xlink:href="#aC"/><use transform="matrix(0.05,0,0,0.05,35.900000000000006,0)" xlink:href="#aD"/><use transform="matrix(0.05,0,0,0.05,47.900000000000006,0)" xlink:href="#aE"/><use transform="matrix(0.05,0,0,0.05,53.85,0)" xlink:href="#aF"/><use transform="matrix(0.05,0,0,0.05,66.80000000000001,0)" xlink:href="#aG"/><use transform="matrix(0.05,0,0,0.05,77.75000000000001,0)" xlink:href="#aH"/><use transform="matrix(0.05,0,0,0.05,87.75000000000001,0)" xlink:href="#aI"/><use transform="matrix(0.05,0,0,0.05,97.75000000000001,0)" xlink:href="#aJ"/><use transform="matrix(0.05,0,0,0.05,103.7,0)" xlink:href="#aK"/></g><g id="A"><use transform="matrix(0.05,0,0,0.05,0,0)" xlink:href="#ax"/><use transform="matrix(0.05,0,0,0.05,14,0)" xlink:href="#ay"/><use transform="matrix(0.05,0,0,0.05,24,0)" xlink:href="#V"/><use transform="matrix(0.05,0,0,0.05,34,0)" xlink:href="#S"/><use transform="matrix(0.05,0,0,0.05,43,0)" xlink:href="#Y"/><use transform="matrix(0.05,0,0,0.05,48,0)" xlink:href="#R"/><use transform="matrix(0.05,0,0,0.05,51.95,0)" xlink:href="#af"/><use transform="matrix(0.05,0,0,0.05,61.95,0)" xlink:href="#Q"/></g><g id="B"><use transform="matrix(0.05,0,0,0.05,0,0)" xlink:href="#ab"/><use transform="matrix(0.05,0,0,0.05,12,0)" xlink:href="#ak"/><use transform="matrix(0.05,0,0,0.05,22,0)" xlink:href="#V"/><use transform="matrix(0.05,0,0,0.05,32,0)" xlink:href="#ak"/><use transform="matrix(0.05,0,0,0.05,42,0)" xlink:href="#V"/><use transform="matrix(0.05,0,0,0.05,52,0)" xlink:href="#Q"/><use transform="matrix(0.05,0,0,0.05,62,0)" xlink:href="#V"/></g><g id="C"><use transform="matrix(0.05,0,0,0.05,0,0)" xlink:href="#ai"/><use transform="matrix(0.05,0,0,0.05,12.950000000000001,0)" xlink:href="#Q"/><use transform="matrix(0.05,0,0,0.05,22.950000000000003,0)" xlink:href="#P"/><use transform="matrix(0.05,0,0,0.05,28.900000000000002,0)" xlink:href="#ag"/><use transform="matrix(0.05,0,0,0.05,38.900000000000006,0)" xlink:href="#Q"/><use transform="matrix(0.05,0,0,0.05,48.900000000000006,0)" xlink:href="#V"/></g><g id="D"><use transform="matrix(0.05,0,0,0.05,0,0)" xlink:href="#au"/><use transform="matrix(0.05,0,0,0.05,10,0)" xlink:href="#X"/><use transform="matrix(0.05,0,0,0.05,13.949999999999998,0)" xlink:href="#Q"/><use transform="matrix(0.05,0,0,0.05,23.95,0)" xlink:href="#R"/><use transform="matrix(0.05,0,0,0.05,27.899999999999995,0)" xlink:href="#au"/><use transform="matrix(0.05,0,0,0.05,37.9,0)" xlink:href="#Q"/><use transform="matrix(0.05,0,0,0.05,47.9,0)" xlink:href="#V"/></g><path fill="#c92d39" d="M103-251c84 0 111 97 45 133-19 10-37 24-39 52H78c0-63 77-55 77-114 0-30-21-42-52-43-32 0-53 17-56 46l-32-2c7-45 34-72 88-72zM77 0v-35h34V0H77" id="aL"/><use transform="matrix(0.3703703703703704,0,0,0.3703703703703704,0,0)" xlink:href="#aL" id="E"/><path d="M190 0L58-211 59 0H30v-248h39L202-35l-2-213h31V0h-41" id="aM"/><g id="F"><use transform="matrix(0.05,0,0,0.05,0,0)" xlink:href="#aM"/><use transform="matrix(0.05,0,0,0.05,12.950000000000001,0)" xlink:href="#ah"/><use transform="matrix(0.05,0,0,0.05,22.950000000000003,0)" xlink:href="#P"/></g><g id="G"><use transform="matrix(0.05,0,0,0.05,0,0)" xlink:href="#az"/><use transform="matrix(0.05,0,0,0.05,10.950000000000001,0)" xlink:href="#ak"/><use transform="matrix(0.05,0,0,0.05,20.950000000000003,0)" xlink:href="#R"/><use transform="matrix(0.05,0,0,0.05,24.900000000000002,0)" xlink:href="#P"/><use transform="matrix(0.05,0,0,0.05,30.85,0)" xlink:href="#Y"/><use transform="matrix(0.05,0,0,0.05,35.85,0)" xlink:href="#P"/><use transform="matrix(0.05,0,0,0.05,41.800000000000004,0)" xlink:href="#ak"/><use transform="matrix(0.05,0,0,0.05,51.800000000000004,0)" xlink:href="#ag"/><use transform="matrix(0.05,0,0,0.05,61.800000000000004,0)" xlink:href="#Q"/></g><g id="H"><use transform="matrix(0.05,0,0,0.05,0,0)" xlink:href="#R"/><use transform="matrix(0.05,0,0,0.05,3.95,0)" xlink:href="#aw"/></g><path d="M205 0l-28-72H64L36 0H1l101-248h38L239 0h-34zm-38-99l-47-123c-12 45-31 82-46 123h93" id="aN"/><g id="I"><use transform="matrix(0.05,0,0,0.05,0,0)" xlink:href="#aN"/><use transform="matrix(0.05,0,0,0.05,12,0)" xlink:href="#V"/><use transform="matrix(0.05,0,0,0.05,22,0)" xlink:href="#af"/><use transform="matrix(0.05,0,0,0.05,32,0)" xlink:href="#Q"/><use transform="matrix(0.05,0,0,0.05,42,0)" xlink:href="#au"/><use transform="matrix(0.05,0,0,0.05,52,0)" xlink:href="#U"/><use transform="matrix(0.05,0,0,0.05,62,0)" xlink:href="#Y"/></g><path d="M30 0v-248h187v28H63v79h144v27H63v87h162V0H30" id="aO"/><g id="J"><use transform="matrix(0.05,0,0,0.05,0,0)" xlink:href="#aO"/><use transform="matrix(0.05,0,0,0.05,12,0)" xlink:href="#R"/><use transform="matrix(0.05,0,0,0.05,15.949999999999998,0)" xlink:href="#af"/><use transform="matrix(0.05,0,0,0.05,25.950000000000003,0)" xlink:href="#Q"/><use transform="matrix(0.05,0,0,0.05,35.95,0)" xlink:href="#V"/><use transform="matrix(0.05,0,0,0.05,45.95,0)" xlink:href="#Q"/></g><path d="M240 0l2-218c-23 76-54 145-80 218h-23L58-218 59 0H30v-248h44l77 211c21-75 51-140 76-211h43V0h-30" id="aP"/><g id="K"><use transform="matrix(0.05,0,0,0.05,0,0)" xlink:href="#aP"/><use transform="matrix(0.05,0,0,0.05,14.950000000000001,0)" xlink:href="#ak"/><use transform="matrix(0.05,0,0,0.05,24.950000000000003,0)" xlink:href="#P"/><use transform="matrix(0.05,0,0,0.05,30.900000000000002,0)" xlink:href="#af"/><use transform="matrix(0.05,0,0,0.05,40.900000000000006,0)" xlink:href="#Q"/></g><g id="L"><use transform="matrix(0.05,0,0,0.05,0,0)" xlink:href="#af"/><use transform="matrix(0.05,0,0,0.05,10,0)" xlink:href="#Q"/><use transform="matrix(0.05,0,0,0.05,20,0)" xlink:href="#S"/><use transform="matrix(0.05,0,0,0.05,29,0)" xlink:href="#Q"/><use transform="matrix(0.05,0,0,0.05,39,0)" xlink:href="#V"/><use transform="matrix(0.05,0,0,0.05,49,0)" xlink:href="#T"/><use transform="matrix(0.05,0,0,0.05,58,0)" xlink:href="#Y"/></g><path d="M30 0v-248h33v221h125V0H30" id="aQ"/><g id="M"><use transform="matrix(0.05,0,0,0.05,0,0)" xlink:href="#aQ"/><use transform="matrix(0.05,0,0,0.05,10,0)" xlink:href="#Q"/><use transform="matrix(0.05,0,0,0.05,20,0)" xlink:href="#ah"/><use transform="matrix(0.05,0,0,0.05,30,0)" xlink:href="#Y"/><use transform="matrix(0.05,0,0,0.05,35,0)" xlink:href="#Q"/></g><g id="N"><use transform="matrix(0.05,0,0,0.05,0,0)" xlink:href="#T"/><use transform="matrix(0.05,0,0,0.05,9,0)" xlink:href="#ak"/><use transform="matrix(0.05,0,0,0.05,19,0)" xlink:href="#ah"/><use transform="matrix(0.05,0,0,0.05,29,0)" xlink:href="#W"/><use transform="matrix(0.05,0,0,0.05,34,0)" xlink:href="#Q"/><use transform="matrix(0.05,0,0,0.05,44,0)" xlink:href="#V"/></g></defs></g></svg>