<?xml version="1.0" encoding="UTF-8" standalone="no"?><!DOCTYPE svg PUBLIC "-//W3C//DTD SVG 1.1//EN" "http://www.w3.org/Graphics/SVG/1.1/DTD/svg11.dtd"><svg width="100%" height="100%" viewBox="0 0 800 600" version="1.1" xmlns="http://www.w3.org/2000/svg" xmlns:xlink="http://www.w3.org/1999/xlink" xml:space="preserve" style="fill-rule:evenodd;clip-rule:evenodd;stroke-linecap:round;stroke-linejoin:round;stroke-miterlimit:1.5;"><path d="M47,155l100,0l0,-100" style="fill:none;stroke:#304ffe;stroke-width:8px;"/><g><path d="M200,155l100,0l0,-100" style="fill:none;stroke:#304ffe;stroke-width:8px;"/><path d="M400,155l0,-100l-100,0" style="fill:none;stroke:#f5a623;stroke-width:8px;"/></g><g><g><path d="M563.645,28.934l-70.711,70.711l70.711,70.71" style="fill:none;stroke:#304ffe;stroke-width:8px;"/><path d="M422.223,170.355l70.711,70.711l70.711,-70.711" style="fill:none;stroke:#304ffe;stroke-width:8px;"/></g><g><path d="M563.645,28.934l70.71,70.711l70.711,-70.711" style="fill:none;stroke:#f5a623;stroke-width:8px;"/><path d="M705.066,170.355l70.711,-70.71l-70.711,-70.711" style="fill:none;stroke:#f5a623;stroke-width:8px;"/></g></g><g><g><g><path d="M332,480l0,-100l-100,0" style="fill:none;stroke:#304ffe;stroke-width:8px;"/><path d="M332,280l-100,0l0,100" style="fill:none;stroke:#304ffe;stroke-width:8px;"/></g><g><path d="M332,480l-100,0l0,100" style="fill:none;stroke:#304ffe;stroke-width:8px;"/><path d="M132,480l0,100l100,0" style="fill:none;stroke:#304ffe;stroke-width:8px;"/></g></g><g><path d="M532,280l-100,0l0,100" style="fill:none;stroke:#f5a623;stroke-width:8px;"/><path d="M332,280l0,100l100,0" style="fill:none;stroke:#f5a623;stroke-width:8px;"/></g><g><path d="M532,280l0,100l100,0" style="fill:none;stroke:#f5a623;stroke-width:8px;"/><path d="M532,480l100,0l0,-100" style="fill:none;stroke:#f5a623;stroke-width:8px;"/></g></g><path d="M93.368,130.199l0,-48.612c-2.272,1.812 -4.477,3.354 -6.614,4.625c-2.137,1.272 -5.072,2.57 -8.805,3.896l0,-6.817c5.924,-2.516 11.064,-5.776 15.419,-9.779l7.548,0l0,56.687l15.135,0l0,6.289l-38.102,0l0,-6.289l15.419,0Z" style="fill-rule:nonzero;"/><path d="M367.469,136.488l-38.103,0l0,-6.938c0,-1.786 0.365,-3.7 1.096,-5.742c0.73,-2.043 2.123,-4.335 4.179,-6.878c2.056,-2.543 4.234,-4.991 6.533,-7.345l4.302,-4.382c0.865,-0.893 2.759,-2.962 5.68,-6.209c2.922,-3.246 4.85,-5.735 5.783,-7.466c0.933,-1.731 1.4,-3.435 1.4,-5.113c0,-2.705 -1.082,-4.795 -3.246,-6.269c-2.165,-1.474 -4.599,-2.211 -7.304,-2.211c-1.542,0 -3.267,0.175 -5.174,0.527c-1.907,0.352 -3.578,0.764 -5.012,1.238c-1.433,0.473 -3.76,1.44 -6.979,2.901l0,-6.695c3.409,-1.624 6.824,-2.739 10.246,-3.348c3.422,-0.609 6.242,-0.913 8.46,-0.913c3.274,0 6.283,0.534 9.029,1.603c2.746,1.068 4.788,2.725 6.127,4.971c1.339,2.245 2.009,4.639 2.009,7.182c0,2.84 -0.859,5.748 -2.577,8.724c-1.718,2.976 -4.957,6.804 -9.718,11.484l-4.626,4.585l-3.896,3.814c-2.461,2.489 -4.45,4.897 -5.965,7.223c-1.514,2.327 -2.353,5.099 -2.515,8.319l30.271,0l0,6.938Z" style="fill-rule:nonzero;"/><path d="M611.204,185.352l0,-7.953c6.195,3.138 11.565,4.707 16.109,4.707c4.166,0 7.609,-1.265 10.327,-3.794c2.719,-2.529 4.078,-5.782 4.078,-9.759c0,-4.004 -1.494,-7.263 -4.483,-9.779c-2.99,-2.516 -8.069,-3.774 -15.237,-3.774l-4.18,0l0,-6.29l5.803,0c5.275,0 9.089,-1.183 11.443,-3.55c2.353,-2.367 3.53,-4.998 3.53,-7.893c0,-2.624 -0.96,-4.835 -2.881,-6.634c-1.921,-1.799 -4.869,-2.698 -8.846,-2.698c-4.464,0 -9.265,1.257 -14.405,3.773l0,-7.182c5.14,-1.921 9.847,-2.881 14.121,-2.881c7.656,0 12.937,1.508 15.846,4.524c2.908,3.017 4.362,6.459 4.362,10.327c0,2.868 -0.771,5.56 -2.313,8.075c-1.542,2.516 -4.383,4.762 -8.522,6.736c3.652,1.082 6.412,2.408 8.278,3.977c1.867,1.569 3.28,3.422 4.241,5.559c0.96,2.137 1.44,4.531 1.44,7.183c0,5.897 -2.184,10.766 -6.553,14.608c-4.369,3.841 -10.016,5.762 -16.941,5.762c-2.002,0 -4.187,-0.149 -6.554,-0.447c-2.367,-0.297 -5.255,-1.163 -8.663,-2.597Z" style="fill-rule:nonzero;"/><path d="M435.009,492.977l0,-17.611l-26.741,0l0,-6.33l26.741,-39.036l7.588,0l0,39.036l11.646,0l0,6.33l-11.646,0l0,17.611l-7.588,0Zm0,-23.941l0,-27.593l-18.707,27.593l18.707,0Z" style="fill-rule:nonzero;"/></svg>