<?xml version="1.0" standalone="no"?><!-- Generator: Gravit.io --><svg xmlns="http://www.w3.org/2000/svg" xmlns:xlink="http://www.w3.org/1999/xlink" style="isolation:isolate" viewBox="50.25 53.25 66.631 27.012" width="66.631" height="27.012"><g id="null"><rect x="90.619" y="54" width="8.504" height="8.504" transform="matrix(1,0,0,1,0,0)" fill="rgb(44,93,255)" vector-effect="non-scaling-stroke" stroke-width="0.5" stroke="rgb(0,0,0)" stroke-linejoin="miter" stroke-linecap="square" stroke-miterlimit="3"/><rect x="99.123" y="62.504" width="8.504" height="8.504" transform="matrix(1,0,0,1,0,0)" fill="rgb(44,93,255)" vector-effect="non-scaling-stroke" stroke-width="0.5" stroke="rgb(0,0,0)" stroke-linejoin="miter" stroke-linecap="square" stroke-miterlimit="3"/><rect x="107.627" y="71.008" width="8.504" height="8.504" transform="matrix(1,0,0,1,0,0)" fill="rgb(44,93,255)" vector-effect="non-scaling-stroke" stroke-width="0.5" stroke="rgb(0,0,0)" stroke-linejoin="miter" stroke-linecap="square" stroke-miterlimit="3"/><rect x="90.619" y="54" width="25.512" height="25.512" transform="matrix(1,0,0,1,0,0)" fill="rgb(235,235,235)"/><rect x="90.619" y="54" width="8.504" height="8.504" transform="matrix(1,0,0,1,0,0)" fill="rgb(44,93,255)" vector-effect="non-scaling-stroke" stroke-width="0.5" stroke="rgb(0,0,0)" stroke-linejoin="miter" stroke-linecap="square" stroke-miterlimit="3"/><rect x="99.123" y="71.008" width="8.504" height="8.504" transform="matrix(1,0,0,1,0,0)" fill="rgb(44,93,255)" vector-effect="non-scaling-stroke" stroke-width="0.5" stroke="rgb(0,0,0)" stroke-linejoin="miter" stroke-linecap="square" stroke-miterlimit="3"/><rect x="107.627" y="54" width="8.504" height="8.504" transform="matrix(1,0,0,1,0,0)" fill="rgb(44,93,255)" vector-effect="non-scaling-stroke" stroke-width="0.5" stroke="rgb(0,0,0)" stroke-linejoin="miter" stroke-linecap="square" stroke-miterlimit="3"/><rect x="99.123" y="62.504" width="8.504" height="8.504" transform="matrix(1,0,0,1,0,0)" fill="rgb(44,93,255)" vector-effect="non-scaling-stroke" stroke-width="0.5" stroke="rgb(0,0,0)" stroke-linejoin="miter" stroke-linecap="square" stroke-miterlimit="3"/><rect x="107.627" y="71.008" width="8.504" height="8.504" transform="matrix(1,0,0,1,0,0)" fill="rgb(44,93,255)" vector-effect="non-scaling-stroke" stroke-width="0.5" stroke="rgb(0,0,0)" stroke-linejoin="miter" stroke-linecap="square" stroke-miterlimit="3"/><rect x="90.619" y="62.504" width="8.504" height="8.504" transform="matrix(1,0,0,1,0,0)" fill="rgb(235,235,235)" vector-effect="non-scaling-stroke" stroke-width="0.5" stroke="rgb(0,0,0)" stroke-linejoin="miter" stroke-linecap="square" stroke-miterlimit="3"/><rect x="107.627" y="62.504" width="8.504" height="8.504" transform="matrix(1,0,0,1,0,0)" fill="rgb(235,235,235)" vector-effect="non-scaling-stroke" stroke-width="0.5" stroke="rgb(0,0,0)" stroke-linejoin="miter" stroke-linecap="square" stroke-miterlimit="3"/><rect x="107.627" y="54" width="8.504" height="8.504" transform="matrix(1,0,0,1,0,0)" fill="rgb(235,235,235)" vector-effect="non-scaling-stroke" stroke-width="0.5" stroke="rgb(0,0,0)" stroke-linejoin="miter" stroke-linecap="square" stroke-miterlimit="3"/><rect x="99.123" y="54" width="8.504" height="8.504" transform="matrix(1,0,0,1,0,0)" fill="rgb(235,235,235)" vector-effect="non-scaling-stroke" stroke-width="0.5" stroke="rgb(0,0,0)" stroke-linejoin="miter" stroke-linecap="square" stroke-miterlimit="3"/><rect x="90.619" y="71.008" width="8.504" height="8.504" transform="matrix(1,0,0,1,0,0)" fill="rgb(235,235,235)" vector-effect="non-scaling-stroke" stroke-width="0.5" stroke="rgb(0,0,0)" stroke-linejoin="miter" stroke-linecap="square" stroke-miterlimit="3"/><rect x="99.123" y="71.008" width="8.504" height="8.504" transform="matrix(1,0,0,1,0,0)" fill="rgb(235,235,235)" vector-effect="non-scaling-stroke" stroke-width="0.5" stroke="rgb(0,0,0)" stroke-linejoin="miter" stroke-linecap="square" stroke-miterlimit="3"/><rect x="51" y="54" width="25.512" height="25.512" transform="matrix(1,0,0,1,0,0)" fill="rgb(235,235,235)"/><rect x="90.619" y="54" width="25.512" height="25.512" transform="matrix(1,0,0,1,0,0)" fill="rgb(235,235,235)"/><rect x="51" y="54" width="8.504" height="8.504" transform="matrix(1,0,0,1,0,0)" fill="rgb(44,93,255)" vector-effect="non-scaling-stroke" stroke-width="0.5" stroke="rgb(0,0,0)" stroke-linejoin="miter" stroke-linecap="square" stroke-miterlimit="3"/><rect x="90.619" y="54" width="8.504" height="8.504" transform="matrix(1,0,0,1,0,0)" fill="rgb(44,93,255)" vector-effect="non-scaling-stroke" stroke-width="0.5" stroke="rgb(0,0,0)" stroke-linejoin="miter" stroke-linecap="square" stroke-miterlimit="3"/><rect x="59.504" y="62.504" width="8.504" height="8.504" transform="matrix(1,0,0,1,0,0)" fill="rgb(44,93,255)" vector-effect="non-scaling-stroke" stroke-width="0.5" stroke="rgb(0,0,0)" stroke-linejoin="miter" stroke-linecap="square" stroke-miterlimit="3"/><rect x="99.123" y="62.504" width="8.504" height="8.504" transform="matrix(1,0,0,1,0,0)" fill="rgb(44,93,255)" vector-effect="non-scaling-stroke" stroke-width="0.5" stroke="rgb(0,0,0)" stroke-linejoin="miter" stroke-linecap="square" stroke-miterlimit="3"/><rect x="51" y="62.504" width="8.504" height="8.504" transform="matrix(1,0,0,1,0,0)" fill="rgb(44,93,255)" vector-effect="non-scaling-stroke" stroke-width="0.5" stroke="rgb(0,0,0)" stroke-linejoin="miter" stroke-linecap="square" stroke-miterlimit="3"/><rect x="90.619" y="62.504" width="8.504" height="8.504" transform="matrix(1,0,0,1,0,0)" fill="rgb(44,93,255)" vector-effect="non-scaling-stroke" stroke-width="0.5" stroke="rgb(0,0,0)" stroke-linejoin="miter" stroke-linecap="square" stroke-miterlimit="3"/><rect x="59.504" y="71.008" width="8.504" height="8.504" transform="matrix(1,0,0,1,0,0)" fill="rgb(44,93,255)" vector-effect="non-scaling-stroke" stroke-width="0.5" stroke="rgb(0,0,0)" stroke-linejoin="miter" stroke-linecap="square" stroke-miterlimit="3"/><rect x="99.123" y="71.008" width="8.504" height="8.504" transform="matrix(1,0,0,1,0,0)" fill="rgb(44,93,255)" vector-effect="non-scaling-stroke" stroke-width="0.5" stroke="rgb(0,0,0)" stroke-linejoin="miter" stroke-linecap="square" stroke-miterlimit="3"/><rect x="59.504" y="54" width="8.504" height="8.504" transform="matrix(1,0,0,1,0,0)" fill="rgb(44,93,255)" vector-effect="non-scaling-stroke" stroke-width="0.5" stroke="rgb(0,0,0)" stroke-linejoin="miter" stroke-linecap="square" stroke-miterlimit="3"/><rect x="99.123" y="54" width="8.504" height="8.504" transform="matrix(1,0,0,1,0,0)" fill="rgb(44,93,255)" vector-effect="non-scaling-stroke" stroke-width="0.5" stroke="rgb(0,0,0)" stroke-linejoin="miter" stroke-linecap="square" stroke-miterlimit="3"/><rect x="68.008" y="54" width="8.504" height="8.504" transform="matrix(1,0,0,1,0,0)" fill="rgb(44,93,255)" vector-effect="non-scaling-stroke" stroke-width="0.5" stroke="rgb(0,0,0)" stroke-linejoin="miter" stroke-linecap="square" stroke-miterlimit="3"/><rect x="107.627" y="54" width="8.504" height="8.504" transform="matrix(1,0,0,1,0,0)" fill="rgb(44,93,255)" vector-effect="non-scaling-stroke" stroke-width="0.5" stroke="rgb(0,0,0)" stroke-linejoin="miter" stroke-linecap="square" stroke-miterlimit="3"/><rect x="51" y="54" width="8.504" height="8.504" transform="matrix(1,0,0,1,0,0)" fill="rgb(44,93,255)" vector-effect="non-scaling-stroke" stroke-width="0.5" stroke="rgb(0,0,0)" stroke-linejoin="miter" stroke-linecap="square" stroke-miterlimit="3"/><rect x="90.619" y="54" width="8.504" height="8.504" transform="matrix(1,0,0,1,0,0)" fill="rgb(44,93,255)" vector-effect="non-scaling-stroke" stroke-width="0.5" stroke="rgb(0,0,0)" stroke-linejoin="miter" stroke-linecap="square" stroke-miterlimit="3"/><rect x="68.008" y="71.008" width="8.504" height="8.504" transform="matrix(1,0,0,1,0,0)" fill="rgb(44,93,255)" vector-effect="non-scaling-stroke" stroke-width="0.5" stroke="rgb(0,0,0)" stroke-linejoin="miter" stroke-linecap="square" stroke-miterlimit="3"/><rect x="107.627" y="71.008" width="8.504" height="8.504" transform="matrix(1,0,0,1,0,0)" fill="rgb(44,93,255)" vector-effect="non-scaling-stroke" stroke-width="0.5" stroke="rgb(0,0,0)" stroke-linejoin="miter" stroke-linecap="square" stroke-miterlimit="3"/><rect x="68.008" y="54" width="8.504" height="8.504" transform="matrix(1,0,0,1,0,0)" fill="rgb(44,93,255)" vector-effect="non-scaling-stroke" stroke-width="0.5" stroke="rgb(0,0,0)" stroke-linejoin="miter" stroke-linecap="square" stroke-miterlimit="3"/><rect x="107.627" y="54" width="8.504" height="8.504" transform="matrix(1,0,0,1,0,0)" fill="rgb(44,93,255)" vector-effect="non-scaling-stroke" stroke-width="0.5" stroke="rgb(0,0,0)" stroke-linejoin="miter" stroke-linecap="square" stroke-miterlimit="3"/><rect x="68.008" y="62.504" width="8.504" height="8.504" transform="matrix(1,0,0,1,0,0)" fill="rgb(235,235,235)" vector-effect="non-scaling-stroke" stroke-width="0.5" stroke="rgb(0,0,0)" stroke-linejoin="miter" stroke-linecap="square" stroke-miterlimit="3"/><rect x="107.627" y="62.504" width="8.504" height="8.504" transform="matrix(1,0,0,1,0,0)" fill="rgb(235,235,235)" vector-effect="non-scaling-stroke" stroke-width="0.5" stroke="rgb(0,0,0)" stroke-linejoin="miter" stroke-linecap="square" stroke-miterlimit="3"/><rect x="51" y="71.008" width="8.504" height="8.504" transform="matrix(1,0,0,1,0,0)" fill="rgb(235,235,235)" vector-effect="non-scaling-stroke" stroke-width="0.5" stroke="rgb(0,0,0)" stroke-linejoin="miter" stroke-linecap="square" stroke-miterlimit="3"/><rect x="90.619" y="71.008" width="8.504" height="8.504" transform="matrix(1,0,0,1,0,0)" fill="rgb(235,235,235)" vector-effect="non-scaling-stroke" stroke-width="0.5" stroke="rgb(0,0,0)" stroke-linejoin="miter" stroke-linecap="square" stroke-miterlimit="3"/><g id="null"><line x1="78.504" y1="66.756" x2="87.054" y2="66.756" vector-effect="non-scaling-stroke" stroke-width="0.965" stroke="rgb(0,0,0)" stroke-linejoin="miter" stroke-linecap="square" stroke-miterlimit="3"/><polygon points="85.482,68.706,85.482,64.806,88.626,66.756" fill="rgb(0,0,0)" vector-effect="non-scaling-stroke" stroke-width="0.965" stroke="rgb(0,0,0)" stroke-linejoin="miter" stroke-linecap="square" stroke-miterlimit="3"/></g></g></svg>