<svg xmlns="http://www.w3.org/2000/svg" xmlns:xlink="http://www.w3.org/1999/xlink" xmlns:lucid="lucid" width="920" height="440"><g transform="translate(-140 20)" lucid:page-tab-id="0_0"><path d="M160 0h880v80H160z" stroke="#000" stroke-width="2" fill="#ef8d22"/><use xlink:href="#a" transform="matrix(1,0,0,1,165.0000000000001,5) translate(380.325 38.6)"/><use xlink:href="#b" transform="matrix(1,0,0,1,165.0000000000001,5) translate(464.175 38.6)"/><use xlink:href="#c" transform="matrix(1,0,0,1,165.0000000000001,5) translate(479.675 38.6)"/><path d="M160 160h414.12v80H160z" stroke="#000" stroke-width="2" fill="#ff8f80"/><use xlink:href="#d" transform="matrix(1,0,0,1,165,165) translate(163.075 38.6)"/><path d="M574.12 160h155.3v80H574.1z" stroke="#000" stroke-width="2" fill="#ffdba9"/><use xlink:href="#e" transform="matrix(1,0,0,1,579.1176470588235,165) translate(33.574999999999996 38.6)"/><path d="M729.4 160h155.3v80H729.4z" stroke="#000" stroke-width="2" fill="#ffc374"/><use xlink:href="#f" transform="matrix(1,0,0,1,734.4117647058825,165) translate(33.574999999999996 38.6)"/><path d="M884.7 160H1040v80H884.7z" stroke="#000" stroke-width="2" fill="#ffc374"/><use xlink:href="#f" transform="matrix(1,0,0,1,889.7058823529413,165) translate(33.574999999999996 38.6)"/><path d="M160 320h103.53v80H160z" stroke="#000" stroke-width="2" fill="#ffc374"/><use xlink:href="#f" transform="matrix(1,0,0,1,165,325) translate(7.574999999999996 38.6)"/><path d="M263.53 320h103.53v80H263.53z" stroke="#000" stroke-width="2" fill="#ffc374"/><use xlink:href="#f" transform="matrix(1,0,0,1,268.5294117647059,325) translate(7.574999999999996 38.6)"/><path d="M367.06 320H470.6v80H367.05z" stroke="#000" stroke-width="2" fill="#ffdba9"/><use xlink:href="#e" transform="matrix(1,0,0,1,372.0588235294117,325) translate(7.574999999999996 38.6)"/><path d="M470.6 320H574.1v80H470.6z" stroke="#000" stroke-width="2" fill="#ffc374"/><use xlink:href="#f" transform="matrix(1,0,0,1,475.58823529411757,325) translate(7.574999999999996 38.6)"/><path d="M203.22 319h-2v-34.87h2zm0-56.47h-2V241h2zM203.22 241h-2v-1h2z"/><path d="M202.22 319l-4.63-14.27h9.26z"/><path d="M202.95 320h-1.45l-5.3-16.27h12.04zm-4-14.27l3.27 10.03 3.26-10.03z"/><use xlink:href="#g" transform="matrix(1,0,0,1,197.22376009227216,262.5333333333333) translate(0 14.4)"/><path d="M225.96 319h-2v-28.2h2zm0-49.8h-2V241h2z"/><path d="M229.6 255.27h-9.28l4.64-14.27z"/><path d="M230.97 256.27h-12.02l5.28-16.27h1.46zm-9.27-2h6.52l-3.26-10.03zM225.96 320h-2v-1h2z"/><use xlink:href="#h" transform="matrix(1,0,0,1,219.959630911188,269.2) translate(0 14.4)"/><path d="M299.04 319h-2v-41.53h2zm0-63.13h-2V241h2zM299.04 241h-2v-1h2z"/><path d="M298.04 319l-4.64-14.27h9.27z"/><path d="M298.77 320h-1.46l-5.27-16.27h12.02zm-4-14.27l3.27 10.03 3.26-10.03z"/><use xlink:href="#i" transform="matrix(1,0,0,1,293.0392156862745,255.86666666666667) translate(0 14.4)"/><path d="M336.4 319h-2v-33.53h2zm0-55.13h-2V241h2zM336.4 320h-2v-1h2z"/><path d="M340.03 255.27h-9.27L335.4 241z"/><path d="M341.4 256.27h-12.02l5.28-16.27h1.46zm-9.27-2h6.52l-3.26-10.03z"/><use xlink:href="#h" transform="matrix(1,0,0,1,330.3910034602077,263.86766666666665) translate(0 14.4)"/><path d="M396.48 319h-2v-28.2h2zm0-49.8h-2V241h2zM396.48 241h-2v-1h2z"/><path d="M395.48 319l-4.64-14.27h9.27z"/><path d="M396.2 320h-1.45l-5.28-16.27h12.02zm-3.98-14.27l3.26 10.03 3.26-10.03z"/><use xlink:href="#j" transform="matrix(1,0,0,1,390.4786620530565,269.2) translate(0 14.4)"/><path d="M441.95 319h-2v-28.2h2zm0-49.8h-2V241h2zM441.95 320h-2v-1h2z"/><path d="M445.6 255.27h-9.28l4.63-14.27z"/><path d="M446.96 256.27h-12.02l5.28-16.27h1.46zm-9.27-2h6.5l-3.25-10.03z"/><use xlink:href="#k" transform="matrix(1,0,0,1,435.95040369088804,269.2) translate(0 14.4)"/><path d="M511.78 319h-2v-33.53h2zm0-55.13h-2V241h2zM511.78 241h-2v-1h2z"/><path d="M510.78 319l-4.63-14.27h9.27z"/><path d="M511.5 320h-1.44l-5.3-16.27h12.03zm-3.98-14.27l3.26 10.03 3.26-10.03z"/><use xlink:href="#l" transform="matrix(1,0,0,1,505.7820069204152,263.8666666666667) translate(0 14.4)"/><path d="M541 319h-2v-28.2h2zm0-49.8h-2V241h2zM541 320h-2v-1h2z"/><path d="M544.65 255.27h-9.27L540 241z"/><path d="M546.03 256.27H534l5.3-16.27h1.44zm-9.28-2h6.52L540 244.24z"/><use xlink:href="#k" transform="matrix(1,0,0,1,535.0138408304497,269.2) translate(0 14.4)"/><path d="M399.73 159h-2v-28.45h2zm0-50.05h-2V80.5h2zM399.73 160h-2v-1h2z"/><path d="M403.36 94.77h-9.27l4.63-14.27z"/><path d="M404.74 95.77H392.7L397.85 80h1.78zm-9.27-2H402l-3.27-10.03z"/><use xlink:href="#m" transform="matrix(1,0,0,1,393.72664359861596,108.95) translate(0 14.4)"/><path d="M328.27 159h-2v-28.45h2zm0-50.05h-2V80.5h2z"/><path d="M327.27 159l-4.63-14.27h9.27z"/><path d="M328 160h-1.46l-5.28-16.27h12.02zm-4-14.27l3.27 10.03 3.26-10.03zM328.27 80.5h-2V80h2z"/><use xlink:href="#n" transform="matrix(1,0,0,1,322.2710495963091,108.95) translate(0 14.4)"/><path d="M643.33 159h-2v-44.55h2zm0-66.15h-2V80.5h2zM643.33 80.5h-2V80h2z"/><path d="M642.33 159l-4.64-14.27h9.26z"/><path d="M643.05 160h-1.45l-5.3-16.27h12.04zm-3.98-14.27l3.26 10.03 3.25-10.03z"/><use xlink:href="#o" transform="matrix(1,0,0,1,637.3252595155709,92.8474358974359) translate(0 14.4)"/><path d="M660.38 159h-2v-24.74h2zm-.7-46.34h-2V80.5h2zM660.38 160h-2v-1h2z"/><path d="M663.3 94.77h-9.27l4.64-14.27z"/><path d="M664.68 95.77h-12.03L657.78 80h1.78zm-9.27-2h6.53l-3.26-10.03z"/><use xlink:href="#k" transform="matrix(1,0,0,1,654.3771626297578,112.65682873451038) translate(0 14.4)"/><path d="M794.36 159h-2v-40.53h2zm0-62.13h-2V80.5h2zM794.36 80.5h-2V80h2z"/><path d="M793.36 159l-4.64-14.27H798z"/><path d="M794.08 160h-1.45l-5.3-16.27h12.04zm-3.98-14.27l3.26 10.03 3.26-10.03z"/><use xlink:href="#p" transform="matrix(1,0,0,1,788.3564013840829,96.87307692307705) translate(0 14.4)"/><path d="M819.33 159h-2v-36.5h2zm0-58.1h-2V80.5h2zM819.33 160h-2v-1h2z"/><path d="M822.96 94.77h-9.27l4.63-14.27z"/><path d="M824.34 95.77H812.3L817.45 80h1.77zm-9.27-2h6.5l-3.24-10.03z"/><use xlink:href="#k" transform="matrix(1,0,0,1,813.3252595155709,100.89971794871782) translate(0 14.4)"/><path d="M952.7 159h-2v-43.2h2zm0-64.8h-2V80.5h2zM952.7 80.5h-2V80h2z"/><path d="M951.7 159l-4.64-14.27h9.27z"/><path d="M952.42 160h-1.45l-5.3-16.27h12.04zm-3.98-14.27l3.26 10.03 3.25-10.03z"/><use xlink:href="#q" transform="matrix(1,0,0,1,946.6955017301037,94.18931623931633) translate(0 14.4)"/><path d="M978.88 159h-2v-28.45h2zm0-50.05h-2V80.5h2zM978.88 160h-2v-1h2z"/><path d="M982.52 94.77h-9.27l4.63-14.27z"/><path d="M983.9 95.77h-12.03L977 80h1.77zm-9.28-2h6.52l-3.26-10.03z"/><g><use xlink:href="#k" transform="matrix(1,0,0,1,972.8823529411766,108.95) translate(0 14.4)"/></g><defs><path d="M106-169C34-169 62-67 57 0H25v-261h32l-1 103c12-21 28-36 61-36 89 0 53 116 60 194h-32v-121c2-32-8-49-39-48" id="r"/><path d="M100-194c62-1 85 37 85 99 1 63-27 99-86 99S16-35 15-95c0-66 28-99 85-99zM99-20c44 1 53-31 53-75 0-43-8-75-51-75s-53 32-53 75 10 74 51 75" id="s"/><path d="M101-234c-31-9-42 10-38 44h38v23H63V0H32v-167H5v-23h27c-7-52 17-82 69-68v24" id="t"/><path d="M233-177c-1 41-23 64-60 70L243 0h-38l-65-103H63V0H30v-248c88 3 205-21 203 71zM63-129c60-2 137 13 137-47 0-61-80-42-137-45v92" id="u"/><path d="M100-194c63 0 86 42 84 106H49c0 40 14 67 53 68 26 1 43-12 49-29l28 8c-11 28-37 45-77 45C44 4 14-33 15-96c1-61 26-98 85-98zm52 81c6-60-76-77-97-28-3 7-6 17-6 28h103" id="v"/><path d="M143 0L79-87 56-68V0H24v-261h32v163l83-92h37l-77 82L181 0h-38" id="w"/><path d="M87 75C49 33 22-17 22-94c0-76 28-126 65-167h31c-38 41-64 92-64 168S80 34 118 75H87" id="x"/><path d="M155-56V0h-30v-56H8v-25l114-167h33v167h35v25h-35zm-30-156c-27 46-58 90-88 131h88v-131" id="y"/><path d="M33-261c38 41 65 92 65 168S71 34 33 75H2C39 34 66-17 66-93S39-220 2-261h31" id="z"/><g id="a"><use transform="matrix(0.05,0,0,0.05,0,0)" xlink:href="#r"/><use transform="matrix(0.05,0,0,0.05,10,0)" xlink:href="#s"/><use transform="matrix(0.05,0,0,0.05,20,0)" xlink:href="#t"/><use transform="matrix(0.05,0,0,0.05,25,0)" xlink:href="#u"/><use transform="matrix(0.05,0,0,0.05,37.95,0)" xlink:href="#v"/><use transform="matrix(0.05,0,0,0.05,47.95,0)" xlink:href="#w"/><use transform="matrix(0.05,0,0,0.05,56.95,0)" xlink:href="#x"/><use transform="matrix(0.05,0,0,0.05,62.900000000000006,0)" xlink:href="#y"/><use transform="matrix(0.05,0,0,0.05,72.9,0)" xlink:href="#z"/></g><path fill="#fff" d="M15-148v-39h180v39H15zm0 97v-39h180v39H15" id="A"/><use transform="matrix(0.05,0,0,0.05,0,0)" xlink:href="#A" id="b"/><path fill="#fff" d="M182-182c0 78-84 86-111 141h115V0H12c-6-101 99-100 120-180 1-22-12-31-33-32-23 0-32 14-35 34l-49-3c5-45 32-70 84-70 51 0 83 22 83 69" id="B"/><use transform="matrix(0.05,0,0,0.05,0,0)" xlink:href="#B" id="c"/><path d="M126-127c33 6 58 20 58 59 0 88-139 92-164 29-3-8-5-16-6-25l32-3c6 27 21 44 54 44 32 0 52-15 52-46 0-38-36-46-79-43v-28c39 1 72-4 72-42 0-27-17-43-46-43-28 0-47 15-49 41l-32-3c6-42 35-63 81-64 48-1 79 21 79 65 0 36-21 52-52 59" id="C"/><g id="d"><use transform="matrix(0.05,0,0,0.05,0,0)" xlink:href="#r"/><use transform="matrix(0.05,0,0,0.05,10,0)" xlink:href="#s"/><use transform="matrix(0.05,0,0,0.05,20,0)" xlink:href="#t"/><use transform="matrix(0.05,0,0,0.05,25,0)" xlink:href="#u"/><use transform="matrix(0.05,0,0,0.05,37.95,0)" xlink:href="#v"/><use transform="matrix(0.05,0,0,0.05,47.95,0)" xlink:href="#w"/><use transform="matrix(0.05,0,0,0.05,56.95,0)" xlink:href="#x"/><use transform="matrix(0.05,0,0,0.05,62.900000000000006,0)" xlink:href="#C"/><use transform="matrix(0.05,0,0,0.05,72.9,0)" xlink:href="#z"/></g><path d="M27 0v-27h64v-190l-56 39v-29l58-41h29v221h61V0H27" id="D"/><g id="e"><use transform="matrix(0.05,0,0,0.05,0,0)" xlink:href="#r"/><use transform="matrix(0.05,0,0,0.05,10,0)" xlink:href="#s"/><use transform="matrix(0.05,0,0,0.05,20,0)" xlink:href="#t"/><use transform="matrix(0.05,0,0,0.05,25,0)" xlink:href="#u"/><use transform="matrix(0.05,0,0,0.05,37.95,0)" xlink:href="#v"/><use transform="matrix(0.05,0,0,0.05,47.95,0)" xlink:href="#w"/><use transform="matrix(0.05,0,0,0.05,56.95,0)" xlink:href="#x"/><use transform="matrix(0.05,0,0,0.05,62.900000000000006,0)" xlink:href="#D"/><use transform="matrix(0.05,0,0,0.05,72.9,0)" xlink:href="#z"/></g><path d="M101-251c82-7 93 87 43 132L82-64C71-53 59-42 53-27h129V0H18c2-99 128-94 128-182 0-28-16-43-45-43s-46 15-49 41l-32-3c6-41 34-60 81-64" id="E"/><g id="f"><use transform="matrix(0.05,0,0,0.05,0,0)" xlink:href="#r"/><use transform="matrix(0.05,0,0,0.05,10,0)" xlink:href="#s"/><use transform="matrix(0.05,0,0,0.05,20,0)" xlink:href="#t"/><use transform="matrix(0.05,0,0,0.05,25,0)" xlink:href="#u"/><use transform="matrix(0.05,0,0,0.05,37.95,0)" xlink:href="#v"/><use transform="matrix(0.05,0,0,0.05,47.95,0)" xlink:href="#w"/><use transform="matrix(0.05,0,0,0.05,56.95,0)" xlink:href="#x"/><use transform="matrix(0.05,0,0,0.05,62.900000000000006,0)" xlink:href="#E"/><use transform="matrix(0.05,0,0,0.05,72.9,0)" xlink:href="#z"/></g><path fill="#0c7cba" d="M101-251c82-7 93 87 43 132L82-64C71-53 59-42 53-27h129V0H18c2-99 128-94 128-182 0-28-16-43-45-43s-46 15-49 41l-32-3c6-41 34-60 81-64" id="F"/><use transform="matrix(0.05,0,0,0.05,0,0)" xlink:href="#F" id="g"/><path fill="#ef8d22" d="M23 0v-37h61v-169l-59 37v-38l62-41h46v211h57V0H23" id="G"/><use transform="matrix(0.05,0,0,0.05,0,0)" xlink:href="#G" id="h"/><path fill="#0c7cba" d="M126-127c33 6 58 20 58 59 0 88-139 92-164 29-3-8-5-16-6-25l32-3c6 27 21 44 54 44 32 0 52-15 52-46 0-38-36-46-79-43v-28c39 1 72-4 72-42 0-27-17-43-46-43-28 0-47 15-49 41l-32-3c6-42 35-63 81-64 48-1 79 21 79 65 0 36-21 52-52 59" id="H"/><use transform="matrix(0.05,0,0,0.05,0,0)" xlink:href="#H" id="i"/><path fill="#0c7cba" d="M155-56V0h-30v-56H8v-25l114-167h33v167h35v25h-35zm-30-156c-27 46-58 90-88 131h88v-131" id="I"/><use transform="matrix(0.05,0,0,0.05,0,0)" xlink:href="#I" id="j"/><path fill="#7ab648" d="M23 0v-37h61v-169l-59 37v-38l62-41h46v211h57V0H23" id="J"/><use transform="matrix(0.05,0,0,0.05,0,0)" xlink:href="#J" id="k"/><path fill="#0c7cba" d="M54-142c48-35 137-8 131 61C196 18 31 33 14-55l32-4c7 23 22 37 52 37 35-1 51-22 54-58 4-55-73-65-99-34H22l8-134h141v27H59" id="K"/><use transform="matrix(0.05,0,0,0.05,0,0)" xlink:href="#K" id="l"/><path fill="#7ab648" d="M101-251c82-7 93 87 43 132L82-64C71-53 59-42 53-27h129V0H18c2-99 128-94 128-182 0-28-16-43-45-43s-46 15-49 41l-32-3c6-41 34-60 81-64" id="L"/><use transform="matrix(0.05,0,0,0.05,0,0)" xlink:href="#L" id="m"/><path fill="#0c7cba" d="M27 0v-27h64v-190l-56 39v-29l58-41h29v221h61V0H27" id="M"/><use transform="matrix(0.05,0,0,0.05,0,0)" xlink:href="#M" id="n"/><path fill="#0c7cba" d="M110-160c48 1 74 30 74 79 0 53-28 85-80 85-65 0-83-55-86-122-5-90 50-162 133-122 14 7 22 21 27 39l-31 6c-5-40-67-38-82-6-9 19-15 44-15 74 11-20 30-34 60-33zm-7 138c34 0 49-23 49-58s-16-56-50-56c-29 0-50 16-49 49 1 36 15 65 50 65" id="N"/><use transform="matrix(0.05,0,0,0.05,0,0)" xlink:href="#N" id="o"/><path fill="#0c7cba" d="M64 0c3-98 48-159 88-221H18v-27h164v26C143-157 98-101 97 0H64" id="O"/><use transform="matrix(0.05,0,0,0.05,0,0)" xlink:href="#O" id="p"/><path fill="#0c7cba" d="M134-131c28 9 52 24 51 62-1 50-34 73-85 73S17-19 16-69c0-36 21-54 49-61-75-25-45-126 34-121 46 3 78 18 79 63 0 33-17 51-44 57zm-34-11c31 1 46-15 46-44 0-28-17-43-47-42-29 0-46 13-45 42 1 28 16 44 46 44zm1 122c35 0 51-18 51-52 0-30-18-46-53-46-33 0-51 17-51 47 0 34 19 51 53 51" id="P"/><use transform="matrix(0.05,0,0,0.05,0,0)" xlink:href="#P" id="q"/></defs></g></svg>