<?xml version="1.0" encoding="UTF-8" standalone="no"?><!DOCTYPE svg PUBLIC "-//W3C//DTD SVG 1.1//EN" "http://www.w3.org/Graphics/SVG/1.1/DTD/svg11.dtd"><svg width="100%" height="100%" viewBox="0 0 50 50" version="1.1" xmlns="http://www.w3.org/2000/svg" xmlns:xlink="http://www.w3.org/1999/xlink" xml:space="preserve" xmlns:serif="http://www.serif.com/" style="fill-rule:evenodd;clip-rule:evenodd;stroke-linejoin:round;stroke-miterlimit:1.41421;"><path d="M6.257,6.788l0,36.111c0,3.749 8.392,6.789 18.743,6.789l0,-42.9l-18.743,0Z" style="fill:#304ffe;fill-rule:nonzero;"/><path d="M24.743,49.687l0.257,0c10.351,0 18.743,-3.038 18.743,-6.788l0,-36.111l-19,0l0,42.899Z" style="fill:#4b66fe;fill-rule:nonzero;"/><path d="M43.743,6.788c0,3.749 -8.392,6.788 -18.743,6.788c-10.351,0 -18.743,-3.039 -18.743,-6.788c0,-3.749 8.392,-6.788 18.743,-6.788c10.351,0 18.743,3.039 18.743,6.788" style="fill:#fff;fill-rule:nonzero;"/><path d="M39.911,6.397c0,2.475 -6.676,4.479 -14.911,4.479c-8.235,0 -14.912,-2.004 -14.912,-4.479c0,-2.474 6.677,-4.479 14.912,-4.479c8.235,0 14.911,2.005 14.911,4.479" style="fill:#f5a623;fill-rule:nonzero;"/><path d="M36.787,9.134c1.952,-0.757 3.125,-1.705 3.125,-2.735c0,-2.475 -6.676,-4.48 -14.912,-4.48c-8.235,0 -14.911,2.005 -14.911,4.48c0,1.03 1.173,1.978 3.125,2.735c2.726,-1.058 6.986,-1.741 11.786,-1.741c4.801,0 9.059,0.683 11.787,1.741" style="fill:#f83e4b;fill-rule:nonzero;"/><path d="M19.047,31.854c0,1.122 -0.407,1.991 -1.221,2.607c-0.814,0.616 -1.938,0.924 -3.373,0.924c-1.221,0 -2.241,-0.22 -3.061,-0.66l0,-2.64c0.946,0.803 1.988,1.205 3.126,1.205c0.55,0 0.975,-0.11 1.275,-0.33c0.3,-0.22 0.45,-0.511 0.45,-0.875c0,-0.357 -0.144,-0.668 -0.433,-0.932c-0.289,-0.264 -0.876,-0.605 -1.761,-1.023c-1.804,-0.846 -2.706,-2.002 -2.706,-3.464c0,-1.061 0.393,-1.912 1.18,-2.553c0.786,-0.64 1.831,-0.961 3.134,-0.961c1.155,0 2.111,0.152 2.871,0.454l0,2.466c-0.797,-0.55 -1.705,-0.825 -2.722,-0.825c-0.511,0 -0.915,0.108 -1.212,0.325c-0.297,0.218 -0.445,0.508 -0.445,0.87c0,0.374 0.119,0.681 0.359,0.92c0.239,0.239 0.73,0.535 1.472,0.887c1.106,0.523 1.893,1.053 2.364,1.592c0.468,0.54 0.703,1.211 0.703,2.013Z" style="fill:#fff;fill-rule:nonzero;"/><path d="M31.774,29.182c0,1.391 -0.317,2.599 -0.949,3.621c-0.633,1.023 -1.523,1.74 -2.672,2.153l3.431,3.176l-3.464,0l-2.45,-2.747c-1.05,-0.038 -1.998,-0.316 -2.842,-0.833c-0.844,-0.516 -1.496,-1.225 -1.955,-2.124c-0.459,-0.899 -0.689,-1.902 -0.689,-3.007c0,-1.226 0.249,-2.319 0.746,-3.279c0.498,-0.96 1.197,-1.698 2.099,-2.215c0.902,-0.516 1.935,-0.775 3.102,-0.775c1.088,0 2.063,0.25 2.924,0.751c0.86,0.5 1.528,1.212 2.004,2.136c0.477,0.924 0.715,1.972 0.715,3.143Zm-2.804,0.149c0,-1.199 -0.261,-2.146 -0.784,-2.842c-0.523,-0.696 -1.237,-1.044 -2.145,-1.044c-0.924,0 -1.663,0.349 -2.219,1.047c-0.555,0.699 -0.833,1.628 -0.833,2.788c0,1.155 0.272,2.077 0.816,2.767c0.545,0.69 1.267,1.035 2.169,1.035c0.919,0 1.647,-0.334 2.186,-1.002c0.54,-0.667 0.81,-1.584 0.81,-2.749Z" style="fill:#fff;fill-rule:nonzero;"/><path d="M40.773,35.179l-7.044,0l0,-11.828l2.664,0l0,9.667l4.38,0l0,2.161Z" style="fill:#fff;fill-rule:nonzero;"/></svg>