<?xml version="1.0" encoding="UTF-8" standalone="no"?><!DOCTYPE svg PUBLIC "-//W3C//DTD SVG 1.1//EN" "http://www.w3.org/Graphics/SVG/1.1/DTD/svg11.dtd"><svg width="100%" height="100%" viewBox="0 0 800 600" version="1.1" xmlns="http://www.w3.org/2000/svg" xmlns:xlink="http://www.w3.org/1999/xlink" xml:space="preserve" style="fill-rule:evenodd;clip-rule:evenodd;stroke-linecap:round;stroke-linejoin:round;stroke-miterlimit:1.5;"><g><path d="M171.5,135.5l120,0" style="fill:none;stroke:#000;stroke-width:4px;"/><path d="M231.5,134.5l0,-100" style="fill:none;stroke:#000;stroke-width:6px;"/><rect x="181.5" y="111.5" width="100" height="21" style="fill:#f5a623;stroke:#000;stroke-width:1px;"/><rect x="191.5" y="88.5" width="80" height="21" style="fill:#d7d7d7;stroke:#000;stroke-width:1px;"/><rect x="201.5" y="65.5" width="60" height="21" style="fill:#d7d7d7;stroke:#000;stroke-width:1px;"/><rect x="211.5" y="42.5" width="40" height="21" style="fill:#d7d7d7;stroke:#000;stroke-width:1px;"/></g><g><path d="M508.5,278.5l120,0" style="fill:none;stroke:#000;stroke-width:4px;"/><path d="M568.5,277.5l0,-100" style="fill:none;stroke:#000;stroke-width:6px;"/><rect x="528.5" y="254.5" width="80" height="21" style="fill:#d7d7d7;stroke:#000;stroke-width:1px;"/><rect x="538.5" y="231.5" width="60" height="21" style="fill:#d7d7d7;stroke:#000;stroke-width:1px;"/><rect x="548.5" y="208.5" width="40" height="21" style="fill:#d7d7d7;stroke:#000;stroke-width:1px;"/></g><g><path d="M508.5,135.5l120,0" style="fill:none;stroke:#000;stroke-width:4px;"/><path d="M568.5,134.5l0,-100" style="fill:none;stroke:#000;stroke-width:6px;"/></g><g><path d="M347.5,135.5l120,0" style="fill:none;stroke:#000;stroke-width:4px;"/><path d="M407.5,134.5l0,-100" style="fill:none;stroke:#000;stroke-width:6px;"/></g><g><path d="M171.5,278.5l120,0" style="fill:none;stroke:#000;stroke-width:4px;"/><path d="M231.5,277.5l0,-100" style="fill:none;stroke:#000;stroke-width:6px;"/><rect x="181.5" y="254.5" width="100" height="21" style="fill:#f5a623;stroke:#000;stroke-width:1px;"/></g><g><path d="M347.5,278.5l120,0" style="fill:none;stroke:#000;stroke-width:4px;"/><path d="M407.5,277.5l0,-100" style="fill:none;stroke:#000;stroke-width:6px;"/></g><g><path d="M508.5,421.5l120,0" style="fill:none;stroke:#000;stroke-width:4px;"/><path d="M568.5,420.5l0,-100" style="fill:none;stroke:#000;stroke-width:6px;"/><rect x="528.5" y="397.5" width="80" height="21" style="fill:#d7d7d7;stroke:#000;stroke-width:1px;"/><rect x="538.5" y="374.5" width="60" height="21" style="fill:#d7d7d7;stroke:#000;stroke-width:1px;"/><rect x="548.5" y="351.5" width="40" height="21" style="fill:#d7d7d7;stroke:#000;stroke-width:1px;"/></g><g><path d="M171.5,421.5l120,0" style="fill:none;stroke:#000;stroke-width:4px;"/><path d="M231.5,420.5l0,-100" style="fill:none;stroke:#000;stroke-width:6px;"/></g><g><path d="M349.5,421.5l120,0" style="fill:none;stroke:#000;stroke-width:4px;"/><path d="M409.5,420.5l0,-100" style="fill:none;stroke:#000;stroke-width:6px;"/><rect x="359.5" y="397.5" width="100" height="21" style="fill:#f5a623;stroke:#000;stroke-width:1px;"/></g><g><path d="M171.5,564.5l120,0" style="fill:none;stroke:#000;stroke-width:4px;"/><path d="M231.5,563.5l0,-100" style="fill:none;stroke:#000;stroke-width:6px;"/></g><g><path d="M349.5,564.5l120,0" style="fill:none;stroke:#000;stroke-width:4px;"/><path d="M409.5,563.5l0,-100" style="fill:none;stroke:#000;stroke-width:6px;"/><rect x="359.5" y="540.5" width="100" height="21" style="fill:#f5a623;stroke:#000;stroke-width:1px;"/><rect x="369.5" y="517.5" width="80" height="21" style="fill:#d7d7d7;stroke:#000;stroke-width:1px;"/><rect x="379.5" y="494.5" width="60" height="21" style="fill:#d7d7d7;stroke:#000;stroke-width:1px;"/><rect x="389.5" y="471.5" width="40" height="21" style="fill:#d7d7d7;stroke:#000;stroke-width:1px;"/></g><g><path d="M508.5,564.5l120,0" style="fill:none;stroke:#000;stroke-width:4px;"/><path d="M568.5,563.5l0,-100" style="fill:none;stroke:#000;stroke-width:6px;"/></g><g><g><path d="M276.507,77.5l223.493,0" style="fill:none;stroke:#304ffe;stroke-width:2px;"/><path d="M517,77.5l-17,7.5l0,-15l17,7.5Z" style="fill:none;stroke:#304ffe;stroke-width:2px;"/></g><rect x="186" y="42.5" width="90.507" height="67" style="fill:none;stroke:#304ffe;stroke-width:2px;"/><g><path d="M522.493,384.5l-43.493,0" style="fill:none;stroke:#304ffe;stroke-width:2px;"/><path d="M462,384.5l17,-7.5l0,15l-17,-7.5Z" style="fill:none;stroke:#304ffe;stroke-width:2px;"/></g><rect x="522.493" y="352.5" width="90.507" height="67" style="fill:none;stroke:#304ffe;stroke-width:2px;"/></g><g><g><path d="M367,264.5l-17,7.5l0,-15l17,7.5Z" style="fill:none;stroke:#304ffe;stroke-width:2px;"/><path d="M288.788,265.103l60.596,0" style="fill:none;stroke:#304ffe;stroke-width:2px;"/></g><rect x="174" y="251.029" width="114.788" height="26.943" style="fill:none;stroke:#304ffe;stroke-width:2px;"/></g><g><path d="M234.578,150.173l-0.888,-2.04l-4.428,0l-0.876,2.04l-1.212,0l3.732,-8.4l1.2,0l3.72,8.4l-1.248,0Zm-4.86,-3.084l3.528,0l-1.776,-4.08l-1.752,4.08Z" style="fill-rule:nonzero;"/><path d="M407.74,141.773c0.856,0 1.53,0.186 2.022,0.558c0.492,0.372 0.738,0.886 0.738,1.542c0,0.48 -0.136,0.886 -0.408,1.218c-0.272,0.332 -0.644,0.554 -1.116,0.666c0.584,0.088 1.042,0.322 1.374,0.702c0.332,0.38 0.498,0.854 0.498,1.422c0,0.72 -0.27,1.282 -0.81,1.686c-0.54,0.404 -1.286,0.606 -2.238,0.606l-3.648,0l0,-8.4l3.588,0Zm-0.06,3.564c0.52,0 0.922,-0.11 1.206,-0.33c0.284,-0.22 0.426,-0.534 0.426,-0.942c0,-0.4 -0.142,-0.708 -0.426,-0.924c-0.284,-0.216 -0.686,-0.32 -1.206,-0.312l-2.376,0l0,2.508l2.376,0Zm0,3.78c0.624,0.008 1.112,-0.11 1.464,-0.354c0.352,-0.244 0.528,-0.586 0.528,-1.026c0,-0.424 -0.176,-0.756 -0.528,-0.996c-0.352,-0.24 -0.84,-0.36 -1.464,-0.36l-2.376,0l0,2.736l2.376,0Z" style="fill-rule:nonzero;"/><path d="M571.566,143.861c-0.32,-0.336 -0.692,-0.598 -1.116,-0.786c-0.424,-0.188 -0.86,-0.282 -1.308,-0.282c-0.592,0 -1.136,0.144 -1.632,0.432c-0.496,0.288 -0.888,0.678 -1.176,1.17c-0.288,0.492 -0.432,1.034 -0.432,1.626c0,0.584 0.144,1.124 0.432,1.62c0.288,0.496 0.68,0.888 1.176,1.176c0.496,0.288 1.04,0.432 1.632,0.432c0.44,0 0.872,-0.09 1.296,-0.27c0.424,-0.18 0.8,-0.426 1.128,-0.738l0.696,0.756c-0.424,0.416 -0.916,0.742 -1.476,0.978c-0.56,0.236 -1.128,0.354 -1.704,0.354c-0.8,0 -1.532,-0.19 -2.196,-0.57c-0.664,-0.38 -1.188,-0.898 -1.572,-1.554c-0.384,-0.656 -0.576,-1.38 -0.576,-2.172c0,-0.784 0.194,-1.502 0.582,-2.154c0.388,-0.652 0.918,-1.166 1.59,-1.542c0.672,-0.376 1.412,-0.564 2.22,-0.564c0.584,0 1.15,0.11 1.698,0.33c0.548,0.22 1.022,0.53 1.422,0.93l-0.684,0.828Z" style="fill-rule:nonzero;"/></g><g><path d="M234.578,292.645l-0.888,-2.04l-4.428,0l-0.876,2.04l-1.212,0l3.732,-8.4l1.2,0l3.72,8.4l-1.248,0Zm-4.86,-3.084l3.528,0l-1.776,-4.08l-1.752,4.08Z" style="fill-rule:nonzero;"/><path d="M407.74,284.245c0.856,0 1.53,0.186 2.022,0.558c0.492,0.372 0.738,0.886 0.738,1.542c0,0.48 -0.136,0.886 -0.408,1.218c-0.272,0.332 -0.644,0.554 -1.116,0.666c0.584,0.088 1.042,0.322 1.374,0.702c0.332,0.38 0.498,0.854 0.498,1.422c0,0.72 -0.27,1.282 -0.81,1.686c-0.54,0.404 -1.286,0.606 -2.238,0.606l-3.648,0l0,-8.4l3.588,0Zm-0.06,3.564c0.52,0 0.922,-0.11 1.206,-0.33c0.284,-0.22 0.426,-0.534 0.426,-0.942c0,-0.4 -0.142,-0.708 -0.426,-0.924c-0.284,-0.216 -0.686,-0.32 -1.206,-0.312l-2.376,0l0,2.508l2.376,0Zm0,3.78c0.624,0.008 1.112,-0.11 1.464,-0.354c0.352,-0.244 0.528,-0.586 0.528,-1.026c0,-0.424 -0.176,-0.756 -0.528,-0.996c-0.352,-0.24 -0.84,-0.36 -1.464,-0.36l-2.376,0l0,2.736l2.376,0Z" style="fill-rule:nonzero;"/><path d="M571.566,286.333c-0.32,-0.336 -0.692,-0.598 -1.116,-0.786c-0.424,-0.188 -0.86,-0.282 -1.308,-0.282c-0.592,0 -1.136,0.144 -1.632,0.432c-0.496,0.288 -0.888,0.678 -1.176,1.17c-0.288,0.492 -0.432,1.034 -0.432,1.626c0,0.584 0.144,1.124 0.432,1.62c0.288,0.496 0.68,0.888 1.176,1.176c0.496,0.288 1.04,0.432 1.632,0.432c0.44,0 0.872,-0.09 1.296,-0.27c0.424,-0.18 0.8,-0.426 1.128,-0.738l0.696,0.756c-0.424,0.416 -0.916,0.742 -1.476,0.978c-0.56,0.236 -1.128,0.354 -1.704,0.354c-0.8,0 -1.532,-0.19 -2.196,-0.57c-0.664,-0.38 -1.188,-0.898 -1.572,-1.554c-0.384,-0.656 -0.576,-1.38 -0.576,-2.172c0,-0.784 0.194,-1.502 0.582,-2.154c0.388,-0.652 0.918,-1.166 1.59,-1.542c0.672,-0.376 1.412,-0.564 2.22,-0.564c0.584,0 1.15,0.11 1.698,0.33c0.548,0.22 1.022,0.53 1.422,0.93l-0.684,0.828Z" style="fill-rule:nonzero;"/></g><g><path d="M234.578,436.173l-0.888,-2.04l-4.428,0l-0.876,2.04l-1.212,0l3.732,-8.4l1.2,0l3.72,8.4l-1.248,0Zm-4.86,-3.084l3.528,0l-1.776,-4.08l-1.752,4.08Z" style="fill-rule:nonzero;"/><path d="M407.74,427.773c0.856,0 1.53,0.186 2.022,0.558c0.492,0.372 0.738,0.886 0.738,1.542c0,0.48 -0.136,0.886 -0.408,1.218c-0.272,0.332 -0.644,0.554 -1.116,0.666c0.584,0.088 1.042,0.322 1.374,0.702c0.332,0.38 0.498,0.854 0.498,1.422c0,0.72 -0.27,1.282 -0.81,1.686c-0.54,0.404 -1.286,0.606 -2.238,0.606l-3.648,0l0,-8.4l3.588,0Zm-0.06,3.564c0.52,0 0.922,-0.11 1.206,-0.33c0.284,-0.22 0.426,-0.534 0.426,-0.942c0,-0.4 -0.142,-0.708 -0.426,-0.924c-0.284,-0.216 -0.686,-0.32 -1.206,-0.312l-2.376,0l0,2.508l2.376,0Zm0,3.78c0.624,0.008 1.112,-0.11 1.464,-0.354c0.352,-0.244 0.528,-0.586 0.528,-1.026c0,-0.424 -0.176,-0.756 -0.528,-0.996c-0.352,-0.24 -0.84,-0.36 -1.464,-0.36l-2.376,0l0,2.736l2.376,0Z" style="fill-rule:nonzero;"/><path d="M571.566,429.861c-0.32,-0.336 -0.692,-0.598 -1.116,-0.786c-0.424,-0.188 -0.86,-0.282 -1.308,-0.282c-0.592,0 -1.136,0.144 -1.632,0.432c-0.496,0.288 -0.888,0.678 -1.176,1.17c-0.288,0.492 -0.432,1.034 -0.432,1.626c0,0.584 0.144,1.124 0.432,1.62c0.288,0.496 0.68,0.888 1.176,1.176c0.496,0.288 1.04,0.432 1.632,0.432c0.44,0 0.872,-0.09 1.296,-0.27c0.424,-0.18 0.8,-0.426 1.128,-0.738l0.696,0.756c-0.424,0.416 -0.916,0.742 -1.476,0.978c-0.56,0.236 -1.128,0.354 -1.704,0.354c-0.8,0 -1.532,-0.19 -2.196,-0.57c-0.664,-0.38 -1.188,-0.898 -1.572,-1.554c-0.384,-0.656 -0.576,-1.38 -0.576,-2.172c0,-0.784 0.194,-1.502 0.582,-2.154c0.388,-0.652 0.918,-1.166 1.59,-1.542c0.672,-0.376 1.412,-0.564 2.22,-0.564c0.584,0 1.15,0.11 1.698,0.33c0.548,0.22 1.022,0.53 1.422,0.93l-0.684,0.828Z" style="fill-rule:nonzero;"/></g><g><path d="M234.578,578.645l-0.888,-2.04l-4.428,0l-0.876,2.04l-1.212,0l3.732,-8.4l1.2,0l3.72,8.4l-1.248,0Zm-4.86,-3.084l3.528,0l-1.776,-4.08l-1.752,4.08Z" style="fill-rule:nonzero;"/><path d="M407.74,570.245c0.856,0 1.53,0.186 2.022,0.558c0.492,0.372 0.738,0.886 0.738,1.542c0,0.48 -0.136,0.886 -0.408,1.218c-0.272,0.332 -0.644,0.554 -1.116,0.666c0.584,0.088 1.042,0.322 1.374,0.702c0.332,0.38 0.498,0.854 0.498,1.422c0,0.72 -0.27,1.282 -0.81,1.686c-0.54,0.404 -1.286,0.606 -2.238,0.606l-3.648,0l0,-8.4l3.588,0Zm-0.06,3.564c0.52,0 0.922,-0.11 1.206,-0.33c0.284,-0.22 0.426,-0.534 0.426,-0.942c0,-0.4 -0.142,-0.708 -0.426,-0.924c-0.284,-0.216 -0.686,-0.32 -1.206,-0.312l-2.376,0l0,2.508l2.376,0Zm0,3.78c0.624,0.008 1.112,-0.11 1.464,-0.354c0.352,-0.244 0.528,-0.586 0.528,-1.026c0,-0.424 -0.176,-0.756 -0.528,-0.996c-0.352,-0.24 -0.84,-0.36 -1.464,-0.36l-2.376,0l0,2.736l2.376,0Z" style="fill-rule:nonzero;"/><path d="M571.566,572.333c-0.32,-0.336 -0.692,-0.598 -1.116,-0.786c-0.424,-0.188 -0.86,-0.282 -1.308,-0.282c-0.592,0 -1.136,0.144 -1.632,0.432c-0.496,0.288 -0.888,0.678 -1.176,1.17c-0.288,0.492 -0.432,1.034 -0.432,1.626c0,0.584 0.144,1.124 0.432,1.62c0.288,0.496 0.68,0.888 1.176,1.176c0.496,0.288 1.04,0.432 1.632,0.432c0.44,0 0.872,-0.09 1.296,-0.27c0.424,-0.18 0.8,-0.426 1.128,-0.738l0.696,0.756c-0.424,0.416 -0.916,0.742 -1.476,0.978c-0.56,0.236 -1.128,0.354 -1.704,0.354c-0.8,0 -1.532,-0.19 -2.196,-0.57c-0.664,-0.38 -1.188,-0.898 -1.572,-1.554c-0.384,-0.656 -0.576,-1.38 -0.576,-2.172c0,-0.784 0.194,-1.502 0.582,-2.154c0.388,-0.652 0.918,-1.166 1.59,-1.542c0.672,-0.376 1.412,-0.564 2.22,-0.564c0.584,0 1.15,0.11 1.698,0.33c0.548,0.22 1.022,0.53 1.422,0.93l-0.684,0.828Z" style="fill-rule:nonzero;"/></g></svg>