<svg width="531" height="120" viewBox="0 0 531 120" fill="none" xmlns="http://www.w3.org/2000/svg">
<g clip-path="url(#clip0_4_15)">
<rect width="120" height="531" transform="matrix(0 -1 1 0 0 120)" fill="#ECA927"/>
<path d="M88.4865 45.016C87.2385 45.016 86.2625 45.424 85.5585 46.24C84.8545 47.04 84.5025 48.128 84.5025 49.504C84.5025 50.4 84.5585 51.264 84.6705 52.096C84.7825 52.928 84.9105 53.744 85.0545 54.544C85.1985 55.328 85.3265 56.112 85.4385 56.896C85.5505 57.68 85.6065 58.472 85.6065 59.272C85.6065 59.864 85.5185 60.424 85.3425 60.952C85.1665 61.464 84.9105 61.928 84.5745 62.344C84.2545 62.76 83.8705 63.12 83.4225 63.424C82.9905 63.712 82.5105 63.928 81.9825 64.072C82.5105 64.216 82.9905 64.432 83.4225 64.72C83.8705 65.008 84.2545 65.36 84.5745 65.776C84.9105 66.192 85.1665 66.664 85.3425 67.192C85.5185 67.704 85.6065 68.256 85.6065 68.848C85.6065 69.648 85.5505 70.44 85.4385 71.224C85.3265 72.008 85.1985 72.8 85.0545 73.6C84.9105 74.384 84.7825 75.192 84.6705 76.024C84.5585 76.856 84.5025 77.72 84.5025 78.616C84.5025 80.008 84.8545 81.104 85.5585 81.904C86.2625 82.704 87.2385 83.104 88.4865 83.104H88.9665C89.1585 83.104 89.3665 83.176 89.5905 83.32C89.8145 83.464 89.9265 83.696 89.9265 84.016V85.936H88.6305C87.3345 85.936 86.1905 85.744 85.1985 85.36C84.2225 84.992 83.3985 84.472 82.7265 83.8C82.0705 83.128 81.5745 82.328 81.2385 81.4C80.9185 80.472 80.7585 79.456 80.7585 78.352C80.7585 77.52 80.8225 76.712 80.9505 75.928C81.0785 75.128 81.2145 74.336 81.3585 73.552C81.5025 72.752 81.6385 71.96 81.7665 71.176C81.8945 70.392 81.9585 69.6 81.9585 68.8C81.9585 67.792 81.6785 66.968 81.1185 66.328C80.5585 65.672 79.7505 65.344 78.6945 65.344V62.776C79.7505 62.776 80.5585 62.456 81.1185 61.816C81.6785 61.176 81.9585 60.344 81.9585 59.32C81.9585 58.52 81.8945 57.728 81.7665 56.944C81.6385 56.16 81.5025 55.376 81.3585 54.592C81.2145 53.808 81.0785 53.016 80.9505 52.216C80.8225 51.416 80.7585 50.6 80.7585 49.768C80.7585 48.664 80.9185 47.648 81.2385 46.72C81.5745 45.792 82.0705 44.992 82.7265 44.32C83.3985 43.648 84.2225 43.128 85.1985 42.76C86.1905 42.392 87.3345 42.208 88.6305 42.208H89.9265V44.104C89.9265 44.424 89.8145 44.656 89.5905 44.8C89.3665 44.944 89.1585 45.016 88.9665 45.016H88.4865ZM124.18 44.608L110.164 79H105.988L91.9721 44.608H95.6921C96.1081 44.608 96.4441 44.712 96.7001 44.92C96.9561 45.128 97.1481 45.392 97.2761 45.712L106.972 69.976C107.18 70.52 107.38 71.112 107.572 71.752C107.78 72.392 107.964 73.064 108.124 73.768C108.284 73.064 108.452 72.392 108.628 71.752C108.804 71.112 108.996 70.52 109.204 69.976L118.876 45.712C118.972 45.44 119.156 45.192 119.428 44.968C119.716 44.728 120.06 44.608 120.46 44.608H124.18ZM140.359 64.192C140.359 63.2 140.215 62.296 139.927 61.48C139.655 60.648 139.247 59.936 138.703 59.344C138.175 58.736 137.527 58.272 136.759 57.952C135.991 57.616 135.119 57.448 134.143 57.448C132.095 57.448 130.471 58.048 129.271 59.248C128.087 60.432 127.351 62.08 127.063 64.192H140.359ZM143.815 75.592C143.287 76.232 142.655 76.792 141.919 77.272C141.183 77.736 140.391 78.12 139.543 78.424C138.711 78.728 137.847 78.952 136.951 79.096C136.055 79.256 135.167 79.336 134.287 79.336C132.607 79.336 131.055 79.056 129.631 78.496C128.223 77.92 126.999 77.088 125.959 76C124.935 74.896 124.135 73.536 123.559 71.92C122.983 70.304 122.695 68.448 122.695 66.352C122.695 64.656 122.951 63.072 123.463 61.6C123.991 60.128 124.743 58.856 125.719 57.784C126.695 56.696 127.887 55.848 129.295 55.24C130.703 54.616 132.287 54.304 134.047 54.304C135.503 54.304 136.847 54.552 138.079 55.048C139.327 55.528 140.399 56.232 141.295 57.16C142.207 58.072 142.919 59.208 143.431 60.568C143.943 61.912 144.199 63.448 144.199 65.176C144.199 65.848 144.127 66.296 143.983 66.52C143.839 66.744 143.567 66.856 143.167 66.856H126.919C126.967 68.392 127.175 69.728 127.543 70.864C127.927 72 128.455 72.952 129.127 73.72C129.799 74.472 130.599 75.04 131.527 75.424C132.455 75.792 133.495 75.976 134.647 75.976C135.719 75.976 136.639 75.856 137.407 75.616C138.191 75.36 138.863 75.088 139.423 74.8C139.983 74.512 140.447 74.248 140.815 74.008C141.199 73.752 141.527 73.624 141.799 73.624C142.151 73.624 142.423 73.76 142.615 74.032L143.815 75.592ZM153.503 59.56C154.271 57.896 155.215 56.6 156.335 55.672C157.455 54.728 158.823 54.256 160.439 54.256C160.951 54.256 161.439 54.312 161.903 54.424C162.383 54.536 162.807 54.712 163.175 54.952L162.863 58.144C162.767 58.544 162.527 58.744 162.143 58.744C161.919 58.744 161.591 58.696 161.159 58.6C160.727 58.504 160.239 58.456 159.695 58.456C158.927 58.456 158.239 58.568 157.631 58.792C157.039 59.016 156.503 59.352 156.023 59.8C155.559 60.232 155.135 60.776 154.751 61.432C154.383 62.072 154.047 62.808 153.743 63.64V79H149.447V54.688H151.895C152.359 54.688 152.679 54.776 152.855 54.952C153.031 55.128 153.151 55.432 153.215 55.864L153.503 59.56ZM180.95 58.696C180.758 59.048 180.462 59.224 180.062 59.224C179.822 59.224 179.55 59.136 179.246 58.96C178.942 58.784 178.566 58.592 178.118 58.384C177.686 58.16 177.166 57.96 176.558 57.784C175.95 57.592 175.23 57.496 174.398 57.496C173.678 57.496 173.03 57.592 172.454 57.784C171.878 57.96 171.382 58.208 170.966 58.528C170.566 58.848 170.254 59.224 170.03 59.656C169.822 60.072 169.718 60.528 169.718 61.024C169.718 61.648 169.894 62.168 170.246 62.584C170.614 63 171.094 63.36 171.686 63.664C172.278 63.968 172.95 64.24 173.702 64.48C174.454 64.704 175.222 64.952 176.006 65.224C176.806 65.48 177.582 65.768 178.334 66.088C179.086 66.408 179.758 66.808 180.35 67.288C180.942 67.768 181.414 68.36 181.766 69.064C182.134 69.752 182.318 70.584 182.318 71.56C182.318 72.68 182.118 73.72 181.718 74.68C181.318 75.624 180.726 76.448 179.942 77.152C179.158 77.84 178.198 78.384 177.062 78.784C175.926 79.184 174.614 79.384 173.126 79.384C171.43 79.384 169.894 79.112 168.518 78.568C167.142 78.008 165.974 77.296 165.014 76.432L166.022 74.8C166.15 74.592 166.302 74.432 166.478 74.32C166.654 74.208 166.878 74.152 167.15 74.152C167.438 74.152 167.742 74.264 168.062 74.488C168.382 74.712 168.766 74.96 169.214 75.232C169.678 75.504 170.238 75.752 170.894 75.976C171.55 76.2 172.366 76.312 173.342 76.312C174.174 76.312 174.902 76.208 175.526 76C176.15 75.776 176.67 75.48 177.086 75.112C177.502 74.744 177.806 74.32 177.998 73.84C178.206 73.36 178.31 72.848 178.31 72.304C178.31 71.632 178.126 71.08 177.758 70.648C177.406 70.2 176.934 69.824 176.342 69.52C175.75 69.2 175.07 68.928 174.302 68.704C173.55 68.464 172.774 68.216 171.974 67.96C171.19 67.704 170.414 67.416 169.646 67.096C168.894 66.76 168.222 66.344 167.63 65.848C167.038 65.352 166.558 64.744 166.19 64.024C165.838 63.288 165.662 62.4 165.662 61.36C165.662 60.432 165.854 59.544 166.238 58.696C166.622 57.832 167.182 57.08 167.918 56.44C168.654 55.784 169.558 55.264 170.63 54.88C171.702 54.496 172.926 54.304 174.302 54.304C175.902 54.304 177.334 54.56 178.598 55.072C179.878 55.568 180.982 56.256 181.91 57.136L180.95 58.696ZM192.068 54.688V79H187.796V54.688H192.068ZM192.98 47.056C192.98 47.472 192.892 47.864 192.716 48.232C192.556 48.584 192.332 48.904 192.044 49.192C191.772 49.464 191.444 49.68 191.06 49.84C190.692 50 190.3 50.08 189.884 50.08C189.468 50.08 189.076 50 188.708 49.84C188.356 49.68 188.044 49.464 187.772 49.192C187.5 48.904 187.284 48.584 187.124 48.232C186.964 47.864 186.884 47.472 186.884 47.056C186.884 46.64 186.964 46.248 187.124 45.88C187.284 45.496 187.5 45.168 187.772 44.896C188.044 44.608 188.356 44.384 188.708 44.224C189.076 44.064 189.468 43.984 189.884 43.984C190.3 43.984 190.692 44.064 191.06 44.224C191.444 44.384 191.772 44.608 192.044 44.896C192.332 45.168 192.556 45.496 192.716 45.88C192.892 46.248 192.98 46.64 192.98 47.056ZM209.335 54.304C211.111 54.304 212.711 54.6 214.135 55.192C215.559 55.784 216.775 56.624 217.783 57.712C218.791 58.8 219.559 60.12 220.087 61.672C220.631 63.208 220.903 64.928 220.903 66.832C220.903 68.752 220.631 70.48 220.087 72.016C219.559 73.552 218.791 74.864 217.783 75.952C216.775 77.04 215.559 77.88 214.135 78.472C212.711 79.048 211.111 79.336 209.335 79.336C207.543 79.336 205.927 79.048 204.487 78.472C203.063 77.88 201.847 77.04 200.839 75.952C199.831 74.864 199.055 73.552 198.511 72.016C197.983 70.48 197.719 68.752 197.719 66.832C197.719 64.928 197.983 63.208 198.511 61.672C199.055 60.12 199.831 58.8 200.839 57.712C201.847 56.624 203.063 55.784 204.487 55.192C205.927 54.6 207.543 54.304 209.335 54.304ZM209.335 76C211.735 76 213.527 75.2 214.711 73.6C215.895 71.984 216.487 69.736 216.487 66.856C216.487 63.96 215.895 61.704 214.711 60.088C213.527 58.472 211.735 57.664 209.335 57.664C208.119 57.664 207.055 57.872 206.143 58.288C205.247 58.704 204.495 59.304 203.887 60.088C203.295 60.872 202.847 61.84 202.543 62.992C202.255 64.128 202.111 65.416 202.111 66.856C202.111 69.736 202.703 71.984 203.887 73.6C205.087 75.2 206.903 76 209.335 76ZM230.354 58.216C230.882 57.624 231.442 57.088 232.034 56.608C232.626 56.128 233.25 55.72 233.906 55.384C234.578 55.032 235.282 54.768 236.018 54.592C236.77 54.4 237.578 54.304 238.442 54.304C239.77 54.304 240.938 54.528 241.946 54.976C242.97 55.408 243.818 56.032 244.49 56.848C245.178 57.648 245.698 58.616 246.05 59.752C246.402 60.888 246.578 62.144 246.578 63.52V79H242.282V63.52C242.282 61.68 241.858 60.256 241.01 59.248C240.178 58.224 238.906 57.712 237.194 57.712C235.93 57.712 234.746 58.016 233.642 58.624C232.554 59.232 231.546 60.056 230.618 61.096V79H226.322V54.688H228.89C229.498 54.688 229.874 54.984 230.018 55.576L230.354 58.216ZM252.367 76.36C252.367 75.944 252.439 75.552 252.583 75.184C252.743 74.816 252.951 74.496 253.207 74.224C253.479 73.952 253.799 73.736 254.167 73.576C254.535 73.416 254.927 73.336 255.343 73.336C255.759 73.336 256.151 73.416 256.519 73.576C256.887 73.736 257.207 73.952 257.479 74.224C257.751 74.496 257.967 74.816 258.127 75.184C258.287 75.552 258.367 75.944 258.367 76.36C258.367 76.792 258.287 77.192 258.127 77.56C257.967 77.912 257.751 78.224 257.479 78.496C257.207 78.768 256.887 78.976 256.519 79.12C256.151 79.28 255.759 79.36 255.343 79.36C254.927 79.36 254.535 79.28 254.167 79.12C253.799 78.976 253.479 78.768 253.207 78.496C252.951 78.224 252.743 77.912 252.583 77.56C252.439 77.192 252.367 76.792 252.367 76.36ZM288.458 71.896C288.714 71.896 288.938 72 289.13 72.208L290.978 74.2C289.57 75.832 287.858 77.104 285.842 78.016C283.842 78.928 281.418 79.384 278.57 79.384C276.106 79.384 273.866 78.96 271.85 78.112C269.834 77.248 268.114 76.048 266.69 74.512C265.266 72.96 264.162 71.104 263.378 68.944C262.594 66.784 262.202 64.408 262.202 61.816C262.202 59.224 262.61 56.848 263.426 54.688C264.242 52.528 265.386 50.672 266.858 49.12C268.346 47.568 270.122 46.368 272.186 45.52C274.25 44.656 276.53 44.224 279.026 44.224C281.474 44.224 283.634 44.616 285.506 45.4C287.378 46.184 289.026 47.248 290.45 48.592L288.914 50.728C288.818 50.888 288.69 51.024 288.53 51.136C288.386 51.232 288.186 51.28 287.93 51.28C287.642 51.28 287.29 51.128 286.874 50.824C286.458 50.504 285.914 50.152 285.242 49.768C284.57 49.384 283.73 49.04 282.722 48.736C281.714 48.416 280.474 48.256 279.002 48.256C277.226 48.256 275.602 48.568 274.13 49.192C272.658 49.8 271.386 50.688 270.314 51.856C269.258 53.024 268.434 54.448 267.842 56.128C267.25 57.808 266.954 59.704 266.954 61.816C266.954 63.96 267.258 65.872 267.866 67.552C268.49 69.232 269.33 70.656 270.386 71.824C271.458 72.976 272.714 73.856 274.154 74.464C275.61 75.072 277.178 75.376 278.858 75.376C279.882 75.376 280.802 75.32 281.618 75.208C282.45 75.08 283.21 74.888 283.898 74.632C284.602 74.376 285.25 74.056 285.842 73.672C286.45 73.272 287.05 72.8 287.642 72.256C287.914 72.016 288.186 71.896 288.458 71.896ZM308.544 68.056C306.576 68.12 304.896 68.28 303.504 68.536C302.128 68.776 301 69.096 300.12 69.496C299.256 69.896 298.624 70.368 298.224 70.912C297.84 71.456 297.648 72.064 297.648 72.736C297.648 73.376 297.752 73.928 297.96 74.392C298.168 74.856 298.448 75.24 298.8 75.544C299.168 75.832 299.592 76.048 300.072 76.192C300.568 76.32 301.096 76.384 301.656 76.384C302.408 76.384 303.096 76.312 303.72 76.168C304.344 76.008 304.928 75.784 305.472 75.496C306.032 75.208 306.56 74.864 307.056 74.464C307.568 74.064 308.064 73.608 308.544 73.096V68.056ZM294.744 58.12C296.088 56.824 297.536 55.856 299.088 55.216C300.64 54.576 302.36 54.256 304.248 54.256C305.608 54.256 306.816 54.48 307.872 54.928C308.928 55.376 309.816 56 310.536 56.8C311.256 57.6 311.8 58.568 312.168 59.704C312.536 60.84 312.72 62.088 312.72 63.448V79H310.824C310.408 79 310.088 78.936 309.864 78.808C309.64 78.664 309.464 78.392 309.336 77.992L308.856 75.688C308.216 76.28 307.592 76.808 306.984 77.272C306.376 77.72 305.736 78.104 305.064 78.424C304.392 78.728 303.672 78.96 302.904 79.12C302.152 79.296 301.312 79.384 300.384 79.384C299.44 79.384 298.552 79.256 297.72 79C296.888 78.728 296.16 78.328 295.536 77.8C294.928 77.272 294.44 76.608 294.072 75.808C293.72 74.992 293.544 74.032 293.544 72.928C293.544 71.968 293.808 71.048 294.336 70.168C294.864 69.272 295.72 68.48 296.904 67.792C298.088 67.104 299.632 66.544 301.536 66.112C303.44 65.664 305.776 65.408 308.544 65.344V63.448C308.544 61.56 308.136 60.136 307.32 59.176C306.504 58.2 305.312 57.712 303.744 57.712C302.688 57.712 301.8 57.848 301.08 58.12C300.376 58.376 299.76 58.672 299.232 59.008C298.72 59.328 298.272 59.624 297.888 59.896C297.52 60.152 297.152 60.28 296.784 60.28C296.496 60.28 296.248 60.208 296.04 60.064C295.832 59.904 295.656 59.712 295.512 59.488L294.744 58.12ZM326.364 79.384C324.444 79.384 322.964 78.848 321.924 77.776C320.9 76.704 320.388 75.16 320.388 73.144V58.264H317.46C317.204 58.264 316.988 58.192 316.812 58.048C316.636 57.888 316.548 57.648 316.548 57.328V55.624L320.532 55.12L321.516 47.608C321.564 47.368 321.668 47.176 321.828 47.032C322.004 46.872 322.228 46.792 322.5 46.792H324.66V55.168H331.692V58.264H324.66V72.856C324.66 73.88 324.908 74.64 325.404 75.136C325.9 75.632 326.54 75.88 327.324 75.88C327.772 75.88 328.156 75.824 328.476 75.712C328.812 75.584 329.1 75.448 329.34 75.304C329.58 75.16 329.78 75.032 329.94 74.92C330.116 74.792 330.268 74.728 330.396 74.728C330.62 74.728 330.82 74.864 330.996 75.136L332.244 77.176C331.508 77.864 330.62 78.408 329.58 78.808C328.54 79.192 327.468 79.384 326.364 79.384ZM349.279 68.056C347.311 68.12 345.631 68.28 344.239 68.536C342.863 68.776 341.735 69.096 340.855 69.496C339.991 69.896 339.359 70.368 338.959 70.912C338.575 71.456 338.383 72.064 338.383 72.736C338.383 73.376 338.487 73.928 338.695 74.392C338.903 74.856 339.183 75.24 339.535 75.544C339.903 75.832 340.327 76.048 340.807 76.192C341.303 76.32 341.831 76.384 342.391 76.384C343.143 76.384 343.831 76.312 344.455 76.168C345.079 76.008 345.663 75.784 346.207 75.496C346.767 75.208 347.295 74.864 347.791 74.464C348.303 74.064 348.799 73.608 349.279 73.096V68.056ZM335.479 58.12C336.823 56.824 338.271 55.856 339.823 55.216C341.375 54.576 343.095 54.256 344.983 54.256C346.343 54.256 347.551 54.48 348.607 54.928C349.663 55.376 350.551 56 351.271 56.8C351.991 57.6 352.535 58.568 352.903 59.704C353.271 60.84 353.455 62.088 353.455 63.448V79H351.559C351.143 79 350.823 78.936 350.599 78.808C350.375 78.664 350.199 78.392 350.071 77.992L349.591 75.688C348.951 76.28 348.327 76.808 347.719 77.272C347.111 77.72 346.471 78.104 345.799 78.424C345.127 78.728 344.407 78.96 343.639 79.12C342.887 79.296 342.047 79.384 341.119 79.384C340.175 79.384 339.287 79.256 338.455 79C337.623 78.728 336.895 78.328 336.271 77.8C335.663 77.272 335.175 76.608 334.807 75.808C334.455 74.992 334.279 74.032 334.279 72.928C334.279 71.968 334.543 71.048 335.071 70.168C335.599 69.272 336.455 68.48 337.639 67.792C338.823 67.104 340.367 66.544 342.271 66.112C344.175 65.664 346.511 65.408 349.279 65.344V63.448C349.279 61.56 348.871 60.136 348.055 59.176C347.239 58.2 346.047 57.712 344.479 57.712C343.423 57.712 342.535 57.848 341.815 58.12C341.111 58.376 340.495 58.672 339.967 59.008C339.455 59.328 339.007 59.624 338.623 59.896C338.255 60.152 337.887 60.28 337.519 60.28C337.231 60.28 336.983 60.208 336.775 60.064C336.567 59.904 336.391 59.712 336.247 59.488L335.479 58.12ZM364.378 43.648V79H360.106V43.648H364.378ZM381.554 54.304C383.33 54.304 384.93 54.6 386.354 55.192C387.778 55.784 388.994 56.624 390.002 57.712C391.01 58.8 391.778 60.12 392.306 61.672C392.85 63.208 393.122 64.928 393.122 66.832C393.122 68.752 392.85 70.48 392.306 72.016C391.778 73.552 391.01 74.864 390.002 75.952C388.994 77.04 387.778 77.88 386.354 78.472C384.93 79.048 383.33 79.336 381.554 79.336C379.762 79.336 378.146 79.048 376.706 78.472C375.282 77.88 374.066 77.04 373.058 75.952C372.05 74.864 371.274 73.552 370.73 72.016C370.202 70.48 369.938 68.752 369.938 66.832C369.938 64.928 370.202 63.208 370.73 61.672C371.274 60.12 372.05 58.8 373.058 57.712C374.066 56.624 375.282 55.784 376.706 55.192C378.146 54.6 379.762 54.304 381.554 54.304ZM381.554 76C383.954 76 385.746 75.2 386.93 73.6C388.114 71.984 388.706 69.736 388.706 66.856C388.706 63.96 388.114 61.704 386.93 60.088C385.746 58.472 383.954 57.664 381.554 57.664C380.338 57.664 379.274 57.872 378.362 58.288C377.466 58.704 376.714 59.304 376.106 60.088C375.514 60.872 375.066 61.84 374.762 62.992C374.474 64.128 374.33 65.416 374.33 66.856C374.33 69.736 374.922 71.984 376.106 73.6C377.306 75.2 379.122 76 381.554 76ZM406.872 67.12C407.736 67.12 408.496 67 409.152 66.76C409.808 66.52 410.36 66.184 410.808 65.752C411.256 65.32 411.592 64.808 411.816 64.216C412.04 63.608 412.152 62.944 412.152 62.224C412.152 60.736 411.696 59.552 410.784 58.672C409.888 57.792 408.584 57.352 406.872 57.352C405.144 57.352 403.824 57.792 402.912 58.672C402.016 59.552 401.568 60.736 401.568 62.224C401.568 62.944 401.68 63.608 401.904 64.216C402.144 64.808 402.488 65.32 402.936 65.752C403.384 66.184 403.936 66.52 404.592 66.76C405.248 67 406.008 67.12 406.872 67.12ZM414.576 80.32C414.576 79.728 414.408 79.248 414.072 78.88C413.736 78.512 413.28 78.224 412.704 78.016C412.144 77.808 411.488 77.664 410.736 77.584C409.984 77.488 409.184 77.416 408.336 77.368C407.504 77.32 406.656 77.272 405.792 77.224C404.928 77.176 404.096 77.096 403.296 76.984C402.4 77.4 401.664 77.928 401.088 78.568C400.528 79.192 400.248 79.928 400.248 80.776C400.248 81.32 400.384 81.824 400.656 82.288C400.944 82.768 401.376 83.176 401.952 83.512C402.528 83.864 403.248 84.136 404.112 84.328C404.992 84.536 406.024 84.64 407.208 84.64C408.36 84.64 409.392 84.536 410.304 84.328C411.216 84.12 411.984 83.824 412.608 83.44C413.248 83.056 413.736 82.6 414.072 82.072C414.408 81.544 414.576 80.96 414.576 80.32ZM418.92 55.648V57.232C418.92 57.76 418.584 58.096 417.912 58.24L415.152 58.6C415.696 59.656 415.968 60.824 415.968 62.104C415.968 63.288 415.736 64.368 415.272 65.344C414.824 66.304 414.2 67.128 413.4 67.816C412.6 68.504 411.64 69.032 410.52 69.4C409.4 69.768 408.184 69.952 406.872 69.952C405.736 69.952 404.664 69.816 403.656 69.544C403.144 69.864 402.752 70.208 402.48 70.576C402.208 70.928 402.072 71.288 402.072 71.656C402.072 72.232 402.304 72.672 402.768 72.976C403.248 73.264 403.872 73.472 404.64 73.6C405.408 73.728 406.28 73.808 407.256 73.84C408.248 73.872 409.256 73.928 410.28 74.008C411.32 74.072 412.328 74.192 413.304 74.368C414.296 74.544 415.176 74.832 415.944 75.232C416.712 75.632 417.328 76.184 417.792 76.888C418.272 77.592 418.512 78.504 418.512 79.624C418.512 80.664 418.248 81.672 417.72 82.648C417.208 83.624 416.464 84.488 415.488 85.24C414.512 86.008 413.312 86.616 411.888 87.064C410.48 87.528 408.888 87.76 407.112 87.76C405.336 87.76 403.784 87.584 402.456 87.232C401.128 86.88 400.024 86.408 399.144 85.816C398.264 85.224 397.6 84.536 397.152 83.752C396.72 82.984 396.504 82.176 396.504 81.328C396.504 80.128 396.88 79.112 397.632 78.28C398.384 77.448 399.416 76.784 400.728 76.288C400.008 75.968 399.432 75.544 399 75.016C398.584 74.472 398.376 73.744 398.376 72.832C398.376 72.48 398.44 72.12 398.568 71.752C398.696 71.368 398.888 70.992 399.144 70.624C399.416 70.24 399.744 69.88 400.128 69.544C400.512 69.208 400.96 68.912 401.472 68.656C400.272 67.984 399.336 67.096 398.664 65.992C397.992 64.872 397.656 63.576 397.656 62.104C397.656 60.92 397.88 59.848 398.328 58.888C398.792 57.912 399.432 57.088 400.248 56.416C401.064 55.728 402.032 55.2 403.152 54.832C404.288 54.464 405.528 54.28 406.872 54.28C407.928 54.28 408.912 54.4 409.824 54.64C410.736 54.864 411.568 55.2 412.32 55.648H418.92ZM437.497 58.696C437.305 59.048 437.009 59.224 436.609 59.224C436.369 59.224 436.097 59.136 435.793 58.96C435.489 58.784 435.113 58.592 434.665 58.384C434.233 58.16 433.713 57.96 433.105 57.784C432.497 57.592 431.777 57.496 430.945 57.496C430.225 57.496 429.577 57.592 429.001 57.784C428.425 57.96 427.929 58.208 427.513 58.528C427.113 58.848 426.801 59.224 426.577 59.656C426.369 60.072 426.265 60.528 426.265 61.024C426.265 61.648 426.441 62.168 426.793 62.584C427.161 63 427.641 63.36 428.233 63.664C428.825 63.968 429.497 64.24 430.249 64.48C431.001 64.704 431.769 64.952 432.553 65.224C433.353 65.48 434.129 65.768 434.881 66.088C435.633 66.408 436.305 66.808 436.897 67.288C437.489 67.768 437.961 68.36 438.313 69.064C438.681 69.752 438.865 70.584 438.865 71.56C438.865 72.68 438.665 73.72 438.265 74.68C437.865 75.624 437.273 76.448 436.489 77.152C435.705 77.84 434.745 78.384 433.609 78.784C432.473 79.184 431.161 79.384 429.673 79.384C427.977 79.384 426.441 79.112 425.065 78.568C423.689 78.008 422.521 77.296 421.561 76.432L422.569 74.8C422.697 74.592 422.849 74.432 423.025 74.32C423.201 74.208 423.425 74.152 423.697 74.152C423.985 74.152 424.289 74.264 424.609 74.488C424.929 74.712 425.313 74.96 425.761 75.232C426.225 75.504 426.785 75.752 427.441 75.976C428.097 76.2 428.913 76.312 429.889 76.312C430.721 76.312 431.449 76.208 432.073 76C432.697 75.776 433.217 75.48 433.633 75.112C434.049 74.744 434.353 74.32 434.545 73.84C434.753 73.36 434.857 72.848 434.857 72.304C434.857 71.632 434.673 71.08 434.305 70.648C433.953 70.2 433.481 69.824 432.889 69.52C432.297 69.2 431.617 68.928 430.849 68.704C430.097 68.464 429.321 68.216 428.521 67.96C427.737 67.704 426.961 67.416 426.193 67.096C425.441 66.76 424.769 66.344 424.177 65.848C423.585 65.352 423.105 64.744 422.737 64.024C422.385 63.288 422.209 62.4 422.209 61.36C422.209 60.432 422.401 59.544 422.785 58.696C423.169 57.832 423.729 57.08 424.465 56.44C425.201 55.784 426.105 55.264 427.177 54.88C428.249 54.496 429.473 54.304 430.849 54.304C432.449 54.304 433.881 54.56 435.145 55.072C436.425 55.568 437.529 56.256 438.457 57.136L437.497 58.696ZM452.316 65.344C451.26 65.344 450.452 65.672 449.892 66.328C449.332 66.968 449.052 67.792 449.052 68.8C449.052 69.6 449.116 70.392 449.244 71.176C449.372 71.96 449.508 72.752 449.652 73.552C449.796 74.336 449.932 75.128 450.06 75.928C450.188 76.712 450.252 77.52 450.252 78.352C450.252 79.456 450.084 80.472 449.748 81.4C449.428 82.328 448.932 83.128 448.26 83.8C447.604 84.472 446.78 84.992 445.788 85.36C444.812 85.744 443.676 85.936 442.38 85.936H441.084V84.016C441.084 83.696 441.196 83.464 441.42 83.32C441.66 83.176 441.868 83.104 442.044 83.104H442.524C443.772 83.104 444.748 82.704 445.452 81.904C446.156 81.104 446.508 80.008 446.508 78.616C446.508 77.72 446.452 76.856 446.34 76.024C446.228 75.192 446.1 74.384 445.956 73.6C445.812 72.8 445.684 72.008 445.572 71.224C445.46 70.44 445.404 69.648 445.404 68.848C445.404 68.256 445.492 67.704 445.668 67.192C445.844 66.664 446.092 66.192 446.412 65.776C446.748 65.36 447.132 65.008 447.564 64.72C448.012 64.432 448.5 64.216 449.028 64.072C448.5 63.928 448.012 63.712 447.564 63.424C447.132 63.12 446.748 62.76 446.412 62.344C446.092 61.928 445.844 61.464 445.668 60.952C445.492 60.424 445.404 59.864 445.404 59.272C445.404 58.472 445.46 57.68 445.572 56.896C445.684 56.112 445.812 55.328 445.956 54.544C446.1 53.744 446.228 52.928 446.34 52.096C446.452 51.264 446.508 50.4 446.508 49.504C446.508 48.128 446.156 47.04 445.452 46.24C444.748 45.424 443.772 45.016 442.524 45.016H442.044C441.868 45.016 441.66 44.944 441.42 44.8C441.196 44.656 441.084 44.424 441.084 44.104V42.208H442.38C443.676 42.208 444.812 42.392 445.788 42.76C446.78 43.128 447.604 43.648 448.26 44.32C448.932 44.992 449.428 45.792 449.748 46.72C450.084 47.648 450.252 48.664 450.252 49.768C450.252 50.6 450.188 51.416 450.06 52.216C449.932 53.016 449.796 53.808 449.652 54.592C449.508 55.376 449.372 56.16 449.244 56.944C449.116 57.728 449.052 58.52 449.052 59.32C449.052 60.344 449.332 61.176 449.892 61.816C450.452 62.456 451.26 62.776 452.316 62.776V65.344Z" fill="black"/>
</g>
<defs>
<clipPath id="clip0_4_15">
<rect width="120" height="531" fill="white" transform="matrix(0 -1 1 0 0 120)"/>
</clipPath>
</defs>
</svg>
